<?xml version="1.0" encoding="utf-8"?>
<!-- Generator: Adobe Illustrator 23.0.3, SVG Export Plug-In . SVG Version: 6.00 Build 0)  -->
<svg version="1.1" id="Layer_1" xmlns="http://www.w3.org/2000/svg" xmlns:xlink="http://www.w3.org/1999/xlink" x="0px" y="0px"
	 viewBox="0 0 48 48" style="enable-background:new 0 0 48 48;" xml:space="preserve">
<style type="text/css">
	.st0{fill:#E01E26;}
</style>
<g>
	<path class="st0" d="M17.3,27c-0.6,0.23-1.1,0.42-1.52,0.58c-0.41,0.16-0.75,0.3-1,0.41c-0.25,0.11-0.44,0.2-0.55,0.27
		c-0.11,0.07-0.18,0.11-0.19,0.14c-0.01,0-0.02,0-0.03-0.01c-0.01-0.01-0.02-0.01-0.03-0.01l-0.02,0.02c0,0.03,0.01,0.05,0.02,0.06
		c0.01,0.01,0.02,0.03,0.02,0.04c-0.03,0-0.04,0.01-0.04,0.04c-0.01,0.01-0.02,0.03-0.02,0.04h0.04h0.04c0.01,0,0.03-0.01,0.06-0.04
		c0.08,0.03,0.15,0.08,0.2,0.16c0.05,0.08,0.07,0.18,0.06,0.3c-0.19,0.15-0.39,0.22-0.6,0.22c-0.2,0-0.35-0.05-0.46-0.15
		c-0.11-0.1-0.15-0.17-0.14-0.21c0.01,0,0.02,0,0.02-0.01c0-0.01,0.01-0.01,0.02-0.01l0.02-0.02c-0.07,0-0.11-0.04-0.13-0.11
		c-0.02-0.07-0.04-0.16-0.05-0.25c-0.01-0.11-0.02-0.23-0.02-0.38c0.05-0.16,0.19-0.33,0.41-0.5c0.22-0.17,0.46-0.34,0.72-0.49
		c0.26-0.15,0.51-0.28,0.75-0.37c0.24-0.09,0.41-0.14,0.52-0.14c0-0.01,0-0.02-0.01-0.02c-0.01,0-0.01-0.01-0.01-0.02
		c0.11-0.07,0.2-0.11,0.29-0.12c0.09-0.01,0.14-0.02,0.15-0.02h-0.02h0.04l-0.02-0.02v-0.04h0.02l0.02,0.02
		c0,0.01,0.01,0.02,0.02,0.02c0.03,0,0.04-0.01,0.04-0.04c0-0.03,0.03-0.04,0.1-0.04c0.08,0,0.13-0.03,0.16-0.1
		c0.01,0,0.03,0,0.04,0.01c0.01,0.01,0.03,0.01,0.04,0.01c0.04,0,0.09-0.01,0.14-0.04c0.04-0.01,0.08-0.03,0.12-0.05
		c0.04-0.02,0.07-0.04,0.1-0.07c0.01,0,0.02,0,0.03,0.01c0.01,0.01,0.02,0.01,0.03,0.01l0.02-0.02v-0.02c0.03,0,0.12-0.02,0.28-0.07
		c0.16-0.05,0.33-0.1,0.52-0.17c0.21-0.07,0.44-0.15,0.68-0.24c0-0.04,0.02-0.08,0.06-0.12c0-0.01,0-0.02-0.01-0.03
		c-0.01-0.01-0.01-0.02-0.01-0.03l0.02-0.02l0.02,0.02c0.01,0,0.04-0.05,0.07-0.15c0.03-0.1,0.07-0.15,0.11-0.15
		c0-0.01,0-0.03-0.01-0.04c-0.01-0.01-0.01-0.03-0.01-0.04c0.05-0.19,0.13-0.31,0.23-0.36c0.1-0.05,0.15-0.1,0.15-0.14
		c0-0.01,0-0.02-0.01-0.02c-0.01,0-0.01-0.01-0.01-0.02c0.09-0.11,0.18-0.21,0.25-0.31c0.07-0.1,0.11-0.16,0.11-0.19l-0.02-0.02
		c0.17-0.31,0.37-0.63,0.59-0.98c0.22-0.35,0.43-0.67,0.64-0.97c0.21-0.3,0.39-0.56,0.54-0.77c0.15-0.21,0.24-0.34,0.27-0.38
		l-0.02,0.02c0.05-0.03,0.12-0.11,0.19-0.26c0.07-0.15,0.12-0.24,0.15-0.28c0.04-0.04,0.09-0.07,0.14-0.1l-0.02-0.04
		c0.19-0.36,0.37-0.63,0.55-0.82c0.18-0.19,0.28-0.31,0.29-0.38c0.04-0.05,0.1-0.12,0.17-0.21c0.07-0.09,0.14-0.18,0.21-0.27
		c0.08-0.11,0.16-0.21,0.24-0.32c0.01-0.01,0.03-0.03,0.04-0.06l0.04-0.08c0.01-0.05,0.06-0.13,0.15-0.24
		c0.09-0.11,0.18-0.21,0.27-0.32c0.11-0.13,0.23-0.27,0.36-0.4c0.08-0.12,0.16-0.23,0.24-0.32c0.07-0.08,0.14-0.16,0.21-0.24
		c0.07-0.08,0.14-0.13,0.19-0.16l-0.06,0.02c0.08-0.11,0.21-0.21,0.38-0.32c0.17-0.11,0.3-0.19,0.38-0.26c0.01,0,0.02,0,0.03,0.01
		c0.01,0.01,0.02,0.01,0.03,0.01c0.01,0,0.06-0.02,0.15-0.05c0.09-0.03,0.17-0.05,0.25-0.05c0.11,0,0.25,0.01,0.42,0.04
		c0.17,0.03,0.29,0.07,0.36,0.14c0.09-0.04,0.21-0.06,0.36-0.06c0.13,0,0.26,0.03,0.39,0.09c0.13,0.06,0.24,0.13,0.34,0.21
		c0.1,0.08,0.18,0.15,0.24,0.21c0.06,0.06,0.1,0.09,0.11,0.09c-0.03,0.19-0.08,0.36-0.15,0.53c-0.07,0.17-0.12,0.34-0.13,0.51
		c-0.01,0-0.08,0.14-0.19,0.43c-0.11,0.29-0.26,0.68-0.44,1.19c-0.18,0.51-0.39,1.11-0.63,1.83c-0.24,0.71-0.49,1.49-0.74,2.35
		c-0.08,0.24-0.15,0.43-0.21,0.58c-0.06,0.15-0.12,0.29-0.17,0.43c-0.05,0.14-0.11,0.29-0.16,0.46c-0.05,0.17-0.11,0.39-0.18,0.67
		c0,0.08,0.05,0.16,0.15,0.25c0.1,0.09,0.16,0.13,0.17,0.13c0,0.03,0,0.04-0.01,0.05c-0.01,0.01-0.01,0.02-0.01,0.05
		c-0.01,0.04,0.01,0.08,0.06,0.11c0.05,0.03,0.07,0.11,0.06,0.23c0,0.09-0.03,0.17-0.1,0.24c-0.07,0.07-0.17,0.1-0.32,0.1
		c-0.07,0-0.17-0.01-0.3-0.04c-0.11,0.43-0.23,0.85-0.37,1.27c-0.14,0.42-0.24,0.8-0.31,1.15l0.04,0.02
		c-0.04,0.03-0.08,0.1-0.13,0.23c-0.05,0.13-0.07,0.22-0.07,0.29c0,0.03,0.01,0.04,0.02,0.03c0.01-0.01,0.02,0,0.02,0.03h-0.02
		c-0.04,0.08-0.07,0.15-0.1,0.2c-0.05,0.13-0.08,0.22-0.08,0.26c0,0.01,0.01,0.02,0.02,0.02l0.02,0.02c-0.01,0-0.02,0.01-0.02,0.02
		c-0.01,0.01-0.02,0.03-0.02,0.04l0.02,0.02c-0.09,0.37-0.17,0.74-0.23,1.1c-0.06,0.36-0.14,0.73-0.23,1.12
		c-0.01,0.11-0.02,0.22-0.02,0.33c0,0.11,0,0.2,0,0.27c0,0.01,0,0.02-0.01,0.03c-0.01,0.01-0.01,0.02-0.01,0.03
		c-0.01,0.04,0.01,0.08,0.06,0.11c0.05,0.03,0.08,0.08,0.08,0.15c-0.01,0.04-0.04,0.1-0.07,0.17c-0.03,0.07-0.08,0.11-0.15,0.11
		c-0.21-0.03-0.42-0.07-0.63-0.13c-0.21-0.06-0.39-0.14-0.56-0.24c-0.17-0.1-0.3-0.22-0.4-0.35c-0.1-0.13-0.14-0.29-0.13-0.48
		c0.01-0.2,0.04-0.41,0.08-0.64c0.04-0.23,0.08-0.44,0.13-0.63c0.05-0.19,0.08-0.36,0.11-0.49c0.03-0.13,0.04-0.21,0.04-0.22
		c0-0.01-0.01-0.02-0.02-0.02c0.03-0.09,0.08-0.29,0.16-0.6c0.08-0.31,0.18-0.67,0.29-1.08c0.11-0.41,0.24-0.85,0.37-1.31
		c0.13-0.46,0.27-0.89,0.4-1.29c-0.01-0.03-0.07-0.04-0.16-0.04c-0.43,0-0.8,0.01-1.12,0.03c-0.32,0.02-0.67,0.06-1.06,0.13
		c-0.03,0.03-0.1,0.05-0.22,0.08c-0.12,0.03-0.23,0.04-0.32,0.04c-0.01,0-0.02,0-0.03-0.01c-0.01-0.01-0.02-0.01-0.03-0.01
		c-0.04,0.03-0.11,0.04-0.21,0.05c-0.1,0.01-0.2,0.03-0.31,0.06c-0.11,0.03-0.21,0.08-0.3,0.13c-0.09,0.05-0.15,0.14-0.18,0.26
		c0,0.05-0.05,0.15-0.14,0.29c-0.09,0.14-0.15,0.21-0.16,0.21c-0.12,0.17-0.19,0.29-0.22,0.34c-0.03,0.05-0.05,0.09-0.06,0.11
		c-0.01,0.02-0.03,0.05-0.06,0.1c-0.03,0.05-0.1,0.16-0.22,0.33c-0.03,0-0.11,0.11-0.24,0.33c-0.13,0.22-0.28,0.49-0.44,0.8
		c-0.16,0.31-0.32,0.64-0.49,0.99c-0.17,0.35-0.3,0.65-0.41,0.92v0.02c0,0.03,0.05,0.07,0.15,0.13c0.1,0.06,0.14,0.11,0.13,0.15
		c-0.03,0.17-0.12,0.34-0.29,0.51c-0.17,0.17-0.3,0.25-0.41,0.25c-0.12,0-0.23-0.03-0.34-0.1c-0.11-0.07-0.19-0.14-0.26-0.21
		c-0.07-0.07-0.12-0.14-0.16-0.2c-0.04-0.06-0.06-0.08-0.06-0.07c0.01-0.21,0.08-0.47,0.19-0.77c0.11-0.3,0.23-0.59,0.36-0.88
		c0.13-0.29,0.24-0.54,0.35-0.76c0.11-0.22,0.16-0.35,0.16-0.39c0.04-0.19,0.11-0.38,0.21-0.58c0.1-0.2,0.2-0.38,0.3-0.55
		c0.1-0.17,0.19-0.31,0.28-0.43c0.09-0.12,0.13-0.19,0.13-0.22c-0.01,0-0.03,0.01-0.04,0.02C17.26,27.13,17.28,27.08,17.3,27z
		 M14.47,27.34c0.13-0.12,0.23-0.2,0.3-0.23c0.07-0.03,0.12-0.05,0.16-0.05c0.03,0,0.05,0,0.06,0.01c0.01,0.01,0.03,0.01,0.04,0.01
		L15.09,27c0.03,0,0.04,0,0.05,0.01c0.01,0.01,0.02,0.01,0.03,0.01c0.03,0,0.09-0.02,0.2-0.06c0.11-0.04,0.21-0.09,0.32-0.14
		c0.13-0.05,0.28-0.13,0.44-0.22c0.2-0.07,0.4-0.14,0.6-0.21c0.2-0.07,0.38-0.14,0.54-0.2c0.16-0.06,0.34-0.12,0.54-0.19h-0.04
		c0.03-0.01,0.06-0.02,0.09-0.01c0.03,0.01,0.05-0.02,0.05-0.09c-0.56,0.17-1.16,0.39-1.82,0.64c-0.09,0-0.21,0.04-0.34,0.13
		c-0.13,0.09-0.22,0.13-0.26,0.13v-0.04v0.04c-0.29,0.12-0.49,0.2-0.6,0.25c-0.11,0.05-0.18,0.08-0.21,0.1
		c-0.03,0.02-0.06,0.03-0.07,0.04c-0.01,0.01-0.07,0.02-0.16,0.05c0,0.01,0.01,0.02,0.02,0.02l-0.02,0.02c-0.01,0-0.02,0-0.03-0.01
		c-0.01-0.01-0.02-0.01-0.03-0.01c0,0.04-0.01,0.06-0.02,0.06c-0.01,0-0.03-0.01-0.04-0.02c-0.07,0.01-0.14,0.05-0.22,0.1
		c-0.07,0.04-0.15,0.09-0.25,0.15c-0.1,0.06-0.22,0.14-0.35,0.25c-0.03,0.03-0.06,0.06-0.09,0.09c-0.03,0.03-0.06,0.06-0.09,0.09
		c0,0.01,0.01,0.03,0.02,0.04c0.15-0.15,0.32-0.27,0.53-0.38C14.09,27.53,14.28,27.43,14.47,27.34z M16.66,29.14
		c0.12-0.23,0.21-0.38,0.26-0.46C16.98,28.6,17,28.55,17,28.52c0-0.03,0-0.04-0.01-0.05c-0.01-0.01-0.01-0.02-0.01-0.05
		c0-0.01,0.02-0.04,0.07-0.08c0.05-0.04,0.08-0.11,0.11-0.22c0-0.03,0.01-0.04,0.04-0.04c0.12-0.32,0.22-0.55,0.3-0.7
		c0.08-0.15,0.14-0.25,0.19-0.31c0.05-0.06,0.08-0.1,0.11-0.11c0.03-0.01,0.04-0.04,0.04-0.08c0-0.01-0.02-0.02-0.06-0.02
		s-0.1,0.06-0.18,0.18c-0.08,0.12-0.16,0.25-0.23,0.4c-0.07,0.15-0.16,0.33-0.27,0.56c-0.03,0.07-0.06,0.14-0.1,0.23
		c-0.04,0.09-0.08,0.18-0.12,0.27c-0.05,0.11-0.11,0.21-0.16,0.32c-0.04,0.16-0.1,0.32-0.19,0.47c-0.09,0.15-0.17,0.29-0.25,0.42
		c-0.08,0.13-0.15,0.24-0.21,0.33c-0.06,0.09-0.09,0.16-0.09,0.2c0,0.01,0.01,0.02,0.02,0.02c-0.03,0.17-0.09,0.36-0.19,0.55
		c-0.1,0.19-0.17,0.38-0.21,0.55c0.01,0.04,0.01,0.08,0,0.11c-0.01,0.03,0,0.06,0.04,0.09c0.11-0.44,0.25-0.85,0.44-1.25
		C16.27,29.91,16.46,29.52,16.66,29.14z M18.52,25.74c-0.07,0-0.12,0.02-0.16,0.06C18.43,25.8,18.48,25.78,18.52,25.74z
		 M18.94,25.12c0.21-0.41,0.47-0.83,0.76-1.27c0.29-0.43,0.58-0.85,0.86-1.25c0.28-0.4,0.53-0.77,0.76-1.11
		c0.23-0.34,0.39-0.63,0.5-0.87c0.13-0.13,0.27-0.31,0.42-0.52c0.15-0.21,0.28-0.42,0.41-0.63c0.13-0.21,0.23-0.38,0.32-0.53
		c0.09-0.15,0.14-0.22,0.17-0.22c0.01,0,0.02,0.01,0.02,0.04c0-0.07,0.05-0.14,0.14-0.21c0.09-0.07,0.14-0.12,0.14-0.13h-0.04
		c0.03,0,0.04-0.03,0.04-0.08l0.02,0.02l0.02-0.02l-0.02-0.04c0.2-0.12,0.35-0.27,0.46-0.46c0.11-0.19,0.17-0.28,0.18-0.28v-0.04
		c0.11-0.08,0.19-0.16,0.25-0.23c0.06-0.07,0.11-0.14,0.15-0.19c0.05-0.05,0.09-0.11,0.12-0.18v0.02c0.16-0.23,0.29-0.4,0.4-0.51
		c0.11-0.11,0.19-0.19,0.26-0.24c0.07-0.05,0.11-0.07,0.14-0.08c0.03-0.01,0.04-0.02,0.04-0.03h-0.02v-0.04
		c-0.12,0.07-0.22,0.13-0.3,0.19c-0.08,0.06-0.16,0.12-0.24,0.19c-0.08,0.07-0.13,0.13-0.14,0.18V16.6
		c-0.03,0.03-0.05,0.05-0.06,0.08c-0.01,0.03-0.03,0.05-0.06,0.06c-0.01,0-0.02-0.01-0.02-0.02l-0.02,0.02c0,0.01,0,0.02,0.01,0.03
		c0.01,0.01,0.01,0.02,0.01,0.03c-0.16,0.13-0.28,0.24-0.36,0.32c-0.08,0.08-0.13,0.14-0.16,0.19c-0.03,0.05-0.04,0.08-0.04,0.11
		c0,0.03-0.01,0.05-0.02,0.08c-0.01,0.03-0.07,0.08-0.16,0.17c-0.09,0.09-0.14,0.14-0.14,0.15l0.02,0.04
		c-0.05,0-0.08,0.03-0.08,0.08c0-0.01,0.01-0.03,0.04-0.04c-0.03,0-0.07,0.05-0.14,0.15c-0.07,0.1-0.14,0.21-0.22,0.32
		c-0.08,0.11-0.16,0.22-0.24,0.32c-0.08,0.1-0.14,0.15-0.18,0.15v-0.02c0,0.01,0,0.02,0.01,0.03c0.01,0.01,0.01,0.02,0.01,0.03
		c-0.04,0-0.06,0.01-0.06,0.02l0.02,0.04c-0.16,0.15-0.31,0.32-0.46,0.51c-0.15,0.19-0.28,0.39-0.4,0.58
		c-0.12,0.19-0.22,0.37-0.31,0.52c-0.09,0.15-0.16,0.25-0.21,0.29c-0.08,0.16-0.21,0.39-0.4,0.68c-0.19,0.29-0.38,0.58-0.57,0.85
		c-0.19,0.27-0.36,0.51-0.5,0.71c-0.14,0.2-0.2,0.29-0.19,0.26c0,0.01,0.01,0.03,0.02,0.04l-0.02,0.02l-0.02-0.02l-0.12,0.18
		c-0.03,0.04-0.05,0.07-0.06,0.1c0,0.01,0,0.02,0.01,0.03c0.01,0.01,0.01,0.02,0.01,0.03c-0.11,0.11-0.19,0.2-0.24,0.28
		c-0.05,0.08-0.1,0.15-0.13,0.22c-0.03,0.07-0.06,0.13-0.09,0.2c-0.03,0.07-0.07,0.13-0.12,0.2c-0.11,0.17-0.19,0.31-0.25,0.41
		c-0.06,0.1-0.11,0.19-0.16,0.27c-0.05,0.08-0.08,0.12-0.09,0.12c0.09-0.03,0.16-0.07,0.19-0.13
		C18.84,25.21,18.89,25.16,18.94,25.12z M20.18,24.97l0.04,0.02c0.01,0,0.02-0.01,0.02-0.02c0.17-0.04,0.33-0.07,0.48-0.1
		c0.15-0.03,0.29-0.05,0.43-0.07c0.14-0.02,0.29-0.04,0.45-0.05c0.16-0.01,0.34-0.02,0.54-0.02s0.4,0.01,0.6,0.02
		c0.2,0.01,0.4,0.03,0.6,0.06c0.07-0.19,0.13-0.39,0.2-0.61c0.07-0.22,0.11-0.42,0.14-0.61c0-0.03-0.01-0.04-0.02-0.03
		c-0.01,0.01-0.02,0-0.02-0.03c0.05-0.01,0.1-0.07,0.13-0.17c0.03-0.1,0.06-0.2,0.08-0.31c0.02-0.11,0.04-0.21,0.07-0.32
		c0.03-0.11,0.06-0.18,0.1-0.22l-0.02-0.02c-0.01,0-0.02-0.01-0.02-0.02c0.01-0.07,0.04-0.19,0.08-0.36
		c0.04-0.17,0.12-0.33,0.24-0.48c0-0.03-0.01-0.04-0.02-0.03c-0.01,0.01-0.02,0-0.02-0.01c0-0.01,0.02-0.07,0.05-0.16
		c0.03-0.09,0.07-0.17,0.11-0.24h-0.02c0.01-0.13,0.05-0.25,0.11-0.36c0.06-0.11,0.1-0.21,0.13-0.3c-0.03,0-0.04-0.01-0.04-0.04
		c0.07-0.28,0.15-0.54,0.25-0.77c0.1-0.23,0.19-0.46,0.27-0.67l-0.02-0.02c0.05-0.21,0.13-0.45,0.23-0.7c0.1-0.25,0.2-0.49,0.3-0.71
		c0.1-0.22,0.19-0.41,0.27-0.56c0.08-0.15,0.12-0.24,0.12-0.27c0-0.04-0.01-0.06-0.02-0.06c-0.03,0-0.06,0.02-0.11,0.07
		c-0.05,0.05-0.09,0.1-0.13,0.15c-0.04,0.05-0.09,0.12-0.14,0.2c-0.04,0-0.06,0.01-0.06,0.02c0,0.01,0,0.02,0.01,0.03
		c0.01,0.01,0.01,0.02,0.01,0.03c-0.08,0.03-0.12,0.07-0.12,0.14c-0.01,0.07-0.06,0.15-0.14,0.25c-0.08,0.1-0.17,0.19-0.26,0.28
		c-0.09,0.09-0.18,0.16-0.26,0.23c-0.08,0.07-0.12,0.11-0.12,0.12h0.02c0,0.04-0.01,0.06-0.02,0.07c-0.01,0.01-0.02,0.02-0.02,0.03
		l0.02,0.04c-0.04,0-0.06,0.01-0.06,0.02c0,0.01,0,0.02,0.01,0.03c0.01,0.01,0.01,0.02,0.01,0.03l-0.14,0.08v0.04
		c0,0.01,0.01,0.02,0.02,0.02l-0.02,0.02c-0.01,0-0.02-0.01-0.02-0.02l-0.02,0.02c0,0.01,0,0.02,0.01,0.03
		c0.01,0.01,0.01,0.02,0.01,0.03c-0.21,0.19-0.34,0.33-0.39,0.44c-0.05,0.11-0.07,0.17-0.07,0.2c0-0.01-0.01-0.03-0.02-0.04
		l-0.02,0.02c0,0.01,0,0.02,0.01,0.03c0.01,0.01,0.01,0.02,0.01,0.03c-0.04,0-0.08,0.01-0.12,0.02v0.04c0,0.01,0.01,0.02,0.02,0.02
		c-0.04,0-0.07,0.03-0.09,0.09c-0.02,0.06-0.04,0.09-0.05,0.09v-0.02v0.06c-0.07,0-0.11,0.04-0.12,0.12
		c-0.01,0.08-0.04,0.12-0.08,0.12c0,0.01,0.01,0.03,0.02,0.04l-0.04,0.02v-0.02c-0.05,0.04-0.08,0.06-0.07,0.07
		c0.01,0.01,0,0.04-0.03,0.09c-0.01,0-0.02,0-0.02-0.01c0-0.01-0.01-0.01-0.02-0.01c0,0.05-0.01,0.08-0.03,0.08
		c-0.02,0-0.03,0.01-0.03,0.02c0,0.01,0.01,0.03,0.02,0.04l-0.04,0.02v-0.02c-0.03,0.07-0.06,0.11-0.09,0.13
		c-0.03,0.02-0.05,0.04-0.05,0.05c0,0.01,0,0.02,0.01,0.03c0.01,0.01,0.01,0.02,0.01,0.03c-0.04,0-0.06,0.01-0.06,0.02v0.04
		c-0.03,0-0.05,0.03-0.08,0.09c-0.03,0.06-0.05,0.09-0.08,0.09c0,0.01,0,0.02,0.01,0.03c0.01,0.01,0.01,0.02,0.01,0.03
		c-0.05,0.05-0.11,0.13-0.18,0.22c-0.07,0.09-0.13,0.18-0.2,0.27c-0.07,0.09-0.15,0.2-0.24,0.33l0.02,0.04
		c-0.04,0-0.06,0.01-0.06,0.02v0.06c-0.03,0-0.05,0.02-0.08,0.05c-0.03,0.03-0.04,0.06-0.04,0.09c-0.01,0-0.02-0.01-0.02-0.02
		l-0.02,0.02c0,0.01,0,0.02,0.01,0.03c0.01,0.01,0.01,0.02,0.01,0.03c-0.04,0-0.06,0.01-0.06,0.02c-0.01,0.01-0.01,0.03,0,0.04v0.02
		c-0.11,0.13-0.19,0.25-0.26,0.34c-0.07,0.09-0.12,0.18-0.17,0.26c-0.05,0.08-0.1,0.16-0.15,0.24c-0.05,0.08-0.11,0.17-0.18,0.26
		c-0.05,0.19-0.15,0.35-0.29,0.48c-0.14,0.13-0.2,0.2-0.19,0.2h0.02c-0.01,0.07-0.03,0.1-0.04,0.1c-0.01,0-0.02,0.01-0.02,0.02
		c0,0.01,0.01,0.03,0.02,0.04c-0.04,0-0.06,0.01-0.06,0.02c0,0.01,0,0.02,0.01,0.03c0.01,0.01,0.01,0.02,0.01,0.03
		c-0.19,0.27-0.33,0.46-0.42,0.57c-0.09,0.11-0.16,0.19-0.19,0.24c-0.03,0.05-0.05,0.08-0.06,0.1c-0.01,0.02-0.02,0.06-0.03,0.11
		C20.12,25.03,20.14,25.01,20.18,24.97z M23.31,26.24c-0.29,0.97-0.55,1.92-0.78,2.83c-0.23,0.92-0.41,1.88-0.56,2.87
		c-0.01,0.07-0.02,0.13-0.02,0.18c0,0.05,0,0.1,0,0.14v0.14c0.03-0.19,0.05-0.38,0.08-0.57c0.03-0.19,0.07-0.4,0.12-0.61
		c0.16-0.81,0.3-1.45,0.41-1.93c0.11-0.47,0.21-0.86,0.3-1.17c0.09-0.31,0.16-0.57,0.23-0.8c0.07-0.23,0.14-0.51,0.22-0.84
		c0.07-0.16,0.11-0.25,0.12-0.28c0.01-0.03,0.02-0.05,0.02-0.08c0-0.04-0.01-0.06-0.04-0.06c-0.04,0-0.07,0.03-0.08,0.09
		C23.32,26.23,23.31,26.26,23.31,26.24z M23.79,24.81c0.16-0.51,0.33-1.08,0.51-1.74c0.18-0.65,0.35-1.27,0.52-1.87
		c0.17-0.59,0.32-1.1,0.47-1.52c0.15-0.42,0.27-0.65,0.36-0.69c0-0.01,0-0.03-0.01-0.04c-0.01-0.01-0.01-0.03-0.01-0.06
		c0-0.04,0.02-0.08,0.05-0.12c0.03-0.04,0.05-0.08,0.05-0.12c0.17-0.33,0.33-0.68,0.46-1.05c0.13-0.37,0.26-0.7,0.38-1.01
		c-0.08,0-0.17,0.12-0.27,0.37c-0.1,0.25-0.2,0.52-0.31,0.82c-0.11,0.3-0.2,0.57-0.29,0.82c-0.09,0.25-0.15,0.37-0.19,0.37v-0.04
		c-0.04,0.23-0.11,0.48-0.2,0.76c-0.09,0.28-0.19,0.56-0.29,0.85c-0.1,0.29-0.2,0.57-0.3,0.85c-0.1,0.28-0.18,0.54-0.25,0.78
		c-0.11,0.4-0.19,0.71-0.26,0.93c-0.07,0.22-0.13,0.41-0.18,0.57c-0.05,0.16-0.1,0.32-0.15,0.49c-0.05,0.17-0.1,0.4-0.15,0.71
		C23.77,24.87,23.79,24.85,23.79,24.81z"/>
	<path class="st0" d="M33.81,25.23c0.02,0.13,0.08,0.26,0.15,0.39c0.08,0.14,0.14,0.24,0.21,0.32l-0.02,0.04
		c0,0.01,0.01,0.03,0.02,0.04L34.19,26c0,0.1,0.03,0.19,0.09,0.27c0.06,0.08,0.12,0.15,0.19,0.22c0,0.01,0,0.02-0.01,0.03
		c-0.01,0.01-0.01,0.02-0.01,0.03c0,0.01,0.01,0.03,0.03,0.06c0.02,0.03,0.04,0.06,0.07,0.09c0.08,0.21,0.15,0.37,0.23,0.48
		c0.08,0.11,0.14,0.19,0.2,0.25c0.06,0.06,0.1,0.11,0.14,0.14c0.04,0.03,0.06,0.07,0.06,0.1c0,0.03,0.02,0.07,0.07,0.13
		c0.04,0.06,0.09,0.13,0.13,0.2c0.04,0.07,0.09,0.13,0.13,0.18c0.04,0.05,0.07,0.08,0.07,0.09c0,0.05,0.03,0.12,0.09,0.2
		c0.06,0.08,0.13,0.16,0.21,0.23c0.08,0.08,0.14,0.14,0.2,0.2c0.06,0.06,0.08,0.08,0.07,0.08c0.05,0.09,0.13,0.2,0.23,0.35
		c0.11,0.14,0.22,0.28,0.35,0.42c0.12,0.14,0.24,0.26,0.36,0.38c0.11,0.11,0.2,0.18,0.26,0.19c0.01,0.04,0.05,0.09,0.1,0.15
		c0.06,0.06,0.12,0.12,0.19,0.18c0.07,0.06,0.13,0.1,0.19,0.14c0.06,0.04,0.09,0.06,0.1,0.06c0.04,0,0.09,0.02,0.15,0.06
		c0.06,0.04,0.12,0.08,0.18,0.13c0.06,0.05,0.11,0.09,0.15,0.13c0.04,0.04,0.07,0.06,0.07,0.08v0.02l-0.02-0.02
		c0.04,0,0.09,0.02,0.16,0.06c0.07,0.04,0.14,0.08,0.21,0.13c0.07,0.05,0.13,0.09,0.19,0.13c0.06,0.04,0.09,0.06,0.1,0.06
		c0.01,0,0.02-0.01,0.02-0.02c0.05,0,0.08,0.01,0.08,0.02c0.01,0.01,0.1,0.05,0.27,0.11c0.01,0,0.05,0.02,0.1,0.05
		c0.06,0.03,0.26,0.05,0.61,0.05c0.25,0,0.46-0.03,0.64-0.09c0.17-0.06,0.34-0.19,0.49-0.39c0.15-0.1,0.28-0.18,0.38-0.25
		c0.11-0.07,0.21-0.15,0.31-0.23c0.1-0.09,0.18-0.18,0.24-0.28c0.06,0,0.11,0.04,0.14,0.13c0.03,0.09,0.05,0.18,0.05,0.26
		c-0.03,0.14-0.1,0.28-0.23,0.44c-0.13,0.16-0.19,0.24-0.21,0.25c-0.1,0.16-0.2,0.28-0.29,0.35c-0.09,0.07-0.18,0.12-0.25,0.14
		c-0.08,0.02-0.15,0.05-0.22,0.08c-0.07,0.03-0.13,0.09-0.18,0.18c-0.08,0.04-0.13,0.07-0.15,0.09l-0.04,0.02
		c-0.01,0-0.03-0.01-0.04-0.02c0.01-0.01-0.03,0.01-0.14,0.08c-0.11,0.06-0.25,0.13-0.42,0.21c-0.18,0.08-0.38,0.15-0.6,0.22
		c-0.23,0.07-0.46,0.1-0.69,0.1c0-0.01-0.01-0.03-0.02-0.04c-0.03,0-0.04,0.01-0.04,0.02c0,0.01-0.01,0.02-0.04,0.02
		c0-0.05-0.03-0.08-0.09-0.08c-0.03,0-0.06,0-0.1,0.01c-0.04,0.01-0.1,0.01-0.16,0.01c-0.06,0-0.13-0.01-0.22-0.04
		c-0.08-0.03-0.15-0.08-0.22-0.15c-0.01,0-0.03,0-0.05,0.01c-0.02,0.01-0.03,0.01-0.05,0.01c-0.09,0-0.17-0.03-0.25-0.08
		c-0.08-0.06-0.13-0.08-0.14-0.08c-0.01-0.01-0.02-0.03-0.02-0.04c0-0.01-0.01-0.03-0.02-0.04c-0.01,0-0.02,0-0.02,0.01
		c0,0.01-0.01,0.01-0.02,0.01c0.01,0,0-0.01-0.05-0.02c-0.04-0.01-0.06-0.03-0.05-0.04l0.02-0.02c-0.19-0.13-0.34-0.22-0.47-0.29
		c-0.13-0.07-0.22-0.12-0.29-0.16c-0.07-0.04-0.12-0.07-0.14-0.08c-0.03-0.02-0.04-0.04-0.04-0.07c0-0.01,0-0.02,0.01-0.03
		c0.01-0.01,0.01-0.02,0.01-0.03c-0.01,0-0.02,0-0.03,0.01c-0.01,0.01-0.02,0.01-0.03,0.01c-0.08,0-0.14-0.03-0.21-0.08
		c-0.06-0.06-0.12-0.12-0.18-0.19c-0.06-0.07-0.1-0.13-0.14-0.19c-0.04-0.06-0.06-0.09-0.08-0.1c-0.15-0.14-0.27-0.25-0.37-0.35
		c-0.09-0.09-0.17-0.17-0.22-0.22l-0.11-0.11l0.04,0.02l-0.02-0.02c0.01,0.01,0.02,0.02,0.04,0.02c0.01,0.01,0.02,0.02,0.04,0.02
		c0-0.01-0.03-0.05-0.08-0.11c-0.01,0-0.02,0-0.03,0.01c-0.01,0.01-0.02,0.01-0.03,0.01c-0.4-0.45-0.77-0.93-1.11-1.44
		c-0.34-0.51-0.67-1.06-0.99-1.63l-0.06-0.06c0-0.01,0-0.02,0.01-0.04C33,27.45,33,27.44,33,27.43l-0.04,0.02
		c-0.04,0-0.07-0.05-0.09-0.16c-0.03-0.11-0.04-0.16-0.06-0.16v0.02c-0.08-0.17-0.13-0.29-0.15-0.36c-0.03-0.06-0.04-0.11-0.05-0.13
		c-0.01-0.02-0.02-0.05-0.04-0.08c-0.02-0.02-0.06-0.09-0.12-0.19c0-0.01-0.01-0.02-0.04-0.03c-0.03-0.01-0.04-0.02-0.04-0.05
		c0-0.01,0-0.02,0.01-0.03c0.01-0.01,0.01-0.02,0.01-0.03c-0.03,0-0.04-0.02-0.05-0.07c-0.01-0.04-0.01-0.08-0.01-0.1
		c-0.06,0.05-0.13,0.15-0.2,0.3c-0.07,0.15-0.12,0.26-0.14,0.34c-0.01,0.21-0.07,0.38-0.18,0.52c-0.11,0.13-0.17,0.26-0.18,0.38
		c-0.01,0.14-0.06,0.28-0.13,0.44c-0.08,0.16-0.16,0.34-0.24,0.55c-0.09,0.21-0.17,0.47-0.23,0.76c-0.07,0.29-0.1,0.64-0.1,1.04
		c0,0.44,0.1,0.66,0.3,0.66c0.11,0,0.23-0.06,0.34-0.17l0.02,0.02c0,0.2-0.04,0.36-0.11,0.47c-0.08,0.11-0.16,0.2-0.24,0.25
		c-0.09,0.06-0.21,0.1-0.36,0.12c-0.21,0-0.34-0.03-0.38-0.08c-0.04-0.05-0.06-0.09-0.06-0.13v0.02c-0.03,0-0.04-0.01-0.06-0.02
		c-0.03-0.03-0.04-0.04-0.04-0.06l0.02-0.02c-0.04-0.04-0.13-0.09-0.28-0.17c-0.15-0.08-0.23-0.16-0.23-0.24
		c0-0.01,0-0.02,0.01-0.03c0.01-0.01,0.01-0.02,0.01-0.03c-0.06-0.04-0.11-0.11-0.14-0.22c-0.03-0.11-0.05-0.22-0.07-0.33
		c-0.01-0.11-0.02-0.22-0.03-0.31c-0.01-0.09-0.01-0.15-0.01-0.16c0-0.11,0.01-0.25,0.02-0.41c0.01-0.16,0.02-0.34,0.02-0.54
		c0-0.23,0.02-0.45,0.08-0.68c0.05-0.23,0.08-0.42,0.08-0.6l-0.02,0.02l-0.02-0.02c0.02-0.02,0.06-0.07,0.09-0.13
		c0.04-0.06,0.06-0.17,0.06-0.32c-0.01,0-0.02-0.01-0.02-0.02c0.06-0.06,0.1-0.18,0.11-0.35c0.01-0.17,0.1-0.42,0.26-0.74
		l-0.02-0.04c0-0.01,0.01-0.02,0.02-0.02c0.02-0.01,0.06-0.06,0.09-0.15c0.04-0.09,0.07-0.16,0.09-0.21c0-0.01,0-0.02-0.01-0.04
		c-0.01-0.01-0.01-0.02-0.01-0.04c0-0.01,0.01-0.03,0.02-0.06c0.01-0.02,0.02-0.05,0.04-0.08c0.01-0.02,0.03-0.06,0.06-0.09
		c0.04,0,0.06-0.02,0.06-0.08c0-0.01,0-0.02-0.01-0.02c-0.01,0-0.01-0.01-0.01-0.02c0.01-0.11,0.05-0.24,0.11-0.38
		c0.06-0.14,0.13-0.27,0.21-0.4c0.08-0.13,0.14-0.26,0.21-0.38c0.06-0.12,0.1-0.22,0.11-0.29c0.04-0.1,0.08-0.18,0.12-0.24
		c0.04-0.06,0.08-0.14,0.1-0.24l-0.02,0.02h0.04c0.01,0,0.02-0.01,0.02-0.02l-0.02-0.04c0.1-0.12,0.19-0.26,0.26-0.4
		c0.08-0.14,0.14-0.28,0.19-0.41c0.05-0.13,0.09-0.24,0.12-0.33c0.03-0.09,0.05-0.13,0.07-0.13v0.02v-0.02
		c0-0.02,0.01-0.04,0.02-0.04c0.02,0,0.05-0.04,0.08-0.11c0.02-0.08,0.04-0.11,0.06-0.11v0.02c0.02-0.06,0.05-0.11,0.08-0.14
		c0.02-0.03,0.09-0.15,0.19-0.35l-0.02-0.04c0-0.02,0.01-0.03,0.03-0.03c0.02,0.01,0.06-0.03,0.12-0.12c0-0.01,0-0.02-0.01-0.03
		c-0.01-0.01-0.01-0.02-0.01-0.03c0-0.02,0.02-0.06,0.07-0.11c0.04-0.05,0.07-0.09,0.07-0.13l0.02,0.02c0.01,0,0.02-0.01,0.02-0.02
		l-0.02-0.04c0.1-0.15,0.18-0.27,0.23-0.37c0.06-0.09,0.13-0.23,0.23-0.4l-0.02-0.04c0-0.01,0.01-0.02,0.02-0.02
		c0.12-0.11,0.19-0.23,0.2-0.37c0.01-0.13,0.05-0.2,0.12-0.2l-0.02-0.04c0.01-0.02,0.02-0.03,0.03-0.02
		c0.01,0.01,0.02-0.01,0.03-0.08c0.01,0,0.02,0,0.02,0.01c0,0.01,0.01,0.01,0.02,0.01c0.01,0,0.03-0.03,0.05-0.1
		c0.02-0.07,0.04-0.12,0.07-0.14l-0.02-0.04c0,0.01,0.01-0.01,0.04-0.06c0.02-0.05,0.05-0.08,0.08-0.09c0-0.01-0.01-0.02-0.02-0.02
		c-0.1,0-0.23,0.05-0.38,0.15c-0.16,0.1-0.32,0.21-0.5,0.32c-0.2,0.14-0.41,0.29-0.62,0.47l-0.04-0.02
		c-0.06,0.06-0.11,0.12-0.15,0.16c-0.04,0.04-0.08,0.09-0.13,0.14c-0.05,0.05-0.12,0.11-0.22,0.18c-0.09,0.07-0.23,0.15-0.4,0.25
		c-0.01,0-0.02,0-0.03-0.01c-0.01-0.01-0.02-0.01-0.03-0.01c-0.15,0.15-0.31,0.31-0.48,0.47c-0.17,0.16-0.33,0.32-0.48,0.47
		s-0.28,0.28-0.38,0.39c-0.11,0.11-0.18,0.19-0.22,0.23c-0.15,0.21-0.25,0.35-0.31,0.42c-0.06,0.07-0.1,0.12-0.14,0.14l-0.06,0.09
		c-0.17,0.16-0.31,0.3-0.39,0.42c-0.09,0.12-0.15,0.22-0.18,0.31c-0.03,0.09-0.05,0.16-0.06,0.21c-0.01,0.05-0.02,0.08-0.03,0.09
		c-0.08,0.05-0.12,0.13-0.14,0.23c-0.02,0.1-0.03,0.16-0.03,0.17v-0.04c-0.02,0.03-0.07,0.1-0.14,0.23c-0.07,0.13-0.1,0.36-0.1,0.68
		c0,0.06,0.01,0.11,0.03,0.13c0.02,0.03,0.03,0.04,0.03,0.06l-0.02,0.02c0,0.03,0.01,0.04,0.02,0.04c0.01,0,0.02,0.05,0.02,0.15
		c0,0.3-0.02,0.48-0.08,0.55c-0.05,0.07-0.11,0.1-0.17,0.1c-0.06,0-0.12-0.02-0.16-0.05c-0.04-0.03-0.08-0.07-0.12-0.1
		c-0.05-0.05-0.09-0.11-0.11-0.17c0-0.01,0-0.02,0.01-0.03c0.01-0.01,0.01-0.02,0.01-0.03c-0.06-0.02-0.12-0.1-0.16-0.22
		c-0.04-0.12-0.07-0.18-0.08-0.18c0,0.03-0.01,0.04-0.02,0.04c-0.01-0.04-0.02-0.08-0.02-0.11c-0.02-0.06-0.04-0.09-0.06-0.08
		c-0.01-0.04-0.03-0.11-0.07-0.23c-0.03-0.11-0.07-0.23-0.1-0.37c-0.04-0.13-0.07-0.26-0.09-0.38c-0.02-0.12-0.04-0.2-0.04-0.23
		c0.05-0.05,0.08-0.07,0.08-0.06l-0.02-0.02c0-0.02,0.01-0.04,0.02-0.04c0.01,0,0.02-0.01,0.02-0.02l-0.02-0.02
		c-0.01,0-0.02-0.01-0.02-0.02h0.02l0.02-0.04l-0.02,0.02l-0.02-0.02c0-0.01,0.02-0.06,0.05-0.13c0.03-0.08,0.05-0.12,0.05-0.15
		c0-0.01-0.01-0.02-0.02-0.01c-0.01,0.01-0.02,0-0.02-0.03c0.08-0.09,0.13-0.22,0.18-0.38c0.04-0.17,0.1-0.29,0.18-0.37
		c0.01-0.02,0.07-0.13,0.18-0.32c0.11-0.19,0.23-0.39,0.36-0.61c0.13-0.22,0.26-0.42,0.38-0.59c0.13-0.17,0.21-0.26,0.24-0.26
		l0.02,0.02c0,0.01,0.01,0.02,0.02,0.02c0,0.01-0.01,0.02-0.02,0.02c0.3-0.3,0.54-0.54,0.71-0.71c0.18-0.17,0.31-0.31,0.39-0.39
		c0.09-0.09,0.15-0.16,0.19-0.21c0-0.01-0.01-0.02-0.02-0.02c0-0.01,0.02-0.04,0.08-0.09c0.11-0.05,0.23-0.12,0.34-0.21
		c0.11-0.09,0.22-0.17,0.31-0.26c0.09-0.09,0.17-0.17,0.23-0.23c0.06-0.07,0.11-0.12,0.13-0.14c0.02-0.01,0.05-0.03,0.08-0.06
		l0.04,0.02c0.01,0,0.03-0.02,0.07-0.06c0.03-0.04,0.06-0.07,0.08-0.09c0.01,0,0.02,0,0.03,0.01c0.01,0.01,0.02,0.01,0.03,0.01
		c0.04,0,0.08-0.02,0.12-0.05c0.04-0.03,0.08-0.07,0.12-0.1c0.05-0.05,0.09-0.11,0.11-0.17v0.02c0.06-0.04,0.12-0.07,0.17-0.09
		c0.05-0.02,0.11-0.06,0.17-0.11l0.02,0.02c0.02,0,0.04-0.01,0.05-0.04c0.01-0.02,0.02-0.04,0.03-0.04c0.01-0.01,0.07-0.05,0.16-0.1
		c0.09-0.06,0.19-0.12,0.3-0.18c0.11-0.06,0.2-0.12,0.29-0.17c0.09-0.05,0.14-0.08,0.15-0.08c0.06,0,0.13-0.02,0.22-0.06
		c0.08-0.04,0.16-0.08,0.24-0.13c0.08-0.05,0.15-0.09,0.22-0.13c0.06-0.04,0.1-0.06,0.11-0.06c0-0.04,0.03-0.06,0.09-0.06
		c0.26,0,0.47-0.06,0.62-0.18c0.15-0.12,0.23-0.18,0.24-0.18c0.12,0,0.25-0.03,0.38-0.08c0.12-0.06,0.25-0.12,0.38-0.19
		c0.13-0.07,0.27-0.13,0.4-0.19c0.14-0.06,0.28-0.08,0.43-0.08c0.01,0,0.02,0.01,0.01,0.02c-0.01,0.01,0,0.02,0.03,0.02
		c0.24-0.1,0.44-0.15,0.62-0.15c0.17,0,0.29-0.02,0.36-0.06l0.02,0.02c0,0.01,0.01,0.02,0.02,0.02c0.02,0,0.04-0.01,0.04-0.02
		c0-0.01,0.01-0.02,0.02-0.02l0.02,0.02c0,0.01,0.01,0.02,0.02,0.02c0-0.02,0.02-0.04,0.07-0.04c0.04,0,0.09,0,0.14,0
		c0.08,0,0.2,0.01,0.38,0.02c0.17,0.01,0.35,0.03,0.53,0.06c0.18,0.03,0.34,0.06,0.48,0.09c0.14,0.04,0.21,0.08,0.21,0.13
		c0.02,0,0.09,0.03,0.19,0.09c0.1,0.06,0.16,0.09,0.17,0.09l0.02-0.02c0,0.01,0,0.02-0.01,0.02c-0.01,0-0.01,0.01-0.01,0.02
		c0,0.01,0.02,0.02,0.08,0.02c0.01,0,0.05,0.02,0.1,0.06c0.06,0.04,0.12,0.08,0.18,0.13c0.06,0.05,0.14,0.12,0.23,0.21v0.02
		c-0.01,0-0.02-0.01-0.02-0.02c0.06,0.06,0.13,0.14,0.22,0.24c0.08,0.1,0.15,0.18,0.22,0.24c0,0.01,0,0.02-0.01,0.02
		c-0.01,0-0.01,0.01-0.01,0.02c0,0.01,0.02,0.03,0.08,0.06c0,0.03,0,0.04-0.01,0.05c-0.01,0.01-0.01,0.02-0.01,0.05
		c0,0.09,0.03,0.22,0.1,0.38c0.07,0.17,0.1,0.4,0.1,0.68c0,0.36-0.08,0.72-0.25,1.07c-0.17,0.35-0.38,0.68-0.63,0.99
		c-0.25,0.31-0.52,0.6-0.81,0.87c-0.29,0.27-0.56,0.5-0.81,0.69c-0.25,0.19-0.46,0.35-0.62,0.46c-0.16,0.11-0.24,0.17-0.23,0.17
		c-0.06,0.03-0.14,0.09-0.24,0.2c-0.1,0.11-0.19,0.16-0.28,0.16c-0.09,0-0.18,0.06-0.26,0.17c-0.09,0.11-0.16,0.17-0.21,0.17
		c-0.01,0-0.02,0-0.03-0.01c-0.01-0.01-0.02-0.01-0.03-0.01c-0.03,0.06-0.08,0.13-0.18,0.19c-0.09,0.06-0.19,0.13-0.29,0.19
		c-0.13,0.06-0.26,0.13-0.39,0.21c0,0.01-0.01,0.02-0.02,0.02c-0.01,0-0.03-0.01-0.04-0.02c0,0.04-0.01,0.06-0.02,0.06
		c-0.01,0-0.02,0-0.03-0.01c-0.01-0.01-0.02-0.01-0.03-0.01c-0.04,0.08-0.09,0.13-0.17,0.18c-0.08,0.04-0.15,0.08-0.23,0.11
		c-0.08,0.03-0.16,0.06-0.26,0.08h0.04c-0.01,0-0.02,0-0.03-0.01c-0.01-0.01-0.02-0.01-0.03-0.01c0,0.01-0.01,0.03-0.04,0.06
		c-0.01,0.01-0.03,0.02-0.04,0.02c-0.08,0.05-0.14,0.09-0.19,0.11c-0.05,0.03-0.1,0.05-0.15,0.08c-0.05,0.03-0.09,0.04-0.11,0.04
		c-0.09,0.03-0.16,0.06-0.23,0.09C34.01,25.04,33.9,25.13,33.81,25.23z M27.98,22.75c0-0.02,0.01-0.06,0.03-0.09
		c0.02-0.04,0.04-0.07,0.07-0.09c0.03-0.04,0.06-0.07,0.09-0.09c0-0.01,0-0.02-0.01-0.03c-0.01-0.01-0.01-0.02-0.01-0.03
		c0-0.01,0.03-0.04,0.09-0.08l0.09-0.09c0-0.01,0-0.02-0.01-0.03c-0.01-0.01-0.01-0.02-0.01-0.03c0-0.02,0.02-0.07,0.07-0.13
		c0.04-0.06,0.09-0.12,0.15-0.19c0.06-0.06,0.11-0.12,0.15-0.16c0.04-0.04,0.07-0.07,0.08-0.07c0-0.02,0.01-0.04,0.02-0.06
		c0.23-0.2,0.38-0.34,0.46-0.43c0.08-0.09,0.13-0.15,0.15-0.18c0.02-0.03,0.03-0.05,0.03-0.07c0-0.01,0.03-0.05,0.08-0.11
		c0.44-0.5,0.79-0.83,1.05-1c0.26-0.17,0.38-0.25,0.36-0.25c0.05,0,0.11-0.04,0.19-0.11c0.08-0.08,0.12-0.14,0.15-0.19
		c0.01,0,0.02,0,0.03,0.01c0.01,0.01,0.02,0.01,0.03,0.01c0.02,0,0.07-0.02,0.14-0.07c0.07-0.04,0.14-0.09,0.21-0.15
		c0.07-0.06,0.16-0.13,0.27-0.22c0.01,0,0.02-0.01,0.02-0.03c0-0.02,0.01-0.03,0.02-0.05c0.1-0.06,0.17-0.1,0.22-0.12
		c0.04-0.02,0.08-0.03,0.1-0.05c0.02-0.01,0.05-0.03,0.08-0.06c0.03-0.02,0.1-0.08,0.2-0.15h0.06c0.16-0.14,0.3-0.23,0.41-0.27
		c0.11-0.04,0.17-0.07,0.17-0.08h-0.02c0.02,0,0.04,0,0.05-0.01c0.01-0.01,0.04-0.04,0.1-0.1l0.04,0.02c0.02,0,0.08-0.03,0.15-0.08
		c0.08-0.06,0.14-0.08,0.19-0.08l-0.02-0.02c0.06-0.01,0.14-0.04,0.23-0.08c0.09-0.04,0.17-0.08,0.25-0.13
		c0.08-0.05,0.15-0.1,0.22-0.15c0.06-0.05,0.09-0.09,0.09-0.11c-0.11,0-0.22,0.04-0.32,0.11c-0.1,0.08-0.16,0.11-0.19,0.11v-0.02
		c-0.41,0.21-0.73,0.38-0.97,0.49c-0.23,0.11-0.35,0.19-0.35,0.23c-0.01,0-0.02,0-0.03-0.01c-0.01-0.01-0.02-0.01-0.03-0.01
		c-0.03,0.03-0.04,0.05-0.06,0.08c-0.01,0.03-0.04,0.04-0.09,0.04c-0.1,0-0.19,0.05-0.28,0.15c-0.09,0.1-0.13,0.15-0.11,0.15
		c-0.01,0-0.02,0-0.03-0.01c-0.01-0.01-0.02-0.01-0.03-0.01c-0.3,0.28-0.51,0.45-0.64,0.53c-0.13,0.08-0.2,0.11-0.23,0.11
		l-0.04-0.02c-0.03,0.03-0.05,0.05-0.08,0.08c-0.03,0.03-0.05,0.05-0.08,0.05c-0.08,0-0.21,0.09-0.39,0.26
		c-0.19,0.18-0.38,0.37-0.59,0.59c-0.21,0.22-0.39,0.42-0.56,0.6c-0.17,0.18-0.26,0.28-0.27,0.29c-0.06,0.09-0.12,0.15-0.17,0.19
		c-0.05,0.04-0.09,0.07-0.11,0.09c0,0.01,0,0.02,0.01,0.03c0.01,0.01,0.01,0.02,0.01,0.03c-0.16,0.15-0.29,0.3-0.39,0.46
		c-0.1,0.16-0.16,0.25-0.17,0.27c-0.05,0.09-0.12,0.2-0.22,0.34c-0.09,0.14-0.15,0.25-0.16,0.34l0.02,0.02
		c0-0.02,0.01-0.04,0.02-0.04C27.97,22.79,27.98,22.78,27.98,22.75z M30.58,27.07c0.02-0.11,0.06-0.24,0.11-0.39
		c0.05-0.15,0.11-0.29,0.17-0.43c0.05-0.15,0.11-0.31,0.19-0.49v0.02c0.01-0.04,0.02-0.08,0.04-0.13c0.02-0.1,0.06-0.15,0.11-0.15
		c0-0.01,0-0.02-0.01-0.03c-0.01-0.01-0.01-0.02-0.01-0.03c0.01-0.14,0.07-0.27,0.17-0.4c0.1-0.13,0.16-0.23,0.17-0.29
		c0.02-0.04,0.04-0.07,0.04-0.1c0-0.03,0.01-0.07,0.04-0.1l-0.02,0.02c0.02,0,0.05-0.03,0.08-0.1c0.03-0.07,0.06-0.15,0.09-0.23
		c0.03-0.09,0.07-0.2,0.12-0.34v0.04V23.9l-0.02,0.02c0,0.01,0.01,0.02,0.02,0.02h0.04L31.9,23.9c0-0.02,0.02-0.04,0.06-0.04
		l-0.02-0.04c0.01-0.09,0.06-0.19,0.14-0.3c0.08-0.11,0.12-0.17,0.12-0.19c0.17-0.35,0.29-0.58,0.35-0.7
		c0.06-0.12,0.09-0.19,0.09-0.23c0.01-0.03,0.02-0.05,0.03-0.06c0.01-0.01,0.06-0.08,0.13-0.22c0.01-0.05,0.02-0.07,0.04-0.06
		c0.01,0.01,0.02-0.01,0.02-0.08l0.02,0.02c0.01,0,0.02-0.02,0.02-0.05c0-0.03,0.01-0.06,0.02-0.08c0.29-0.55,0.57-1.09,0.86-1.62
		c0.29-0.53,0.56-1.1,0.81-1.7c-0.03,0-0.06,0.03-0.09,0.1c-0.04,0.07-0.08,0.14-0.12,0.23c-0.04,0.08-0.08,0.16-0.12,0.23
		c-0.04,0.07-0.06,0.11-0.08,0.12c-0.01,0.15-0.03,0.26-0.06,0.33c-0.03,0.07-0.05,0.11-0.08,0.13c-0.03,0.02-0.06,0.03-0.08,0.03
		c-0.02,0-0.03,0.01-0.05,0.02c0,0.01,0,0.02,0.01,0.03c0.01,0.01,0.01,0.02,0.01,0.03c-0.33,0.64-0.57,1.09-0.74,1.36
		c-0.17,0.27-0.26,0.42-0.27,0.46c0,0.01,0,0.02,0.01,0.03c0.01,0.01,0.01,0.02,0.01,0.03c-0.04,0.04-0.07,0.08-0.1,0.11
		c-0.03,0.04-0.06,0.08-0.08,0.11c0,0.01,0,0.03,0.01,0.04c0.01,0.01,0.01,0.03,0.01,0.04c-0.04,0-0.07,0.03-0.1,0.08
		c-0.03,0.06-0.06,0.12-0.09,0.18c-0.03,0.06-0.07,0.15-0.1,0.26v-0.04v0.04c-0.01,0-0.02-0.01-0.02-0.02l-0.02,0.02
		c0,0.01,0,0.02,0.01,0.03c0.01,0.01,0.01,0.02,0.01,0.03c-0.31,0.5-0.52,0.88-0.61,1.14c-0.09,0.26-0.15,0.39-0.18,0.39v-0.02
		c-0.16,0.3-0.33,0.65-0.5,1.04c-0.17,0.39-0.33,0.79-0.47,1.18c-0.14,0.39-0.27,0.77-0.38,1.13c-0.11,0.36-0.17,0.68-0.2,0.94
		c0,0.05,0.02,0.08,0.06,0.09c0.04-0.25,0.09-0.49,0.17-0.72C30.42,27.52,30.5,27.29,30.58,27.07z M32.7,26
		c0.12,0.28,0.23,0.5,0.31,0.67c0.08,0.17,0.14,0.3,0.19,0.39c0.04,0.09,0.09,0.18,0.14,0.25l-0.02-0.13c0.01,0,0.02,0.01,0.02,0.02
		c0,0.04,0.01,0.08,0.02,0.11c-0.01,0-0.02,0.02-0.02,0.06c0,0.09,0.05,0.18,0.14,0.26c0.09,0.09,0.14,0.13,0.14,0.11
		c0,0.01-0.01,0.02-0.02,0.02c-0.01,0-0.02,0.01-0.02,0.02c0.08,0.18,0.17,0.36,0.29,0.54c0.12,0.19,0.24,0.36,0.36,0.51
		c0.12,0.15,0.27,0.33,0.46,0.53c0.26,0.38,0.55,0.72,0.86,1.04c0.31,0.32,0.61,0.64,0.9,0.97h0.04c0.15,0.15,0.28,0.27,0.38,0.35
		c0.11,0.08,0.21,0.16,0.31,0.23c0.1,0.08,0.18,0.11,0.24,0.11c0-0.01-0.02-0.04-0.07-0.08c-0.04-0.04-0.09-0.08-0.14-0.12
		c-0.05-0.04-0.1-0.08-0.14-0.1c-0.04-0.03-0.06-0.04-0.05-0.04c-0.04-0.03-0.07-0.04-0.09-0.06c-0.03-0.01-0.06-0.05-0.11-0.11
		l-0.04,0.02c-0.03,0-0.04-0.02-0.06-0.07c-0.01-0.04-0.02-0.07-0.02-0.08c-0.01,0-0.02,0-0.03,0.01c-0.01,0.01-0.02,0.01-0.03,0.01
		c-0.04,0-0.13-0.07-0.26-0.2c-0.14-0.13-0.28-0.27-0.43-0.43c-0.15-0.16-0.28-0.31-0.4-0.46c-0.12-0.15-0.18-0.24-0.18-0.28h0.02
		h-0.02c-0.06-0.14-0.12-0.24-0.16-0.3c-0.04-0.06-0.08-0.11-0.12-0.13c-0.04-0.02-0.08-0.05-0.11-0.07
		c-0.04-0.02-0.08-0.06-0.11-0.12c-0.08-0.1-0.13-0.18-0.16-0.23c-0.03-0.06-0.05-0.1-0.07-0.13c-0.01-0.03-0.03-0.05-0.04-0.07
		c-0.01-0.01-0.04-0.02-0.08-0.04c0-0.01,0-0.02,0.01-0.03c0.01-0.01,0.01-0.02,0.01-0.03c-0.25-0.29-0.41-0.48-0.48-0.57
		c-0.07-0.09-0.1-0.15-0.1-0.18c0-0.01,0.01-0.02,0.03-0.02c0.02,0,0.03-0.01,0.03-0.04c-0.13-0.14-0.22-0.25-0.27-0.34
		c-0.06-0.09-0.08-0.14-0.08-0.17c0-0.01,0-0.02,0.01-0.03c0.01-0.01,0.01-0.02,0.01-0.03c-0.09-0.15-0.16-0.26-0.22-0.34
		c-0.06-0.08-0.1-0.13-0.12-0.16c-0.03-0.03-0.05-0.05-0.08-0.07c0-0.01,0.01-0.02,0.02-0.04c0-0.01,0-0.02,0.01-0.04
		c0.01-0.01,0.01-0.02,0.01-0.04c-0.06-0.06-0.12-0.14-0.18-0.24c-0.06-0.1-0.11-0.2-0.15-0.29c-0.04-0.09-0.08-0.18-0.11-0.25
		c-0.03-0.08-0.05-0.12-0.07-0.13c0-0.01,0-0.02,0.01-0.03c0.01-0.01,0.01-0.02,0.01-0.03c-0.01-0.01-0.03-0.02-0.06-0.02
		c-0.01,0-0.03,0.01-0.07,0.02c-0.03,0.01-0.05,0.03-0.05,0.04C32.67,25.98,32.68,26,32.7,26z M33.47,24.16
		c0.2-0.17,0.41-0.34,0.62-0.49c0.21-0.15,0.41-0.28,0.59-0.39c0.18-0.11,0.33-0.21,0.45-0.28c0.12-0.08,0.18-0.12,0.2-0.15
		c0.51-0.29,0.89-0.54,1.14-0.76c0.25-0.22,0.41-0.33,0.47-0.33c0.45-0.29,0.77-0.54,0.96-0.75c0.19-0.21,0.29-0.32,0.32-0.32
		c0.04,0,0.09-0.03,0.17-0.09c0.08-0.06,0.15-0.13,0.23-0.21c0.09-0.09,0.18-0.19,0.28-0.32c0.09-0.08,0.15-0.13,0.19-0.17
		s0.07-0.07,0.09-0.1c0.02-0.03,0.05-0.07,0.08-0.1c0.02-0.04,0.06-0.11,0.09-0.21c0.01-0.01,0.03-0.03,0.07-0.06
		c0.03-0.02,0.05-0.04,0.05-0.06c0-0.01-0.01-0.02-0.04-0.02c-0.84,0.75-1.46,1.31-1.86,1.67c-0.4,0.36-0.64,0.54-0.71,0.54
		l0.02-0.02c-0.14,0.13-0.28,0.24-0.42,0.34c-0.14,0.1-0.27,0.19-0.38,0.28c-0.14,0.1-0.27,0.19-0.39,0.28c-0.01,0-0.02,0-0.03-0.01
		c-0.01-0.01-0.02-0.01-0.03-0.01c0,0.05-0.04,0.11-0.12,0.17c-0.08,0.06-0.17,0.12-0.27,0.18c-0.1,0.06-0.19,0.11-0.27,0.16
		c-0.08,0.05-0.12,0.08-0.12,0.09h0.02c-0.01,0-0.02-0.01-0.02-0.02c-0.01,0-0.03,0.01-0.07,0.04c-0.03,0.03-0.07,0.05-0.1,0.08
		c-0.04,0.03-0.08,0.07-0.13,0.12c-0.01,0-0.02,0-0.03-0.01c-0.01-0.01-0.02-0.01-0.03-0.01c-0.2,0.19-0.34,0.31-0.43,0.38
		c-0.09,0.06-0.15,0.11-0.19,0.13c-0.04,0.03-0.07,0.05-0.1,0.07c-0.03,0.02-0.09,0.07-0.18,0.14l-0.02,0.02
		c-0.01,0-0.03-0.01-0.04-0.02c-0.04,0.04-0.07,0.06-0.09,0.08c-0.03,0.03-0.05,0.04-0.08,0.06c0,0.03,0.01,0.04,0.02,0.06
		l0.04,0.04C33.44,24.18,33.46,24.17,33.47,24.16z M33.62,23.47c0.06-0.06,0.13-0.13,0.22-0.2c0.08-0.07,0.13-0.12,0.16-0.16
		c0.01,0,0.02,0,0.03,0.01c0.01,0.01,0.02,0.01,0.03,0.01l0.02-0.02l-0.02-0.04c0-0.01,0.01-0.02,0.04-0.02h0.04
		c0.15-0.14,0.3-0.27,0.46-0.39c0.16-0.12,0.3-0.24,0.43-0.34c0.13-0.1,0.24-0.18,0.33-0.24c0.09-0.06,0.14-0.09,0.15-0.09L35.48,22
		l0.04,0.02c0.01,0,0.07-0.04,0.17-0.11l0.13-0.13l0.04,0.02c0.01,0,0.05-0.02,0.12-0.08c0.07-0.05,0.14-0.11,0.21-0.17
		c0.07-0.06,0.13-0.12,0.19-0.17c0.06-0.05,0.09-0.08,0.1-0.08l-0.04,0.02c0.39-0.24,0.66-0.43,0.81-0.58s0.24-0.23,0.26-0.23
		c0.09-0.08,0.16-0.13,0.22-0.18c0.06-0.04,0.13-0.1,0.22-0.16l-0.02,0.02c0.25-0.21,0.45-0.39,0.6-0.53
		c0.15-0.14,0.27-0.27,0.36-0.37c0.1-0.1,0.17-0.18,0.21-0.24c0.09-0.14,0.17-0.25,0.23-0.34c0.07-0.09,0.11-0.13,0.12-0.13
		l-0.02-0.02c0.1-0.14,0.17-0.27,0.22-0.38c0.04-0.12,0.08-0.25,0.12-0.38c-0.19-0.1-0.38-0.17-0.58-0.23
		c-0.2-0.05-0.42-0.08-0.66-0.08c-0.34,0-0.65,0.02-0.94,0.06c-0.29,0.04-0.45,0.08-0.49,0.11c-0.26,0-0.47,0.04-0.62,0.12
		c-0.15,0.08-0.25,0.12-0.3,0.12c-0.08,0.04-0.15,0.06-0.22,0.07c-0.07,0.01-0.13,0.03-0.18,0.07v0.54c-0.01,0.14-0.05,0.3-0.12,0.5
		c-0.07,0.19-0.14,0.38-0.23,0.57c-0.08,0.19-0.15,0.35-0.22,0.5c-0.06,0.14-0.09,0.23-0.09,0.27c0,0.05-0.02,0.11-0.06,0.18
		c-0.04,0.07-0.08,0.14-0.12,0.21c-0.04,0.07-0.1,0.16-0.18,0.27l0.02-0.02c0,0.03-0.01,0.04-0.02,0.06
		c-0.01,0.01-0.02,0.03-0.02,0.04c0,0.01,0.01,0.03,0.02,0.04c-0.04,0-0.06,0.01-0.06,0.02c0,0.01,0,0.02,0.01,0.03
		c0.01,0.01,0.01,0.02,0.01,0.03c-0.03,0-0.05,0.02-0.07,0.05c-0.02,0.03-0.04,0.07-0.06,0.11c-0.02,0.04-0.04,0.1-0.07,0.18v-0.02
		l0.02-0.04c0,0.04-0.04,0.12-0.11,0.25c-0.08,0.13-0.16,0.29-0.25,0.47c-0.09,0.18-0.2,0.38-0.31,0.58
		c-0.11,0.21-0.21,0.4-0.28,0.59l-0.02,0.02H33.62z M35.05,17.11c-0.03,0.01,0.05-0.01,0.23-0.07c0.18-0.06,0.38-0.12,0.6-0.2
		c0.22-0.08,0.42-0.14,0.61-0.21c0.19-0.06,0.28-0.11,0.28-0.13h-0.02c-0.01,0-0.03,0.01-0.07,0.02c-0.03,0.01-0.06,0.02-0.08,0.02
		c-0.01,0-0.03-0.01-0.04-0.02c-0.06,0.06-0.12,0.1-0.18,0.11c-0.06,0.01-0.11,0.02-0.16,0.02h-0.09c-0.01,0-0.03-0.01-0.04-0.02
		c-0.09,0-0.2,0.02-0.35,0.07c-0.14,0.04-0.29,0.09-0.43,0.15c-0.14,0.06-0.27,0.11-0.38,0.17c-0.11,0.06-0.17,0.1-0.2,0.12
		c0.05,0.03,0.09,0.04,0.11,0.04C34.94,17.18,35,17.16,35.05,17.11z"/>
	<g>
		<g>
			<path class="st0" d="M5.16,28.35c-0.07-0.03-0.13-0.07-0.18-0.11c-0.06-0.05-0.09-0.1-0.11-0.16c-0.02-0.06,0.05-0.11,0.21-0.16
				c0.08-0.01,0.16-0.02,0.22-0.03c0.07-0.01,0.16-0.02,0.26-0.04c0.21-0.04,0.5-0.15,0.86-0.32c0.36-0.17,0.62-0.32,0.78-0.43
				l0.05,0.02l0.04-0.01l0.27-0.52l-0.25,0.29l0.09-0.39l0.19-0.08l0.07,0.07l0.04-0.01l0.28-0.6l-0.04,0.01l-0.17,0.26l-0.12,0.02
				c0.01-0.04,0.04-0.09,0.06-0.14c0.03-0.05,0.08-0.1,0.15-0.13c-0.04-0.04-0.13-0.04-0.25,0c-0.21,0.05-0.41,0.12-0.59,0.21
				c-0.19,0.09-0.38,0.16-0.59,0.21c-0.13,0.04-0.29,0.06-0.49,0.07c-0.2,0-0.39,0-0.58-0.02c-0.19-0.02-0.36-0.05-0.5-0.09
				c-0.14-0.04-0.22-0.1-0.24-0.15c-0.01-0.05,0.02-0.09,0.09-0.12c0.07-0.04,0.14-0.07,0.18-0.09c0.12,0.01,0.24,0,0.37-0.04
				c0.13-0.04,0.36-0.12,0.69-0.24c0.33-0.12,0.68-0.25,1.05-0.39c0.37-0.14,0.71-0.28,1.02-0.41c0.31-0.13,0.5-0.23,0.57-0.29
				l0.04,0.01l-0.02-0.07L8.8,24.1l0.19-0.06l-0.01-0.03l-0.12,0.02l0.26-0.25l0.04-0.16L9.2,23.6l-0.02,0.06l0.11-0.05l-0.1-0.06
				c0.13-0.04,0.19-0.08,0.17-0.13l-0.07,0.06l-0.04,0.01c0.01-0.05,0.03-0.12,0.07-0.2c0.03-0.08,0.11-0.15,0.23-0.21l-0.03-0.1
				c0.21-0.06,0.3-0.15,0.26-0.25c-0.03-0.1,0-0.17,0.11-0.2l-0.02-0.07l0.04-0.01c0.01,0.03,0.02,0.03,0.04-0.01
				c0.01-0.04,0.03-0.08,0.05-0.11c0.05-0.13,0.14-0.33,0.28-0.62c0.14-0.28,0.28-0.57,0.42-0.86c0.14-0.29,0.28-0.55,0.44-0.78
				c0.16-0.23,0.27-0.36,0.35-0.38c0.1-0.04,0.19-0.07,0.27-0.08c0.29-0.08,0.6-0.11,0.93-0.09c0.33,0.02,0.51,0.11,0.53,0.28
				c0.01,0.05-0.05,0.19-0.2,0.44c-0.15,0.25-0.32,0.52-0.52,0.81c-0.19,0.29-0.38,0.57-0.56,0.82c-0.18,0.26-0.29,0.43-0.35,0.51
				c-0.04,0.06-0.06,0.12-0.07,0.18c-0.01,0.06-0.05,0.13-0.11,0.19c-0.05,0.04-0.09,0.07-0.14,0.08c-0.05,0.02-0.1,0.04-0.14,0.08
				l0.16-0.05c-0.05,0.03-0.09,0.08-0.12,0.15c-0.03,0.07-0.07,0.16-0.12,0.24c-0.04,0.09-0.07,0.17-0.09,0.25
				c-0.02,0.08-0.04,0.13-0.05,0.18c0.08-0.02,0.22-0.08,0.44-0.15c0.22-0.08,0.45-0.17,0.69-0.26c0.24-0.09,0.46-0.18,0.64-0.26
				c0.19-0.08,0.3-0.14,0.35-0.18l-0.07,0.04l-0.06-0.06l0.16-0.03l0.08-0.16c-0.05,0.02-0.08,0.02-0.08,0.01l-0.01-0.03l0.13,0
				l0.19-0.21l0.06-0.36l0.16-0.03l-0.14-0.03l-0.01-0.02l0.15-0.2l0.04-0.01l-0.02,0.06l0.04-0.01l0.34-0.54l-0.11,0.05l0.19-0.21
				l-0.08,0.02l0.17-0.26c0.07-0.05,0.1-0.09,0.09-0.12l0.11-0.07l0.05,0.02l-0.07-0.09c0.04-0.06,0.07-0.13,0.08-0.21
				c0.02-0.08,0.09-0.15,0.21-0.22l-0.05-0.02l-0.01-0.02c0.11-0.11,0.21-0.27,0.32-0.49c0.1-0.22,0.22-0.43,0.35-0.66
				c0.13-0.22,0.27-0.43,0.43-0.61c0.16-0.19,0.33-0.3,0.51-0.35c0.29-0.06,0.58-0.08,0.88-0.05c0.29,0.03,0.45,0.13,0.48,0.3
				c-0.01,0.05-0.02,0.11-0.04,0.15c-0.01,0.05-0.07,0.1-0.17,0.16l0.02,0.07c0,0.01-0.1,0.18-0.31,0.51
				c-0.21,0.33-0.45,0.7-0.72,1.1c-0.27,0.41-0.53,0.79-0.78,1.15c-0.24,0.36-0.39,0.57-0.42,0.63c0.36-0.13,0.68-0.25,0.98-0.35
				c0.3-0.1,0.63-0.2,0.99-0.31c0.1-0.04,0.2-0.08,0.31-0.1c0.11-0.03,0.22-0.06,0.35-0.1l-0.43,0.26c0.18,0.04,0.21,0.19,0.09,0.44
				c-0.03-0.02-0.07-0.01-0.12,0.02c-0.05,0.03-0.07,0.05-0.06,0.08l-0.42,0.17l0.2-0.04L17,22.11c-0.43,0.17-0.88,0.35-1.35,0.53
				c-0.47,0.18-0.9,0.37-1.29,0.57l-0.27,0.22c0.02,0.07,0,0.15-0.05,0.25c-0.05,0.1-0.14,0.18-0.27,0.24
				c0.08,0.07,0.04,0.13-0.11,0.19l-0.04,0.15l-0.09-0.01l-0.01,0.1l-0.11,0.07l0.12-0.04l-0.02,0.08l2.02-0.76l-0.06,0.08
				c0.2-0.09,0.38-0.17,0.54-0.24c0.16-0.07,0.33-0.13,0.52-0.18l0.12-0.04l-1.01,0.44l0.08-0.01l-0.03,0.03l-0.04,0.01l0.05,0.04
				l-1.67,0.93l0.24-0.05l0.01,0.03l-0.55,0.28l0.42-0.17l0.01,0.03c0.02,0.06-0.07,0.11-0.25,0.16c-0.18,0.05-0.29,0.12-0.32,0.22
				l-1.06,0.57l-0.13,0l0.04,0.14l-0.04,0.01l0.03-0.05l-0.21,0.14c0.03-0.01,0.05-0.01,0.08-0.01c0.03,0,0.03,0.02,0.01,0.03
				c0.01,0.02-0.02,0.06-0.09,0.12l0.02,0.05l-0.19,0.08l0.01,0.02l0.04,0.01c0.03-0.01,0.04-0.01,0.04,0.01
				c0.01,0.02,0,0.04-0.02,0.06l-0.23,0.07c0.01,0.03,0.01,0.07-0.01,0.12c-0.02,0.04-0.06,0.08-0.14,0.1l0.05,0.04l-0.06,0.09
				l-0.09-0.01l-0.04,0.01l-0.36,0.36l-0.05-0.04l-0.1,0.11l0.16-0.03l-0.11,0.07l0.01,0.03c0.13-0.04,0.21-0.06,0.24-0.05
				l-0.1-0.05l0.15-0.07l-0.01,0.1l0.13,0c-0.07,0.05-0.13,0.11-0.17,0.2c-0.05,0.08-0.14,0.13-0.27,0.15
				c0.02,0.06-0.02,0.11-0.12,0.15l-0.06-0.06l-0.01-0.02L11,27.65l-0.16,0.05l-0.04,0.16l0.38,0L10.8,28l-0.04,0.15l-0.16,0.03
				l0.15,0.07l-0.1,0.09l-0.05-0.04l-0.45,0.21c0.03-0.09,0.11-0.15,0.24-0.19l0.08-0.01l-0.13,0l0.06-0.08l-0.46,0.18l0.14-0.1
				l-0.07-0.07l-0.01-0.02l0.3-0.13l-0.06-0.06l0.11-0.07l-0.17,0l0.32-0.19l-0.06,0.09l0.3-0.13l-0.01-0.17l-0.21,0.16l0.01-0.1
				l-0.04,0.01l-0.02,0.08l-0.04,0.01l0.02-0.06l-0.11,0.05l0.14-0.1l-0.19-0.06l0.13,0l0.2-0.44l0.16-0.03l0.03-0.05l-0.01-0.02
				c-0.06-0.01-0.05-0.03,0.02-0.06c0.07-0.04,0.12-0.06,0.15-0.07l-0.01-0.02l-0.12,0.04l0.14-0.23l0.05,0.04l0.01-0.23
				c-0.3,0.13-0.43,0.23-0.38,0.29c0.05,0.06,0,0.13-0.15,0.2c-0.09,0.16-0.19,0.32-0.3,0.49c-0.1,0.17-0.17,0.33-0.21,0.48
				c-0.11,0.1-0.18,0.19-0.21,0.28c-0.03,0.09-0.06,0.18-0.09,0.26L9.72,28.5l0.03-0.05l-0.13,0.12c0,0.01,0.03,0.02,0.09,0.03
				c0,0.09-0.06,0.16-0.19,0.23l0.02-0.06l-0.04,0.01L9.2,29.3l0.12-0.04l0.01,0.02l-0.11,0.05l0.02,0.2l-0.14,0.08l0.01,0.02
				l0.2-0.04l-0.24,0.19c0.07,0.04,0.06,0.1-0.04,0.16l0-0.13l-0.16,0.16l0.1,0.06L9.16,30l-0.05,0.13l-0.13,0l0.1,0.06l-0.16,0.05
				l0.1,0.06l-0.17,0.01l-0.11,0.07l-0.01-0.02l-0.04,0.01L8.7,30.42l0.08-0.02c-0.05,0.02-0.07,0.04-0.07,0.06l0.21-0.01
				l-0.19,0.06l-0.07,0.06l0.01,0.02l0.13,0l0.03-0.05l0.27-0.08L9.03,30.4l-0.07,0.04l-0.02-0.05l0.11-0.05l0.17,0l-0.07-0.09
				l0.13-0.12L9.19,30.1l0.12-0.04l-0.07-0.07L9.3,29.9l0.2-0.04L9.5,29.84L9.36,29.8l0.11-0.07l-0.05-0.04l0.29-0.32L9.6,29.35
				L9.6,29.33c0.1-0.03,0.19-0.06,0.27-0.09c0.08-0.03,0.13-0.08,0.17-0.14L9.99,29.1l-0.21,0.16l-0.03-0.1L9.6,29.2l0.02,0.05
				l-0.19,0.08l-0.01-0.02l0.15-0.07l-0.01-0.02l-0.09-0.01l0.16-0.05l-0.01-0.02L9.5,29.17L9.5,29.15l0.2-0.04l0.01,0.03l0.08-0.02
				l0.1-0.24l0.07,0.07l0.13,0l0.2-0.19l-0.18-0.02L10,28.83l-0.25,0.02c0.04,0.04,0,0.1-0.11,0.19l0.08-0.16
				c-0.06-0.01-0.09-0.02-0.09-0.03c-0.01-0.02,0.01-0.05,0.04-0.08c0.03-0.03,0.05-0.06,0.04-0.08l0.35-0.24l-0.14,0.37l0.19-0.21
				l0.14,0.05c0.11-0.11,0.2-0.18,0.28-0.2c0.05-0.02,0.09-0.02,0.12-0.02l-0.32,0.34l-0.12,0.04l0.07,0.07l-0.12,0.04l0.01,0.02
				l0.16-0.03c-0.06,0.08-0.13,0.16-0.2,0.23c-0.08,0.07-0.11,0.14-0.09,0.2l0.02,0.05c-0.13,0.04-0.2,0.09-0.21,0.15
				c-0.01,0.06-0.01,0.11,0.01,0.16l0.01,0.02l-0.04,0.01l-0.09-0.01c-0.11,0.11-0.19,0.21-0.24,0.31c-0.05,0.1-0.14,0.2-0.24,0.31
				l-0.01,0.23l-0.16,0.05c-0.12-0.03-0.2,0.01-0.22,0.11c-0.03,0.1-0.04,0.16-0.02,0.2c-0.1,0.05-0.16,0.12-0.2,0.19
				c-0.03,0.07-0.06,0.15-0.08,0.21c-0.02,0.07-0.06,0.14-0.11,0.2c-0.05,0.07-0.14,0.12-0.27,0.18l-0.02,0.08l0.09,0.01l-0.3,0.28
				l0.08-0.02L7.97,32.2c-0.06,0-0.08,0.02-0.07,0.04c0.01,0.02-0.02,0.04-0.07,0.06c-0.11,0.02-0.17-0.01-0.2-0.09
				c-0.01-0.05-0.01-0.09,0-0.13c0.01-0.04,0.03-0.09,0.05-0.13l0.12-0.02c0.17-0.36,0.33-0.71,0.46-1.06
				c0.13-0.35,0.3-0.71,0.5-1.07c0.09-0.17,0.2-0.34,0.33-0.52c0.13-0.18,0.2-0.35,0.2-0.52l-0.02-0.05l0.16-0.05l-0.05-0.04
				l-0.01-0.02c0.11-0.1,0.21-0.22,0.31-0.38c0.09-0.16,0.18-0.31,0.26-0.48c0.08-0.16,0.16-0.33,0.25-0.49
				c0.09-0.17,0.19-0.31,0.29-0.43l-0.16,0.05l0.02-0.06L9.8,27.07l-0.04,0.01c-0.52,0.24-1.04,0.49-1.55,0.76L8,28.29
				c-0.13,0.04-0.2,0.1-0.2,0.19l-0.16,0.05c0.07,0.03,0.04,0.09-0.07,0.19l-0.02,0.21l-0.12,0.02l-0.07,0.32
				c-0.04,0.05-0.05,0.08-0.03,0.1c0.02,0.01-0.02,0.05-0.12,0.1c0.07,0.04,0.05,0.13-0.05,0.25c-0.1,0.13-0.2,0.22-0.29,0.29
				l-0.09-0.14c0,0.01,0,0.03-0.02,0.06C6.74,29.97,6.73,29.99,6.74,30l-0.05,0.11L6.54,30.2l0.04,0.12L6.4,30.41l0.03,0.09
				c-0.04,0.05-0.06,0.1-0.04,0.14c0.01,0.04-0.05,0.08-0.18,0.12c-0.13,0.03-0.22-0.02-0.25-0.13c-0.04-0.12-0.06-0.2-0.07-0.24
				c-0.01-0.03-0.01-0.1,0-0.21c0.01-0.1,0.03-0.21,0.05-0.33c0.02-0.11,0.05-0.22,0.09-0.32c0.04-0.1,0.08-0.16,0.13-0.19
				l-0.09,0.26c0.04,0.12,0.03,0.23-0.02,0.35c-0.05,0.12-0.07,0.23-0.07,0.34c0.03,0.09,0.06,0.15,0.09,0.16l0.31-1.2l-0.17,0
				l0.17-0.01l0.11-0.07c-0.02-0.07-0.01-0.15,0.04-0.23c0.04-0.08,0.07-0.16,0.07-0.24c-0.02-0.06-0.04-0.09-0.07-0.09l0.02-0.06
				c-0.47,0.12-0.77,0.15-0.89,0.08C5.53,28.55,5.37,28.46,5.16,28.35z M6.28,28.8l0.08-0.01L6.2,28.96L6.28,28.8z M6.28,29.35
				L6.2,29.37l0.03-0.05L6.28,29.35z M6.65,29.31l0.12,0.1l-0.02,0.08l0.08-0.02c0.11-0.02,0.15-0.07,0.13-0.13l0.11-0.07L6.95,29.3
				l0.29-0.45l-0.08,0.02c-0.11,0.01-0.27,0.1-0.47,0.28l0.02-0.06c-0.02,0.02-0.03,0.04-0.03,0.05l0.01,0.02l0.16-0.03l0.03,0.09
				l-0.12,0.02l0.1,0.06L6.65,29.31z M6.79,29.76l0.04-0.01l0.04-0.16l0.16-0.05L6.8,29.53l0.02,0.05l-0.11,0.05L6.79,29.76z
				 M6.75,28.81l0.04-0.01l0.22-0.12L7,28.65l-0.11,0.05l-0.03-0.09l-0.11,0.05L6.75,28.81z M7.34,28.79l-0.03-0.09l-0.15,0.07
				l0.07-0.17l-0.08,0.02L7.09,28.8c-0.14,0.02-0.24,0.05-0.31,0.1L7.34,28.79z M6.89,28.55l0.05,0.02l0.02,0.05l0.21-0.16
				l0.11,0.08l0.09-0.26l-0.11,0.05l0.02-0.08l-0.04-0.01C7.17,28.28,7.1,28.31,7,28.37c-0.1,0.06-0.15,0.11-0.16,0.16
				C6.84,28.54,6.86,28.55,6.89,28.55z M6.93,28.56l-0.04-0.01l-0.01-0.02L6.93,28.56z M7.04,29.34l0.1-0.09l-0.04,0.01L7.04,29.34z
				 M7.22,26.88l0.06,0.06c0.01,0.02-0.02,0.06-0.1,0.11L7.22,26.88z M7.56,26.59l0.04-0.01l0.02-0.06L7.56,26.59z M7.65,26.88
				l0.2-0.04l0.02-0.08L7.65,26.88z M7.78,26.61l0.16-0.03L7.93,26.7c0.2-0.09,0.31-0.2,0.34-0.35c0.03-0.15,0.09-0.27,0.21-0.37
				c-0.01-0.02,0-0.06,0.01-0.11c0.01-0.05,0.05-0.08,0.1-0.1l-0.1-0.05c0.14-0.09,0.21-0.18,0.22-0.26l-0.04,0.01L8.6,25.55
				l-0.09-0.01l-0.28,0.33l0.04,0.01l0.07-0.06l0.01,0.02c-0.02,0.04-0.04,0.07-0.08,0.09c-0.04,0.02-0.08,0.04-0.13,0.07l0.02,0.05
				c-0.07,0.04-0.15,0.13-0.23,0.28C7.84,26.47,7.8,26.57,7.78,26.61z M7.96,25.82l0.09,0.01l-0.01-0.03L7.96,25.82z M8.34,30.1
				L8.35,30l0.08-0.01l-0.06,0.09L8.34,30.1z M8.48,29.85L8.46,29.8l0.05,0.04L8.48,29.85z M8.92,30.17L8.8,30.2l0.02,0.07
				L8.92,30.17z M8.83,30.02L8.91,30l-0.05-0.02L8.83,30.02z M9.03,29l-0.01-0.03l0.09,0.03L9.03,29z M9.05,26.32
				c0.08-0.02,0.23-0.08,0.46-0.17c0.23-0.09,0.46-0.18,0.7-0.28c0.24-0.1,0.45-0.19,0.64-0.28c0.19-0.09,0.29-0.15,0.3-0.2
				l0.14,0.03c0.05-0.03,0.12-0.09,0.2-0.18c0.09-0.09,0.17-0.18,0.25-0.29c0.08-0.1,0.15-0.19,0.19-0.28
				c0.04-0.08,0.06-0.14,0.06-0.16c0.09-0.07,0.15-0.14,0.19-0.23c0.03-0.09,0.05-0.16,0.06-0.23l-0.19,0.06l0.07,0.07l-0.12,0.02
				l-0.07,0.06l0.01-0.1c-0.1,0.04-0.26,0.11-0.48,0.18c-0.22,0.08-0.44,0.16-0.67,0.25c-0.23,0.09-0.44,0.18-0.62,0.26
				c-0.19,0.08-0.31,0.15-0.38,0.21l0.01,0.02l0.1,0.05c-0.02,0.03-0.05,0.06-0.1,0.1c-0.05,0.03-0.09,0.07-0.14,0.11
				c0.06,0.01,0.07,0.03,0.02,0.06c-0.05,0.03-0.09,0.07-0.14,0.11l0.03,0.24l-0.12,0.02l0.1,0.05l-0.12,0.04l-0.14,0.1l-0.07,0.17
				l0.03,0.09l-0.12,0.02L9.05,26.32z M9.21,28.64l0.05,0.02l-0.08,0.02L9.21,28.64z M9.18,25.92l0.23-0.09l-0.01-0.02L9.18,25.92z
				 M9.22,24.24c0.17-0.09,0.25-0.19,0.25-0.3L9.46,23.9l0.34-0.29l-0.02-0.05l0.06-0.08c0.08-0.02,0.12-0.06,0.14-0.11
				c0.01-0.05,0.03-0.09,0.04-0.14l-0.16,0.05l0.03-0.05l0.2-0.04L10.03,23l-0.1,0.11l0.01,0.02l0.05,0.02l-0.08,0.01
				c-0.14,0.18-0.28,0.36-0.41,0.54C9.37,23.88,9.28,24.06,9.22,24.24z M9.42,23.36l0.04-0.01L9.44,23.3L9.42,23.36z M9.49,28.17
				l0.08-0.02l0.01,0.03L9.51,28.2L9.49,28.17z M9.53,28.71l0.02,0.05l0.04-0.01l0.02-0.06L9.53,28.71z M9.77,23.8l-0.01-0.03
				l-0.07,0.06L9.77,23.8z M9.98,28.21l0.01,0.03l-0.08,0.02L9.9,28.24L9.98,28.21z M10.15,22.97l-0.02-0.07l-0.08,0.02L10.15,22.97
				z M10.09,23.06l0.08-0.02L10.16,23L10.09,23.06z M10.13,27.18l0.01,0.03l-0.04,0.01L10.13,27.18z M10.35,28.19l0.22-0.11
				L10.47,28l-0.29,0.16L10.35,28.19z M10.2,26.04l0.01,0.03L10.4,26l-0.02-0.05L10.2,26.04z M10.38,27.88l0.04-0.01l-0.01-0.02
				L10.38,27.88z M10.47,26.77l-0.04-0.01l-0.04,0.01c0.03-0.01,0.04-0.01,0.04,0C10.43,26.78,10.44,26.78,10.47,26.77z
				 M10.54,27.96l-0.01-0.02L10.42,28L10.54,27.96z M10.44,25.98l0.2-0.04l-0.01-0.03L10.44,25.98z M10.47,26.79
				c0.02-0.02,0.04-0.03,0.05-0.04c0.01,0,0.03-0.02,0.05-0.04l-0.04-0.01L10.47,26.79z M10.67,25.9l0.01,0.03l0.09-0.12
				c-0.02,0.02-0.04,0.03-0.05,0.04C10.7,25.85,10.69,25.86,10.67,25.9z M10.76,27.57l0.01,0.03l0.07-0.06L10.76,27.57z
				 M10.91,27.24l0.01,0.03c0,0.01,0.02,0.01,0.04,0.01c0.05-0.02,0.1-0.04,0.14-0.08L10.91,27.24z M11.05,25.76l0.13-0.13
				l-0.19,0.08L11.05,25.76z M11.09,27.7l0.03-0.05l-0.08,0.02L11.09,27.7z M11.37,26.78l0.06-0.09l0.34-0.01l0.04-0.01l-0.06-0.06
				l-0.32,0.08L11.4,26.6c-0.1,0.03-0.15,0.07-0.13,0.12l0.01,0.02l-0.1,0.11L11.37,26.78z M11.6,26.97l0.12-0.02l0.01,0.03
				l-0.18,0.09l-0.04-0.01L11.6,26.97z M11.91,25.08l0.12-0.02c0.17-0.19,0.35-0.4,0.53-0.63c0.19-0.23,0.28-0.43,0.28-0.61
				l-0.18,0.11l-0.04,0.01l0.03-0.05l-0.11,0.05l-0.43,0.68l0.12-0.02l0.01,0.02c-0.17,0.08-0.29,0.17-0.34,0.27
				c-0.05,0.1-0.1,0.2-0.12,0.29L11.91,25.08z M11.88,26.38l0.08-0.02l0.02-0.06l-0.04-0.01l-0.11,0.05L11.88,26.38z M12.42,23.29
				l0.24-0.05l-0.05-0.04L12.42,23.29z M12.58,24.78l-0.08,0.01l-0.02,0.08L12.58,24.78z M12.63,24.8l0.15-0.07l-0.01-0.02
				L12.63,24.8z M12.83,24.36l0.2-0.04l-0.05,0.11l0.4-0.35L13.32,24l-0.27,0.1c0.06,0.01,0.09,0.02,0.1,0.05l-0.05,0.13l-0.12,0.04
				l0.03-0.05L12.83,24.36z M13.08,24.47l-0.01-0.02l-0.13,0l-0.01,0.1L13.08,24.47z M13.02,24.96l-0.05-0.02l-0.03,0.05
				L13.02,24.96z M13.28,24.41l-0.01-0.02l-0.15,0.07L13.28,24.41z M13.13,23.94L13.15,24l0.21-0.03l0.06-0.09L13.13,23.94z
				 M13.24,23.87l-0.01-0.03l-0.04,0.01l-0.03,0.05L13.24,23.87z M13.25,24.32l0.13-0.12l-0.08,0.02L13.25,24.32z M13.29,24.86
				l0.84-0.32l-0.51,0.14l-0.01-0.02l0.07-0.06l-0.12,0.02l0.02,0.05C13.42,24.73,13.32,24.79,13.29,24.86z M13.31,22.98l0.21-0.16
				l-0.04,0.01l-0.18,0.09L13.31,22.98z M13.36,22.74l0.41-0.18c-0.03-0.1,0.04-0.22,0.23-0.36l-0.08-0.11
				c0.22-0.13,0.31-0.27,0.3-0.41l-0.01-0.02l0.1-0.09l-0.08,0.02c-0.09,0.08-0.17,0.15-0.23,0.23c-0.06,0.08-0.1,0.15-0.11,0.21
				c-0.13,0.05-0.24,0.16-0.34,0.33C13.46,22.54,13.39,22.66,13.36,22.74z M14.24,22.56l-0.04,0.01l-0.06,0.08L14.24,22.56z
				 M14.4,22.25l0.22-0.11l0.03-0.05l-0.08,0.02C14.47,22.15,14.41,22.19,14.4,22.25z M14.4,22.26l0.02,0.05l0.06-0.08L14.4,22.26z
				 M14.85,24l-0.01-0.02l-0.11,0.05L14.85,24z M14.9,22.22c0.02,0.08,0.13,0.09,0.31,0.04c0.31-0.08,0.66-0.21,1.05-0.39
				c0.39-0.18,0.73-0.32,1.03-0.44c-0.1-0.03-0.26-0.03-0.5,0.02c-0.18,0.07-0.34,0.13-0.49,0.19c-0.15,0.06-0.25,0.12-0.28,0.18
				l-0.21,0.03c-0.05,0.02-0.13,0.05-0.23,0.09c-0.1,0.04-0.17,0.08-0.22,0.11l0.05,0.02l-0.15,0.07l-0.01-0.03
				C15.17,22.11,15.05,22.15,14.9,22.22z M15.24,24c0.05-0.02,0.07-0.04,0.07-0.06l-0.19,0.08c0.03-0.01,0.05-0.01,0.06-0.01
				C15.19,24.01,15.21,24.01,15.24,24z M15.2,22.78l0.16-0.05l-0.01-0.02L15.2,22.78z M15.27,23.84l0.16-0.05l-0.01-0.02l-0.16,0.05
				L15.27,23.84z M15.34,23.91c0.1,0.03,0.16,0.01,0.19-0.08L15.34,23.91z M15.58,22.62l-0.11,0.05l0.01,0.02L15.58,22.62z
				 M16.49,22.13l0.06-0.09l-0.18,0.09L16.49,22.13z M16.68,21.92l-0.01-0.03l-0.08,0.02l0.01,0.03L16.68,21.92z M16.76,22.17
				l-0.01-0.02l-0.14,0.1L16.76,22.17z M20.65,19.89l-0.12,0.02l0.12-0.04L20.65,19.89z"/>
		</g>
	</g>
</g>
</svg>
