<svg id="Layer_1" data-name="Layer 1" xmlns="http://www.w3.org/2000/svg" viewBox="0 0 80.1 77.4"><defs><style>.cls-1{fill:#e01e26;}.cls-2{fill:#fff;}.cls-3{fill:#131313;}</style></defs><title>mark-properties-logo</title><polygon class="cls-1" points="57.6 0 0 0 0 62.1 79.92 62.1 79.92 22.14 57.6 0"/><polygon class="cls-2" points="30.96 6.12 22.5 15.3 27.18 20.16 30.96 16.2 48.78 36 57.96 36 30.96 6.12"/><path class="cls-2" d="M26.37,42h0l-1.8.18a.18.18,0,0,1-.18-.18V40.34a.18.18,0,0,1,.18-.18h1.62a.18.18,0,0,1,.18.18Z" transform="translate(-4.95 -8.66)"/><path class="cls-2" d="M28.71,42h0l-1.8.18a.18.18,0,0,1-.18-.18V40.34a.18.18,0,0,1,.18-.18h1.62a.18.18,0,0,1,.18.18Z" transform="translate(-4.95 -8.66)"/><path class="cls-2" d="M26.37,44.48h0l-1.8.18a.18.18,0,0,1-.18-.18V42.86a.18.18,0,0,1,.18-.18h1.62a.18.18,0,0,1,.18.18Z" transform="translate(-4.95 -8.66)"/><path class="cls-2" d="M28.71,44.48h0l-1.8.18a.18.18,0,0,1-.18-.18V42.86a.18.18,0,0,1,.18-.18h1.62a.18.18,0,0,1,.18.18Z" transform="translate(-4.95 -8.66)"/><path class="cls-2" d="M42.39,46.64a9,9,0,0,0-6.3,2.52,8.69,8.69,0,0,0-2.52,6.3,9.43,9.43,0,0,0,2.52,6.48,8,8,0,0,0,6.3,2.52,7.23,7.23,0,0,0,5-1.8V64.1h4.68V47.18L49,49C47.61,47.36,45.45,46.64,42.39,46.64Zm3.78,12.42a4.61,4.61,0,0,1-3.42,1.44,4.09,4.09,0,0,1-3.24-1.62,5.27,5.27,0,0,1,0-6.84,4.51,4.51,0,0,1,3.24-1.44A4,4,0,0,1,46,52a4.48,4.48,0,0,1,1.26,3.42A4.18,4.18,0,0,1,46.17,59.06Z" transform="translate(-4.95 -8.66)"/><path class="cls-2" d="M53.37,47V63.92H58V55.46c.18-2.52,1.44-4.14,4.86-4.68v-5a15.61,15.61,0,0,0-7.38,3.42Z" transform="translate(-4.95 -8.66)"/><polygon class="cls-2" points="67.68 45.36 75.6 37.8 69.3 37.8 64.08 43.02 64.08 29.7 59.4 29.7 59.58 55.26 64.08 55.26 64.08 48.6 64.44 48.42 70.02 55.08 76.14 55.08 67.68 45.36"/><polygon class="cls-2" points="21.6 26.82 29.88 36 39.42 36 21.6 16.38 15.12 23.4 15.12 19.98 10.26 19.98 9.18 22.86 10.26 21.42 10.26 31.68 9.18 31.68 9.18 30.06 3.78 36 13.32 36 21.6 26.82"/><path class="cls-2" d="M26.55,47a6.16,6.16,0,0,0-4.86,2.16,6.69,6.69,0,0,0-5.76-2,4.79,4.79,0,0,0-4.5,2.34L8.91,47.36V63.92h4.5V55.28q0-4.32,2.7-4.32a2.17,2.17,0,0,1,2.16,1.44,9.25,9.25,0,0,1,.36,2.88v8.64h4.5V55.1c0-2.7.9-4.14,2.7-4.14A2.36,2.36,0,0,1,28,52a5,5,0,0,1,.36,2.52v9.36h4.5V54C32.67,49.34,30.69,47,26.55,47Z" transform="translate(-4.95 -8.66)"/><path class="cls-3" d="M11.07,77.42a3,3,0,0,1,.9,2.16,3.11,3.11,0,0,1-.9,2.34,2.92,2.92,0,0,1-2.52.9H6.39V85.7H5.13v-9H8.55A3.52,3.52,0,0,1,11.07,77.42Zm-.72,3.78a2.19,2.19,0,0,0,0-2.88,2.69,2.69,0,0,0-1.8-.54H6.39v4H8.55A3,3,0,0,0,10.35,81.2Z" transform="translate(-4.95 -8.66)"/><path class="cls-3" d="M19.53,85.7l-1.8-2.88H15V85.7H13.77v-9h3.6a6,6,0,0,1,2.7.72,2.57,2.57,0,0,1,.9,2.34,3,3,0,0,1-.54,1.8A2.8,2.8,0,0,1,19,82.64l2.16,3.06Zm-2.34-4A2.69,2.69,0,0,0,19,81.2a2.19,2.19,0,0,0,0-2.88,2.69,2.69,0,0,0-1.8-.54H15v4Z" transform="translate(-4.95 -8.66)"/><path class="cls-3" d="M29.25,77.24a5.11,5.11,0,0,1,1.8,1.62,3.5,3.5,0,0,1,.54,2.34,5,5,0,0,1-.54,2.34,3.22,3.22,0,0,1-1.8,1.62,5.54,5.54,0,0,1-2.34.54,5,5,0,0,1-2.34-.54,5.11,5.11,0,0,1-1.8-1.62,3.5,3.5,0,0,1-.54-2.34,5,5,0,0,1,.54-2.34,3.22,3.22,0,0,1,1.8-1.62,5,5,0,0,1,2.34-.54A3.5,3.5,0,0,1,29.25,77.24Zm-4,.9A4.21,4.21,0,0,0,24,79.4a3,3,0,0,0-.54,1.8A3.47,3.47,0,0,0,24,83a4.21,4.21,0,0,0,1.26,1.26,3,3,0,0,0,1.8.54,3.47,3.47,0,0,0,1.8-.54A4.21,4.21,0,0,0,30.15,83a3,3,0,0,0,.54-1.8,3.47,3.47,0,0,0-.54-1.8,4.21,4.21,0,0,0-1.26-1.26,3,3,0,0,0-1.8-.54A5.28,5.28,0,0,0,25.29,78.14Z" transform="translate(-4.95 -8.66)"/><path class="cls-3" d="M39.51,77.42a3,3,0,0,1,.9,2.16,3.11,3.11,0,0,1-.9,2.34,2.92,2.92,0,0,1-2.52.9H34.83V85.7H33.39v-9H37A3.52,3.52,0,0,1,39.51,77.42Zm-.9,3.78a2.19,2.19,0,0,0,0-2.88,2.69,2.69,0,0,0-1.8-.54H34.65v4h2.16A2.69,2.69,0,0,0,38.61,81.2Z" transform="translate(-4.95 -8.66)"/><path class="cls-3" d="M42,76.7h6.3v1.08h-5v2.7h4.5v1.08h-4.5v2.88h5.22v1.08H42V76.7Z" transform="translate(-4.95 -8.66)"/><path class="cls-3" d="M56.25,85.7l-1.8-2.88H51.57V85.7H50.31v-9h3.6a6,6,0,0,1,2.7.72c.72.36.9,1.26.9,2.34a3,3,0,0,1-.54,1.8,2.8,2.8,0,0,1-1.44,1.08l2.16,3.06Zm-2.34-4a2.69,2.69,0,0,0,1.8-.54,2.19,2.19,0,0,0,0-2.88,2.69,2.69,0,0,0-1.8-.54H51.57v4Z" transform="translate(-4.95 -8.66)"/><path class="cls-3" d="M58.59,76.7h7v1.08H62.73V85.7H61.47V77.78H58.59Z" transform="translate(-4.95 -8.66)"/><path class="cls-3" d="M67,76.7h1.26v9H67Z" transform="translate(-4.95 -8.66)"/><path class="cls-3" d="M70.83,76.7h6.3v1.08h-5v2.7h4.5v1.08h-4.5v2.88h5.22v1.08H70.83Z" transform="translate(-4.95 -8.66)"/><path class="cls-3" d="M83.25,78A3.51,3.51,0,0,0,82,77.78a2.6,2.6,0,0,0-1.26.36,1,1,0,0,0-.54.9.94.94,0,0,0,.36.72,2.48,2.48,0,0,0,.72.54c.36.18.72.18,1.08.36a12.4,12.4,0,0,1,1.44.54,1.8,1.8,0,0,1,.9.72c.36.36.36.72.36,1.44a4.24,4.24,0,0,1-.36,1.44c-.18.54-.72.72-1.26.9a5.33,5.33,0,0,1-1.8.36,7.65,7.65,0,0,1-2-.36A2.62,2.62,0,0,1,78,84.62l.54-1.08a3.92,3.92,0,0,0,1.44.9,5.26,5.26,0,0,0,1.62.36,3.39,3.39,0,0,0,1.44-.36,1,1,0,0,0,.54-.9.94.94,0,0,0-.36-.72,2.48,2.48,0,0,0-.72-.54,11.47,11.47,0,0,0-1.26-.36,12.4,12.4,0,0,1-1.44-.54,1.8,1.8,0,0,1-.9-.72,1.52,1.52,0,0,1-.36-1.26,2.6,2.6,0,0,1,.36-1.26,1.84,1.84,0,0,1,1.08-.9,5.26,5.26,0,0,1,1.62-.36,5,5,0,0,1,1.62.18c.54.18.9.36,1.44.54l-.54,1.08C84.15,78.32,83.61,78.14,83.25,78Z" transform="translate(-4.95 -8.66)"/></svg>