<?xml version="1.0" encoding="utf-8"?>
<!-- Generator: Adobe Illustrator 21.0.2, SVG Export Plug-In . SVG Version: 6.00 Build 0)  -->
<svg version="1.1" id="Layer_1" xmlns="http://www.w3.org/2000/svg" xmlns:xlink="http://www.w3.org/1999/xlink" x="0px" y="0px"
	 viewBox="0 0 50.5 48.3" style="enable-background:new 0 0 50.5 48.3;" xml:space="preserve">
<style type="text/css">
	.st0{fill:#E01E26;}
	.st1{fill:#FFFFFF;}
	.st2{fill:#131313;}
</style>
<g>
	<polygon class="st0" points="35.2,2.8 3.2,2.8 3.2,37.3 47.6,37.3 47.6,15.1 	"/>
	<g>
		<polygon class="st1" points="20.4,6.2 15.7,11.3 18.3,14 20.4,11.8 30.3,22.8 35.4,22.8 		"/>
		<path class="st1" d="M15.1,21.3C15.1,21.4,15.1,21.4,15.1,21.3l-1,0.1c0,0-0.1,0-0.1-0.1v-0.9c0,0,0-0.1,0.1-0.1H15
			c0,0,0.1,0,0.1,0.1V21.3z"/>
		<path class="st1" d="M16.4,21.3C16.4,21.4,16.4,21.4,16.4,21.3l-1,0.1c0,0-0.1,0-0.1-0.1v-0.9c0,0,0-0.1,0.1-0.1h0.9
			c0,0,0.1,0,0.1,0.1V21.3z"/>
		<path class="st1" d="M15.1,22.7C15.1,22.7,15.1,22.8,15.1,22.7l-1,0.1c0,0-0.1,0-0.1-0.1v-0.9c0,0,0-0.1,0.1-0.1H15
			c0,0,0.1,0,0.1,0.1V22.7z"/>
		<path class="st1" d="M16.4,22.7C16.4,22.7,16.4,22.8,16.4,22.7l-1,0.1c0,0-0.1,0-0.1-0.1v-0.9c0,0,0-0.1,0.1-0.1h0.9
			c0,0,0.1,0,0.1,0.1V22.7z"/>
		<g>
			<path class="st1" d="M24,23.9c-1.4,0-2.5,0.5-3.5,1.4c-0.9,0.9-1.4,2.1-1.4,3.5c0,1.4,0.5,2.6,1.4,3.6s2.1,1.4,3.5,1.4
				c1.1,0,2-0.3,2.8-1v0.8h2.6v-9.4l-1.7,1C26.9,24.3,25.7,23.9,24,23.9z M26.1,30.8c-0.5,0.5-1.1,0.8-1.9,0.8
				c-0.7,0-1.3-0.3-1.8-0.9c-0.5-0.5-0.7-1.2-0.7-1.9c0-0.7,0.2-1.4,0.7-1.9s1.1-0.8,1.8-0.8c0.8,0,1.4,0.3,1.8,0.8
				c0.5,0.5,0.7,1.1,0.7,1.9C26.8,29.6,26.6,30.3,26.1,30.8z"/>
			<path class="st1" d="M30.1,24.1v9.4h2.6v-4.7c0.1-1.4,0.8-2.3,2.7-2.6v-2.8c-1.7,0.3-3,1-4.1,1.9L30.1,24.1z"/>
			<polygon class="st1" points="40.8,28 45.2,23.8 41.7,23.8 38.8,26.7 38.8,19.3 36.2,19.3 36.3,33.5 38.8,33.5 38.8,29.8 39,29.7 
				42.1,33.4 45.5,33.4 			"/>
			<polygon class="st1" points="15.2,17.7 19.8,22.8 25.1,22.8 15.2,11.9 11.6,15.8 11.6,13.9 8.9,13.9 8.3,15.5 8.9,14.7 8.9,20.4 
				8.3,20.4 8.3,19.5 5.3,22.8 10.6,22.8 			"/>
			<path class="st1" d="M15.2,24.1c-1.1,0-2,0.4-2.7,1.2c-0.7-0.8-1.8-1.2-3.2-1.1c-1.1,0-2,0.4-2.5,1.3l-1.4-1.2v9.2h2.5v-4.8
				c0-1.6,0.5-2.4,1.5-2.4c0.6,0,1,0.3,1.2,0.8c0.1,0.3,0.2,0.8,0.2,1.6v4.8h2.5v-4.9c0-1.5,0.5-2.3,1.5-2.3c0.6,0,0.9,0.2,1.2,0.6
				c0.2,0.3,0.2,0.8,0.2,1.4v5.2h2.5V28C18.6,25.4,17.5,24.1,15.2,24.1z"/>
		</g>
	</g>
	<g>
		<path class="st2" d="M6.6,41c0.3,0.3,0.5,0.7,0.5,1.2c0,0.6-0.2,1-0.5,1.3C6.3,43.9,5.8,44,5.2,44H4v1.6H3.3v-5h1.9
			C5.8,40.6,6.3,40.7,6.6,41z M6.2,43.1c0.2-0.2,0.3-0.5,0.3-0.8s-0.1-0.6-0.3-0.8s-0.6-0.3-1-0.3l-1.2,0v2.2h1.2
			C5.6,43.4,5.9,43.3,6.2,43.1z"/>
		<path class="st2" d="M11.3,45.6l-1-1.6c-0.1,0-0.2,0-0.3,0H8.8v1.6H8.1v-5h2c0.6,0,1.1,0.2,1.5,0.4c0.4,0.3,0.5,0.7,0.5,1.3
			c0,0.4-0.1,0.7-0.3,1s-0.5,0.5-0.8,0.6l1.2,1.7H11.3z M10,43.4c0.4,0,0.8-0.1,1-0.3s0.3-0.5,0.3-0.8s-0.1-0.6-0.3-0.8
			s-0.6-0.3-1-0.3H8.8v2.2L10,43.4L10,43.4z"/>
		<path class="st2" d="M16.7,40.9c0.4,0.2,0.7,0.5,1,0.9s0.3,0.8,0.3,1.3c0,0.5-0.1,0.9-0.3,1.3s-0.5,0.7-1,0.9s-0.8,0.3-1.3,0.3
			s-0.9-0.1-1.3-0.3c-0.4-0.2-0.7-0.5-1-0.9s-0.3-0.8-0.3-1.3s0.1-0.9,0.3-1.3s0.5-0.7,1-0.9c0.4-0.2,0.8-0.3,1.3-0.3
			C15.9,40.5,16.3,40.7,16.7,40.9z M14.5,41.4c-0.3,0.2-0.5,0.4-0.7,0.7c-0.2,0.3-0.3,0.6-0.3,1c0,0.3,0.1,0.7,0.3,1
			c0.2,0.3,0.4,0.5,0.7,0.7s0.6,0.3,1,0.3c0.3,0,0.7-0.1,1-0.3c0.3-0.2,0.5-0.4,0.7-0.7c0.2-0.3,0.3-0.6,0.3-1c0-0.3-0.1-0.7-0.3-1
			c-0.2-0.3-0.4-0.5-0.7-0.7c-0.3-0.2-0.6-0.3-1-0.3C15.1,41.2,14.8,41.2,14.5,41.4z"/>
		<path class="st2" d="M22.4,41c0.3,0.3,0.5,0.7,0.5,1.2c0,0.6-0.2,1-0.5,1.3C22.1,43.9,21.6,44,21,44h-1.2v1.6H19v-5H21
			C21.6,40.6,22.1,40.7,22.4,41z M21.9,43.1c0.2-0.2,0.3-0.5,0.3-0.8s-0.1-0.6-0.3-0.8s-0.6-0.3-1-0.3l-1.2,0v2.2h1.2
			C21.3,43.4,21.7,43.3,21.9,43.1z"/>
		<path class="st2" d="M23.8,40.6h3.5v0.6h-2.8v1.5H27v0.6h-2.5v1.6h2.9v0.6h-3.6L23.8,40.6L23.8,40.6z"/>
		<path class="st2" d="M31.7,45.6l-1-1.6c-0.1,0-0.2,0-0.3,0h-1.3v1.6h-0.7v-5h2c0.6,0,1.1,0.2,1.5,0.4s0.5,0.7,0.5,1.3
			c0,0.4-0.1,0.7-0.3,1s-0.5,0.5-0.8,0.6l1.2,1.7H31.7z M30.4,43.4c0.4,0,0.8-0.1,1-0.3c0.2-0.2,0.3-0.5,0.3-0.8s-0.1-0.6-0.3-0.8
			s-0.6-0.3-1-0.3h-1.3v2.2L30.4,43.4L30.4,43.4z"/>
		<path class="st2" d="M33,40.6h3.9v0.6h-1.6v4.4h-0.7v-4.4H33V40.6z"/>
		<path class="st2" d="M37.7,40.6h0.7v5h-0.7V40.6z"/>
		<path class="st2" d="M39.8,40.6h3.5v0.6h-2.8v1.5H43v0.6h-2.5v1.6h2.9v0.6h-3.6V40.6z"/>
		<path class="st2" d="M46.7,41.3c-0.3-0.1-0.5-0.1-0.7-0.1c-0.3,0-0.5,0.1-0.7,0.2c-0.2,0.1-0.3,0.3-0.3,0.5c0,0.2,0.1,0.3,0.2,0.4
			c0.1,0.1,0.2,0.2,0.4,0.3c0.2,0.1,0.4,0.1,0.6,0.2c0.3,0.1,0.6,0.2,0.8,0.3s0.4,0.2,0.5,0.4c0.2,0.2,0.2,0.4,0.2,0.8
			c0,0.3-0.1,0.5-0.2,0.8s-0.4,0.4-0.7,0.5s-0.6,0.2-1,0.2c-0.4,0-0.7-0.1-1.1-0.2s-0.7-0.3-0.9-0.6l0.3-0.6
			c0.2,0.2,0.5,0.4,0.8,0.5c0.3,0.1,0.6,0.2,0.9,0.2c0.3,0,0.6-0.1,0.8-0.2s0.3-0.3,0.3-0.5c0-0.2-0.1-0.3-0.2-0.4
			c-0.1-0.1-0.2-0.2-0.4-0.3s-0.4-0.1-0.7-0.2c-0.3-0.1-0.6-0.2-0.8-0.3c-0.2-0.1-0.4-0.2-0.5-0.4c-0.2-0.2-0.2-0.4-0.2-0.7
			c0-0.3,0.1-0.5,0.2-0.7s0.3-0.4,0.6-0.5c0.3-0.1,0.6-0.2,0.9-0.2c0.3,0,0.6,0,0.9,0.1s0.5,0.2,0.8,0.3l-0.3,0.6
			C47.2,41.5,46.9,41.4,46.7,41.3z"/>
	</g>
</g>
</svg>
