<svg id="Layer_1" data-name="Layer 1" xmlns="http://www.w3.org/2000/svg" viewBox="0 0 156 34.42"><defs><style>.cls-1{fill:#df1e26;}</style></defs><title>abadraho-logo</title><path class="cls-1" d="M28,30.34l-2.83,1.08q-1.15.45-1.86.76t-1,.5a1.17,1.17,0,0,0-.35.26l-.06,0-.06,0,0,0a.15.15,0,0,0,0,.11.11.11,0,0,1,0,.07.07.07,0,0,0-.07.07.11.11,0,0,0,0,.07h.15s.06,0,.11-.07a.72.72,0,0,1,.37.3.81.81,0,0,1,.11.56,1.77,1.77,0,0,1-1.12.41,1.21,1.21,0,0,1-.86-.28q-.3-.28-.26-.39s0,0,0,0,0,0,0,0l0,0a.24.24,0,0,1-.24-.2,3.84,3.84,0,0,1-.09-.47,5.87,5.87,0,0,1,0-.71,2.16,2.16,0,0,1,.76-.93,12.16,12.16,0,0,1,1.34-.91,9.72,9.72,0,0,1,1.4-.69,3.13,3.13,0,0,1,1-.26s0,0,0,0,0,0,0,0a1.48,1.48,0,0,1,.54-.22l.28,0h0l0,0v-.07h0l0,0a0,0,0,0,0,0,0,.07.07,0,0,0,.07-.07s.06-.07.19-.07a.29.29,0,0,0,.3-.19l.07,0,.07,0a.59.59,0,0,0,.26-.07l.22-.09a.7.7,0,0,0,.19-.13l.06,0,.06,0,0,0v0a3.44,3.44,0,0,0,.52-.13q.45-.13,1-.32t1.27-.45a.32.32,0,0,1,.11-.22.08.08,0,0,0,0-.06.07.07,0,0,1,0-.06l0,0,0,0s.07-.09.13-.28.13-.28.2-.28a.17.17,0,0,0,0-.07.16.16,0,0,1,0-.07,1,1,0,0,1,.43-.67c.19-.1.28-.19.28-.26s0,0,0,0,0,0,0,0q.26-.3.47-.58a1,1,0,0,0,.2-.35l0,0q.48-.86,1.1-1.83T33.73,21q.58-.84,1-1.43l.5-.71,0,0a1.12,1.12,0,0,0,.35-.48q.2-.41.28-.52a1,1,0,0,1,.26-.19l0-.07a6.6,6.6,0,0,1,1-1.53,2.17,2.17,0,0,0,.54-.71l.32-.39q.2-.24.39-.5l.45-.6a.43.43,0,0,0,.07-.11l.07-.15a1.4,1.4,0,0,1,.28-.45l.5-.6a9.09,9.09,0,0,1,.67-.74,6.24,6.24,0,0,1,.45-.6l.39-.45a1.35,1.35,0,0,1,.35-.3l-.11,0a2.55,2.55,0,0,1,.71-.6,6.48,6.48,0,0,0,.71-.48l.06,0,.06,0,.28-.09a1.3,1.3,0,0,1,.47-.09,5.42,5.42,0,0,1,.78.07,1.22,1.22,0,0,1,.67.26,1.71,1.71,0,0,1,.67-.11,1.68,1.68,0,0,1,.73.17,3.21,3.21,0,0,1,.63.39,5.55,5.55,0,0,1,.45.39q.17.17.2.17a3.78,3.78,0,0,1-.28,1,2.89,2.89,0,0,0-.24.95,4.28,4.28,0,0,0-.35.8q-.32.8-.82,2.22T45,19q-.67,2-1.38,4.38-.22.67-.39,1.08t-.32.8q-.15.39-.3.86t-.34,1.25a.66.66,0,0,0,.28.47,1.43,1.43,0,0,0,.32.24.15.15,0,0,1,0,.09.15.15,0,0,0,0,.09c0,.07,0,.14.11.2s.14.2.11.43a.61.61,0,0,1-.19.45.82.82,0,0,1-.6.19,3.1,3.1,0,0,1-.56-.07q-.3,1.19-.69,2.37A17,17,0,0,0,40.45,34l.07,0a1,1,0,0,0-.24.43,1.72,1.72,0,0,0-.13.54c0,.05,0,.07,0,.06s0,0,0,.06h0l-.19.37a1.79,1.79,0,0,0-.15.48,0,0,0,0,0,0,0l0,0a0,0,0,0,0,0,0,.11.11,0,0,0,0,.07l0,0q-.26,1-.43,2T39,40.32a4.91,4.91,0,0,0,0,.61v.5a.08.08,0,0,1,0,.06.07.07,0,0,0,0,.06q0,.11.11.2a.31.31,0,0,1,.15.28q0,.11-.13.32a.3.3,0,0,1-.28.2,7.59,7.59,0,0,1-1.17-.24,4.38,4.38,0,0,1-1-.45,2.56,2.56,0,0,1-.74-.65,1.29,1.29,0,0,1-.24-.89,11.08,11.08,0,0,1,.15-1.19q.11-.63.24-1.17t.2-.91q.07-.37.07-.41a0,0,0,0,0,0,0q.07-.26.3-1.12t.54-2q.32-1.15.69-2.44t.75-2.4s-.12-.07-.3-.07q-1.19,0-2.09.06a18.56,18.56,0,0,0-2,.24,1,1,0,0,1-.41.15,2.77,2.77,0,0,1-.6.07l-.06,0L33,29a.84.84,0,0,1-.39.09,2.54,2.54,0,0,0-.58.11,2.83,2.83,0,0,0-.56.24.7.7,0,0,0-.34.48,1.3,1.3,0,0,1-.26.54,1.65,1.65,0,0,1-.3.39,7.17,7.17,0,0,0-.41.63l-.11.2-.11.19q-.08.13-.41.61-.08,0-.45.61t-.82,1.49q-.45.88-.91,1.84t-.76,1.71v0c0,.05.09.13.28.24s.27.2.24.28a1.75,1.75,0,0,1-.54.95,1.27,1.27,0,0,1-.76.47,1.18,1.18,0,0,1-.63-.19,2.31,2.31,0,0,1-.48-.39,3.22,3.22,0,0,1-.3-.37c-.07-.11-.11-.15-.11-.13a5.11,5.11,0,0,1,.35-1.43q.32-.84.67-1.64T26,34.6a3.13,3.13,0,0,0,.3-.73,4.56,4.56,0,0,1,.39-1.08q.28-.56.56-1t.52-.8a1.3,1.3,0,0,0,.24-.41.11.11,0,0,0-.07,0A.94.94,0,0,0,28,30.34ZM22.76,31a3,3,0,0,1,.56-.43.73.73,0,0,1,.3-.09l.11,0,.07,0,.11-.15a.15.15,0,0,1,.09,0l.06,0a1.59,1.59,0,0,0,.37-.11A6.09,6.09,0,0,0,25,30a6.21,6.21,0,0,0,.82-.41L27,29.2l1-.37,1-.35H28.9a.26.26,0,0,1,.17,0c.06,0,.09,0,.09-.17q-1.56.48-3.39,1.19a1.24,1.24,0,0,0-.63.24,1.33,1.33,0,0,1-.48.24v0l-1.12.47-.39.19-.13.07-.3.09a0,0,0,0,0,0,0l0,0-.06,0-.06,0c0,.07,0,.11,0,.11a.11.11,0,0,1-.07,0,1.19,1.19,0,0,0-.41.19l-.47.28a6.15,6.15,0,0,0-.65.47L20.8,32l-.17.17a.11.11,0,0,0,0,.07,4,4,0,0,1,1-.71Zm4.1,3.35q.34-.63.48-.86a.77.77,0,0,0,.15-.3.15.15,0,0,0,0-.09s0,0,0-.09,0-.07.13-.15a.79.79,0,0,0,.2-.41.07.07,0,0,1,.07-.07,11.12,11.12,0,0,1,.56-1.3,4.65,4.65,0,0,1,.35-.58.76.76,0,0,1,.2-.2.15.15,0,0,0,.07-.15s0,0-.11,0-.19.11-.34.34a6.88,6.88,0,0,0-.43.75q-.21.41-.5,1c-.05.12-.11.27-.19.43l-.22.5-.3.6a3.48,3.48,0,0,1-.35.88q-.24.43-.47.78l-.39.61a.87.87,0,0,0-.17.37,0,0,0,0,0,0,0,3.35,3.35,0,0,1-.35,1,4.41,4.41,0,0,0-.39,1,.29.29,0,0,1,0,.2c0,.06,0,.12.07.17a12.06,12.06,0,0,1,.82-2.33Q26.29,35.41,26.85,34.32ZM30.32,28a.4.4,0,0,0-.3.11A.4.4,0,0,0,30.32,28Zm.78-1.15a23.27,23.27,0,0,1,1.42-2.37q.82-1.21,1.6-2.33t1.42-2.07a11.49,11.49,0,0,0,.93-1.62,7,7,0,0,0,.78-1q.41-.6.76-1.17l.6-1q.24-.41.32-.41s0,0,0,.07a.55.55,0,0,1,.26-.39c.17-.14.26-.22.26-.24h-.07s.07,0,.07-.15l0,0,0,0,0-.07a2.36,2.36,0,0,0,.86-.86,2.39,2.39,0,0,1,.34-.52v-.07a2.67,2.67,0,0,0,.47-.43l.28-.35a1,1,0,0,0,.22-.34v0a9.14,9.14,0,0,1,.74-.95,3.49,3.49,0,0,1,.48-.45,1,1,0,0,1,.26-.15s.07,0,.07-.06h0V9.93a5,5,0,0,0-.56.35l-.45.35a.72.72,0,0,0-.26.34v0a.58.58,0,0,0-.11.15.24.24,0,0,1-.11.11,0,0,0,0,1,0,0l0,0a.07.07,0,0,0,0,.06.08.08,0,0,1,0,.06q-.45.37-.67.6a1.92,1.92,0,0,0-.3.35.45.45,0,0,0-.07.2.33.33,0,0,1,0,.15,1.78,1.78,0,0,1-.3.32q-.26.24-.26.28l0,.07a.13.13,0,0,0-.15.15s0,0,.07-.07-.14.09-.26.28l-.41.6q-.22.32-.45.6t-.34.28v0a.07.07,0,0,0,0,.06.08.08,0,0,1,0,.06c-.07,0-.11,0-.11,0l0,.07a7.15,7.15,0,0,0-.86.95q-.41.54-.74,1.08t-.58,1a1.93,1.93,0,0,1-.39.54q-.22.45-.75,1.27t-1.06,1.58L33.2,23a3.85,3.85,0,0,1-.35.48.11.11,0,0,0,0,.07l0,0,0,0-.22.34-.11.19a.07.07,0,0,0,0,.06.08.08,0,0,1,0,.06,3.57,3.57,0,0,0-.45.52,3.79,3.79,0,0,0-.24.41q-.09.19-.17.37a1.49,1.49,0,0,1-.22.37l-.47.76-.3.5q-.13.22-.17.22a.55.55,0,0,0,.35-.24A.87.87,0,0,1,31.1,26.84Zm2.31-.3.07,0a0,0,0,0,0,0,0l.89-.19.8-.13.84-.09q.45,0,1,0t1.12,0q.56,0,1.12.11.19-.52.37-1.14A7.76,7.76,0,0,0,39.93,24s0-.07,0-.06,0,0,0-.06.18-.13.24-.32a4.44,4.44,0,0,0,.15-.58q.06-.3.13-.6a.9.9,0,0,1,.19-.41l0,0a0,0,0,0,1,0,0c0-.12.07-.35.15-.67a2.17,2.17,0,0,1,.45-.89s0-.07,0-.06,0,0,0,0a1.87,1.87,0,0,1,.09-.3,2.52,2.52,0,0,1,.2-.45h0a1.7,1.7,0,0,1,.2-.67,2.63,2.63,0,0,0,.24-.56.07.07,0,0,1-.07-.07,8.82,8.82,0,0,1,.47-1.43q.28-.65.5-1.25l0,0a10.55,10.55,0,0,1,.43-1.3q.28-.71.56-1.32t.5-1a2.14,2.14,0,0,0,.22-.5c0-.07,0-.11,0-.11s-.12,0-.2.13a2.62,2.62,0,0,0-.24.28l-.26.37c-.07,0-.11,0-.11,0a.07.07,0,0,0,0,.06.08.08,0,0,1,0,.06q-.22.08-.22.26a1.2,1.2,0,0,1-.26.47,4.82,4.82,0,0,1-.48.52L42,13.8q-.22.19-.22.22h0c0,.07,0,.12,0,.13a.06.06,0,0,0,0,.06l0,.07c-.07,0-.11,0-.11,0a.07.07,0,0,0,0,.06.08.08,0,0,1,0,.06l-.26.15v.07a0,0,0,0,0,0,0l0,0a0,0,0,0,1,0,0l0,0a.07.07,0,0,0,0,.06.08.08,0,0,1,0,.06,2.88,2.88,0,0,0-.73.82,1.41,1.41,0,0,0-.13.37.11.11,0,0,0,0-.07l0,0a.07.07,0,0,0,0,.06.08.08,0,0,1,0,.06.71.71,0,0,0-.22,0v.07a0,0,0,0,0,0,0q-.11,0-.17.17c0,.11-.07.17-.09.17v.07q-.19,0-.22.22t-.15.22a.11.11,0,0,0,0,.07l-.07,0v0c-.1.07-.14.12-.13.13s0,.07-.06.17,0,0,0,0,0,0,0,0,0,.15-.06.15-.06,0-.06,0a.11.11,0,0,0,0,.07l-.07,0v0a.49.49,0,0,1-.17.24C39,18,39,18,39,18a.07.07,0,0,0,0,.06.08.08,0,0,1,0,.06c-.07,0-.11,0-.11,0v.07q-.08,0-.15.17c-.05.11-.1.17-.15.17a.07.07,0,0,0,0,.06.08.08,0,0,1,0,.06,3.31,3.31,0,0,0-.34.41l-.37.5-.45.61,0,.07c-.07,0-.11,0-.11,0v.11a.2.2,0,0,0-.15.09.28.28,0,0,0-.07.17,0,0,0,0,1,0,0l0,0a.07.07,0,0,0,0,.06.08.08,0,0,1,0,.06c-.07,0-.11,0-.11,0a0,0,0,0,0,0,.07v0q-.3.37-.48.63t-.32.48l-.28.45-.34.48a2,2,0,0,1-.54.89q-.39.37-.35.37h0c0,.12-.05.19-.07.19a0,0,0,0,0,0,0,.11.11,0,0,0,0,.07c-.07,0-.11,0-.11,0a.07.07,0,0,0,0,.06.08.08,0,0,1,0,.06q-.52.75-.78,1.06l-.35.45a.87.87,0,0,0-.11.19s0,.11-.06.2S33.33,26.61,33.41,26.54Zm5.85,2.38q-.82,2.72-1.45,5.29t-1,5.36a1.72,1.72,0,0,0,0,.34v.52l.15-1.06a10.7,10.7,0,0,1,.22-1.14q.45-2.27.76-3.59t.56-2.18q.24-.86.43-1.49t.41-1.56l.22-.52a.33.33,0,0,0,0-.15c0-.07,0-.11-.07-.11s-.12.06-.15.17S39.26,28.95,39.26,28.92Zm.89-2.68q.45-1.42.95-3.24t1-3.48q.47-1.66.88-2.83t.67-1.29a.17.17,0,0,0,0-.07.25.25,0,0,1,0-.11.35.35,0,0,1,.09-.22.35.35,0,0,0,.09-.22,16.36,16.36,0,0,0,.86-2q.37-1,.71-1.88-.22,0-.5.69t-.58,1.53l-.54,1.53q-.24.69-.35.69v-.07A10.12,10.12,0,0,1,43,16.71q-.26.78-.54,1.58l-.56,1.58q-.28.78-.47,1.45-.3,1.12-.48,1.73t-.34,1.06q-.15.45-.28.91T40,26.35A.1.1,0,0,0,40.15,26.24Z" transform="translate(-4.34 -9.33)"/><path class="cls-1" d="M48.68,27.17c0,.05,0,.07,0,.07a.46.46,0,0,0,.2-.15l.26-.34q.17-.22.5-.61t.93-1a.11.11,0,0,1,.07,0,.27.27,0,0,0,.2-.11,1.42,1.42,0,0,1,.24-.22,2.44,2.44,0,0,1,.37-.22,1.15,1.15,0,0,1,.52-.11,2.41,2.41,0,0,1,1.1.2,5.47,5.47,0,0,1,1.06.84l0,.07a.32.32,0,0,0,.06.13q.06.09.24.5a.08.08,0,0,1,0,.06.08.08,0,0,0,0,.06s0,.14.11.5a5.78,5.78,0,0,1,.11,1.17.4.4,0,0,0,.2-.09l.28-.2.37-.34a1.46,1.46,0,0,0,.32-.22l.69-.52a10.09,10.09,0,0,1,.89-.58,5.73,5.73,0,0,1,.89-.43l.24,0,.43.06a2.46,2.46,0,0,1,.43.11c.14.05.2.12.2.22a.81.81,0,0,1-.34.56,7.32,7.32,0,0,1-.74.58,9.54,9.54,0,0,1-1.08.61,7.43,7.43,0,0,1-.78.61,1.81,1.81,0,0,1-.48.28s0,0,0,0,0,0,0,0-.09.05-.19.15l-.37.35-.47.45q-.24.24-.47.43,0,.3-.11.65t-.13.67l-.13.73a.86.86,0,0,1-.07.3c-.05.12-.1.26-.15.41s-.1.29-.15.41a.85.85,0,0,0-.07.26,0,0,0,0,0,0,0l0,0c0,.12,0,.19,0,.19l0,0,0,.07a1.32,1.32,0,0,1-.09.37,3.76,3.76,0,0,1-.47.78.71.71,0,0,1-.06.22,2.41,2.41,0,0,1-.15.32,2.36,2.36,0,0,0-.15.32.8.8,0,0,0-.06.19v-.07a.11.11,0,0,0,0,.07,1.21,1.21,0,0,0-.15.19,1,1,0,0,0-.15.2,1.08,1.08,0,0,0-.11.28,1.29,1.29,0,0,1-.26.41,6.84,6.84,0,0,1-.67.73,4.56,4.56,0,0,1-.95.69,2.32,2.32,0,0,1-1.14.3,1.8,1.8,0,0,1-.84-.22,1.83,1.83,0,0,1-.39-.22A1,1,0,0,1,47.8,38a5.05,5.05,0,0,1-.5-.43l-.07,0a1.18,1.18,0,0,1-.19-.15.43.43,0,0,1-.15-.3.07.07,0,0,1,0-.06.08.08,0,0,0,0-.06l-.07,0V37a.08.08,0,0,0,0-.06.07.07,0,0,1,0-.06l0,0a.19.19,0,0,0,0-.09.23.23,0,0,1,0-.13A1.27,1.27,0,0,1,47,36q.2-.34.43-.63t.43-.52c.14-.15.2-.25.2-.3l-.07,0a.16.16,0,0,1,.19-.19.08.08,0,0,0,0-.06.07.07,0,0,1,0-.06s.08-.07.24-.3.39-.5.69-.84.65-.71,1-1.12a10.41,10.41,0,0,1,1.3-1.14.11.11,0,0,1,0-.07.89.89,0,0,1,.06-.24c0-.11.07-.15.09-.13a.07.07,0,0,0-.07-.07l.13-.15a.81.81,0,0,0,.17-.56s0,0-.06-.07-.06,0-.06-.07a.12.12,0,0,1,.07-.11s.07-.1.07-.22l0,0s.06-.09.09-.26.07-.37.11-.6.07-.43.09-.63,0-.32,0-.37l0,0v.07s0-.07,0-.07,0,0,.06-.07a.11.11,0,0,1-.07,0,.33.33,0,0,1,0-.15.66.66,0,0,0,.07-.3.15.15,0,0,0,0-.09.14.14,0,0,1,0-.09.08.08,0,0,1,0-.06.15.15,0,0,0,0-.09,0,0,0,0,0,0,0,1.36,1.36,0,0,0-.89.52,2,2,0,0,1-.34.41c-.05,0-.1,0-.15.11l-.19.26a1.74,1.74,0,0,0-.26.34l-.48.45q-.19.19-.35.39a.6.6,0,0,0-.17.32.11.11,0,0,0,0,.07,2.29,2.29,0,0,0-.73.89q-.21.48-.28.48v0a.07.07,0,0,0,0,.06.08.08,0,0,1,0,.06.13.13,0,0,0-.15.15,1.31,1.31,0,0,1-.19.3q-.19.26-.39.58l-.39.6a1,1,0,0,0-.19.35,1.3,1.3,0,0,0-.37.63q-.08.34-.22.34a1.4,1.4,0,0,1-.19.47l-.43.82a8.42,8.42,0,0,0-.43,1,2.59,2.59,0,0,0-.19.88,1.13,1.13,0,0,0-.34.73q-.11.58-.28,1.23a8.94,8.94,0,0,1-.39,1.19.9.9,0,0,1-.67.61l-.35-.17-.6-.3a5.18,5.18,0,0,1-.58-.35c-.17-.12-.26-.22-.26-.3a1.47,1.47,0,0,0-.07-.43.88.88,0,0,1,0-.43.08.08,0,0,0,0-.06.08.08,0,0,1,0-.06.62.62,0,0,0,.24-.41,5.89,5.89,0,0,0,.15-.71q.06-.37.13-1,.22-.89.43-1.56T43,33.47q.21-.6.41-1.12t.43-1.15l0-.07a0,0,0,0,1,0,0,1.23,1.23,0,0,0,.35-.45,2.15,2.15,0,0,0,.13-.41,1.71,1.71,0,0,0,0-.34.46.46,0,0,1,.07-.26v0a0,0,0,0,0,0,0,1.58,1.58,0,0,1,.15-.45l.17-.43L45,28.4l0-.07,0,0c.05,0,.1-.09.15-.28s.11-.4.19-.65.17-.51.28-.78A1.62,1.62,0,0,1,46,26,.08.08,0,0,0,46,26a.07.07,0,0,1,0-.06.23.23,0,0,1,.06-.17l.09-.09a.17.17,0,0,0,0-.07.16.16,0,0,1,0-.07,3.64,3.64,0,0,1,.17-.45q.17-.41.65-1.38s0,0,0,0,0,0,0,0l.32-.82.26-.67a2.66,2.66,0,0,1,.2-.45q.3-.6.45-.93t.45-.93a.17.17,0,0,0,0-.07.16.16,0,0,1,0-.07,3.28,3.28,0,0,0,.17-.47q.17-.5.45-1.17t.58-1.3a2.76,2.76,0,0,1,.6-.89.17.17,0,0,0,0-.07.16.16,0,0,1,0-.07q.07-.19.15-.34a1.65,1.65,0,0,1,.34-.56.08.08,0,0,0,0-.06.07.07,0,0,1,0-.06s0-.06.09-.11a.93.93,0,0,0,.2-.3.08.08,0,0,0,0-.06.07.07,0,0,1,0-.06s0,0,.06,0a.13.13,0,0,0,.09,0q.19-.34.28-.54a2.27,2.27,0,0,1,.17-.32L51.7,13l0,0a.07.07,0,0,1,.07-.07s.07,0,.07-.11,0,0,0,0,0,0,0,0a.59.59,0,0,1,.37-.5,1.46,1.46,0,0,1,.48-.2,4.45,4.45,0,0,1,.84.11q.54.11,1,.26a3.25,3.25,0,0,1,.8.35q.32.21.2.35-.41.63-.86,1.29t-1,1.62q-.54,1-1.25,2.37t-1.68,3.52a13.93,13.93,0,0,0-.58,1.34q-.28.75-.54,1.47t-.5,1.36Q48.87,26.73,48.68,27.17Zm3.24-13.45,0,0a.07.07,0,0,0,0,.06.08.08,0,0,1,0,.06h-.07s-.07.05-.13.15-.12.21-.19.34l-.17.34a.65.65,0,0,0-.07.19h0a8.05,8.05,0,0,1-.47,1.36l-.71,1.66q-.35.82-.65,1.4a3.68,3.68,0,0,1-.3.54,1.92,1.92,0,0,1-.11.32l-.24.61q-.13.34-.39.89-1,2.38-1.51,3.67l-.78,2-.47,1.15q-.19.45-.52,1.15-.48,1-.63,1.49a2.39,2.39,0,0,0-.15.63c0,.05,0,.07,0,.07a.11.11,0,0,0,.07,0q-.41,1.12-.8,2.29T43,36.49a.07.07,0,0,0,.07.07v-.11a3.44,3.44,0,0,0,.48-.56.72.72,0,0,0,.11-.37q0-.15-.06-.19a.12.12,0,0,1-.06-.11.11.11,0,0,1,0-.07,8,8,0,0,1,.26-1.29,3.15,3.15,0,0,1,.32-.73l.28-.45a1,1,0,0,0,.11-.52,3.48,3.48,0,0,0,.28-.76l.17-.73a4.59,4.59,0,0,1,.15-.54c.05-.14.11-.2.19-.2v0a4.22,4.22,0,0,0,.34-.6.86.86,0,0,0,.07-.26.42.42,0,0,0,0-.13.56.56,0,0,1,0-.17s0-.07,0-.06,0,0,0,0q.41-.86.47-1a1.08,1.08,0,0,0,.06-.26l.24-.48a4.19,4.19,0,0,0,.2-.52q.22-.71.37-1.1l.22-.58a1.25,1.25,0,0,1,.19-.3,1.63,1.63,0,0,0,.17-.37,1.07,1.07,0,0,1,.17-.34q.22-.56.61-1.49t.88-2q.48-1.08.95-2.2t.88-2q.41-.89.89-2a.12.12,0,0,0-.07-.11.12.12,0,0,1-.07-.11l.11-.07c.07-.07.11-.12.11-.15a.07.07,0,0,0-.07-.07c0,.1,0,.16-.07.19Zm-4,22.16a.88.88,0,0,1,.11-.37q.11-.22.22-.22a.08.08,0,0,0,0-.06.07.07,0,0,1,0-.06s0-.07.11-.13l.19-.17,0-.07s0-.08.09-.09a.17.17,0,0,0,.13-.09l0-.07a.73.73,0,0,1,.13-.39,3,3,0,0,1,.3-.39,3.3,3.3,0,0,1,.3-.3c.09-.07.13-.12.13-.15a.81.81,0,0,0,.32-.19q.24-.19.24-.26a0,0,0,0,0,0,0h0l.2-.19.35-.34.32-.34c.09-.1.13-.16.13-.19a1.67,1.67,0,0,0-.43.35q-.32.32-.69.73l-.89,1-.69.82a4.5,4.5,0,0,0-.35.48l-.17.3-.13.26a1.15,1.15,0,0,0-.28.48,1.69,1.69,0,0,0-.09.41.15.15,0,0,0,.11.15A3,3,0,0,1,47.9,35.89Zm.37-7.26a.57.57,0,0,0-.11.15.59.59,0,0,1-.11.15,3.56,3.56,0,0,1,.41-.5l.91-1q.5-.56.91-1.06a1.68,1.68,0,0,0,.41-.65s0,0,0,.07-.16.18-.32.39-.34.43-.54.65l-.56.61q-.26.28-.34.28c-.05.12-.09.19-.11.19a.11.11,0,0,0-.07,0l-.15.17A5.67,5.67,0,0,0,48.27,28.63ZM50,36.37a1.78,1.78,0,0,0,.41-.39,1.86,1.86,0,0,0,.22-.39,1.58,1.58,0,0,0,.15-.45v.07a9,9,0,0,1,.37-1,3.77,3.77,0,0,1,.22-.43c0-.07.08-.11.09-.11s0,0,0-.07a.37.37,0,0,0-.07-.26,2.13,2.13,0,0,1-.48,1q-.37.43-.37.54h0l0,0a.07.07,0,0,0,0,.06.08.08,0,0,1,0,.06c-.05,0-.1.05-.15.15s-.1.21-.15.34l-.13.34c0,.1-.07.15-.09.15v-.07a.7.7,0,0,1-.32.48q-.32.26-.32.34l0,0a.48.48,0,0,1,.24-.22A.91.91,0,0,0,50,36.37ZM51,25.57,51,25.5v0s0,0-.11.07-.11.12-.11.15.07,0,.07,0S50.9,25.6,51,25.57Zm1.49,4.36a1.31,1.31,0,0,1,0-.22,1.2,1.2,0,0,0,0-.19.79.79,0,0,1-.06.19.72.72,0,0,0-.06.22l0,0Zm0-.74c0,.17,0,.26,0,.26v0a.08.08,0,0,1,0-.06.08.08,0,0,0,0-.06C52.55,29.22,52.53,29.18,52.48,29.18Z" transform="translate(-4.34 -9.33)"/><path class="cls-1" d="M70.66,26.84l0,0,0,0a1.28,1.28,0,0,0-.39.26.65.65,0,0,0-.13.24l-.07.28a.78.78,0,0,1-.22.34l-.15.39a.44.44,0,0,1-.09.15l-.17.2a4.56,4.56,0,0,0-.34.6,1.72,1.72,0,0,0-.34.26,2.18,2.18,0,0,0-.2.34.9.9,0,0,0-.09.41c0,.2,0,.3,0,.3l-.13,0a.73.73,0,0,0-.24.22,3.27,3.27,0,0,0-.37.82,2.6,2.6,0,0,0-.37.43.46.46,0,0,0-.07.2.4.4,0,0,0,0,.13.42.42,0,0,1,0,.13v0s-.09.09-.19.28l-.32.61a5.75,5.75,0,0,1-.35.61c-.12.19-.22.28-.3.28a1.21,1.21,0,0,1-.2.45,4.74,4.74,0,0,1-.5.67,5.13,5.13,0,0,1-.65.61,1.06,1.06,0,0,1-.61.28.92.92,0,0,1-.6-.34l-.71-.71a2.84,2.84,0,0,1-.48-.45,2.74,2.74,0,0,1-.32-.37.59.59,0,0,1-.13-.26.11.11,0,0,1,0-.07,0,0,0,0,1,0,0,.22.22,0,0,1-.19-.11c-.12-.07-.19-.27-.19-.6l0,0q0-.11-.07-.26a1.34,1.34,0,0,1-.06-.26q0-.15-.06-.34,0-.6,0-1.06a3.71,3.71,0,0,1,.17-.95,2.6,2.6,0,0,0-.43.32,5.35,5.35,0,0,0-.91,1.06h0l0,0q0,.08-.32.37l-.43.41c0,.1,0,.15,0,.15l-.07,0v.07s-.06.05-.11.15a1.58,1.58,0,0,1-.24.34,1.7,1.7,0,0,1-.43.34,1.26,1.26,0,0,1-.63.15,1.08,1.08,0,0,1-.86-.39l-1-1.14s0,0-.15-.13-.14-.17-.11-.17,0-.1-.07-.07-.11,0-.19-.06a.78.78,0,0,1-.19-.41,5.51,5.51,0,0,1-.07-1.1,1.2,1.2,0,0,1,.13-.58,1.11,1.11,0,0,0,.13-.54l0,0a.86.86,0,0,1,.26-.52,1,1,0,0,0,.26-.67.8.8,0,0,1,0-.13c0-.06,0-.09.09-.09l0-.07,0,0,0,0q.08,0,.26-.43a2.06,2.06,0,0,1,.3-.54s0,0,0,0,0,0,0,0a1,1,0,0,1,.15-.26,1.28,1.28,0,0,1,.24-.32l.47-.47a6.82,6.82,0,0,1,.52-.47L58.7,25l.45-.35c.12-.1.19-.16.19-.19l.07,0s.06,0,0,0,0,0,.11,0l0,0h.11v-.07a.11.11,0,0,1,.07,0l.07-.07.07-.07a.11.11,0,0,1,.07,0l.54-.13a3.68,3.68,0,0,1,.91-.13,3.55,3.55,0,0,1,.82.07l.6.15v0a1,1,0,0,1,.26.17.79.79,0,0,0,.48.17.11.11,0,0,0,.07,0,.13.13,0,0,0,.15.15.11.11,0,0,0,.07,0,.63.63,0,0,0,.2.13.66.66,0,0,1,.2.13q.19,0,.35-.32a.49.49,0,0,1,.43-.32l.26.07.5.19a4.4,4.4,0,0,1,.54.26,1,1,0,0,1,.34.26,3.71,3.71,0,0,0,.45.22.41.41,0,0,1,.26.41.67.67,0,0,1-.13.32L67,26.3l-.26.39a.58.58,0,0,0-.13.3l-.34.54A3.85,3.85,0,0,0,66,28a1.13,1.13,0,0,0-.11.41.11.11,0,0,0,0,.07q-.15,0-.34.71v0a2.33,2.33,0,0,1-.15.47l-.34.88-.48,1.23v.07l0,.37a0,0,0,0,1,0,0,3.23,3.23,0,0,0-.15.67,2.63,2.63,0,0,1-.15.63,0,0,0,0,0,0,0s0-.07.11-.13l.15-.13a.11.11,0,0,0,0-.07s0,0,.07-.07L64.7,33l0-.07s0-.07.15-.13.14-.09.11-.09a0,0,0,0,0,0,0,0,0,0,0,1,0,0,.45.45,0,0,1,.11-.22,6.17,6.17,0,0,1,.48-.52l0-.07,0,0h0s.1-.14.3-.26A.58.58,0,0,0,66,31c0-.1,0-.15.06-.15a.2.2,0,0,0,.13-.07l0,0a1.25,1.25,0,0,1,0-.24.48.48,0,0,1,.11-.2,2.82,2.82,0,0,1,.28-.28l.52-.5,0-.07,0,0,0,0a1.22,1.22,0,0,1,.22-.37l.37-.35q.26-.24.69-.73a16.32,16.32,0,0,0,1.1-1.45s.12-.09.2-.26.3-.26.65-.26a.46.46,0,0,1,.22.11c.1.07.15.14.15.19a.81.81,0,0,1,0,.2A1.16,1.16,0,0,0,70.66,26.84Zm-12.4-.11a13.42,13.42,0,0,1,1.14-1,12.4,12.4,0,0,0,1.06-.95,1,1,0,0,0-.56.17q-.26.17-.78.58-.22.22-.3.22s0,0,0,0,0,0,0,0a.15.15,0,0,0-.09.06,2.16,2.16,0,0,0-.19.24l-.37.54q-.24.35-.61.95c-.05,0-.07,0-.07,0l0,0a1,1,0,0,0-.19.22.44.44,0,0,1-.07.11.11.11,0,0,0,0,.07,0,0,0,0,1,0,0l0,0a.11.11,0,0,0,0,.07H57.1c0,.12,0,.17,0,.13s0,0,0,0l0,.07a0,0,0,0,1,0,0s-.07,0-.06.07a.09.09,0,0,1-.06.11l0,.07s-.07,0-.07.11-.11.29-.32.5a1.87,1.87,0,0,0-.32,1.29q.19-.26.3-.45a2.47,2.47,0,0,0,.2-.45,1.44,1.44,0,0,0,.09-.48v0a0,0,0,0,1,0,0,1.27,1.27,0,0,1,.22-.47,8.34,8.34,0,0,1,.5-.71l.5-.65a1.08,1.08,0,0,0,.22-.37Zm4.32,1a.06.06,0,0,1,0-.06.06.06,0,0,0,0-.06.11.11,0,0,0,0-.07q-.6.71-1.25,1.42a12.07,12.07,0,0,1-1.25,1.19q-.48.37-.86.71l-.56.56q-.26.26-.26.34l0,0a5.22,5.22,0,0,0,.56-.48,4.19,4.19,0,0,1,.52-.45l.43-.43.13-.11.35-.34,1.1-1.1,0-.07c0-.07.06-.15.17-.24l.35-.28.35-.3A.4.4,0,0,0,62.57,27.73Zm.3-1,.32-.32a1.61,1.61,0,0,0,.24-.32,2.27,2.27,0,0,0-.67.07,1.65,1.65,0,0,0-.39.19l-.28.19a.61.61,0,0,1-.34.07s0,.05-.15.15l-.41.34-.45.37a1.2,1.2,0,0,0-.26.26h.07s-.07.07-.2.13a.3.3,0,0,0-.2.28l0,.07a3.14,3.14,0,0,0-.45.52,7.11,7.11,0,0,0-.37.86q-.08,0-.34.35a1.26,1.26,0,0,0-.26.76,0,0,0,0,0,0,0,2.82,2.82,0,0,0,.45-.3,8.14,8.14,0,0,0,.93-.82l0-.07s.08-.1.24-.22l.28-.22a.11.11,0,0,0,0-.07,0,0,0,0,1,0,0,9,9,0,0,1,1.08-1.12A9.73,9.73,0,0,0,62.87,26.73Zm.07,2.57a.11.11,0,0,1,0-.07.15.15,0,0,0,0-.11A.11.11,0,0,0,63,29a1.53,1.53,0,0,0-.24.45,1.3,1.3,0,0,0-.09.37l0,0a2.09,2.09,0,0,1,.17-.34A.52.52,0,0,0,62.95,29.3Zm7.15-2.76a0,0,0,0,0,0,0,.26.26,0,0,0-.17.09l-.17.17q-.37.26-.5.37a.92.92,0,0,0-.2.24l-.17.3a3.61,3.61,0,0,1-.43.54v0a.11.11,0,0,0,0,.07,1,1,0,0,1-.17.39,4.89,4.89,0,0,1-.69.8c0,.05-.06.13-.17.24s-.17.19-.17.24l0,0,0,0a0,0,0,0,1,0,0l-.3.37-.2.28a.4.4,0,0,0-.09.2l0,.07q-.08,0-.28.19a2.61,2.61,0,0,0-.47,1l-.15.15,0,.07a0,0,0,0,0,0,0s-.07.07-.13.2a1.34,1.34,0,0,1-.28.39.76.76,0,0,1-.17.39,4.42,4.42,0,0,1-.39.48,6.06,6.06,0,0,0-.39.47.73.73,0,0,0-.17.3c0,.07,0,.11,0,.11a.66.66,0,0,0,.3-.19A4.32,4.32,0,0,0,65,34a6.14,6.14,0,0,0,.52-.89h0a.82.82,0,0,1,.15-.34l.17-.22q.09-.11.17-.11a.11.11,0,0,0,0-.07q-.08,0,.52-.89L68,29.22q.11-.11.28-.32l.34-.43a4.76,4.76,0,0,0,.3-.45.78.78,0,0,0,.13-.34s.09-.07.28-.3S69.75,26.89,70.1,26.54Z" transform="translate(-4.34 -9.33)"/><path class="cls-1" d="M85,11.94a1.42,1.42,0,0,0,.47.28l.65.28a2.39,2.39,0,0,1,.56.34.43.43,0,0,1,.19.41A9.45,9.45,0,0,0,86,14.49q-.63.95-1.3,1.92L83,18.94s0,.09-.06.19l-.2.32-.34.47a.11.11,0,0,0,0,.07,4.53,4.53,0,0,0-.6.86,1.22,1.22,0,0,0-.11.34c0,.05.08.07.09.06s0,0,.06.06-.14.06-.2.17a3,3,0,0,0-.17.35,3.81,3.81,0,0,0-.15.48l0-.07s0,.07-.09.3-.19.47-.32.73-.25.5-.37.73-.2.34-.22.34v0q0,.08.11.11c-.07,0-.16.12-.26.37s-.16.37-.19.37,0,.08,0,.09a.15.15,0,0,1,0,.09l-.26.45q-.08.19-.15.34a.65.65,0,0,0-.07.19l0-.07a.11.11,0,0,0,0,.07,1,1,0,0,0-.24.45q-.13.37-.26.8t-.2.78c-.05.24-.06.35,0,.35q-.11.52-.17.82a3.1,3.1,0,0,1-.15.54c-.06.16-.11.24-.13.24l0-.07q-.15.75-.17.91a.54.54,0,0,1,0,.19.38.38,0,0,0,0,.15q0,.13-.17.84,0,.34-.09.63a3.06,3.06,0,0,0-.06.56,0,0,0,0,0,0,0l0,0a.38.38,0,0,0-.11.35,2.23,2.23,0,0,1,0,.39q0,.41.26.24a2.11,2.11,0,0,0,.47-.54q.24-.37.47-.76t.34-.43q.63-.63.63-.93a.75.75,0,0,1,0-.34,3,3,0,0,0,.61-1,3.18,3.18,0,0,1,.13-.43q.3-.71.45-1l.2-.41c0-.07.06-.11.06-.09s0,0,0-.06.14-.22.35-.6a8.43,8.43,0,0,1,.84-1.19,4.78,4.78,0,0,1,.26-.6c.12-.25.24-.37.34-.37h0l.3.07a1.65,1.65,0,0,1,.6.3,1.54,1.54,0,0,1-.3.76,1.56,1.56,0,0,0-.3.65q-.45.71-.76,1.15t-.28.6a.86.86,0,0,1-.2.43,1,1,0,0,0-.2.35h.07a2.94,2.94,0,0,0-.41.65q-.19.39-.32.74t-.2.6c-.05.16-.07.23-.07.2a.87.87,0,0,1-.09.28l-.2.45-.2.45a1.09,1.09,0,0,0-.09.24,2.44,2.44,0,0,0-.34.52.85.85,0,0,0-.07.26l.07.15a1.39,1.39,0,0,1-.11.28l-.26.54q-.15.3-.26.56a1.66,1.66,0,0,0-.11.3.47.47,0,0,1-.22.41.4.4,0,0,1-.22.07h0a.75.75,0,0,0-.22.15.75.75,0,0,1-.48.15.84.84,0,0,1-.56-.19l-.37-.3-.07,0a1.42,1.42,0,0,1-.52-.34L76.43,36a3.14,3.14,0,0,1-.3-.37c-.12-.17-.2-.26-.22-.26a.11.11,0,0,1,0-.07,1.19,1.19,0,0,1-.37-.58q-.19-.47-.26-.73a5.07,5.07,0,0,1-.19-1.29q0-.58,0-1t.07-.69q0-.26,0-.34s0-.07,0-.2.06-.29.09-.45.07-.31.09-.45a2.4,2.4,0,0,0,0-.24.07.07,0,0,0,0-.11.12.12,0,0,1,0-.15,0,0,0,0,0,0,0s-.07.05-.13.15l-.2.35q-.11.21-.26.54a.11.11,0,0,0,0,.07c-.05.07-.1.11-.15.11s-.12.12-.22.37a.89.89,0,0,0-.13.37,1,1,0,0,1-.28.48l0,.07c-.05,0-.07,0-.07,0s0,0,0,0l0,0a.11.11,0,0,0,0,.07c-.1.1-.15.14-.15.11s0,.05.11.07a3.1,3.1,0,0,0-.41.52c-.05.1-.07.14-.07.11s0,0,0,0,0,0,0,0-.22.1-.22.15a.11.11,0,0,0,0,.07q-.08.08-.11.06s0,0,0,.06a.11.11,0,0,0,.07,0s0,0,0,0,0,0,0,0a3.54,3.54,0,0,0-.95.93.73.73,0,0,1-.65.41,1.66,1.66,0,0,1-.89-.32,5.05,5.05,0,0,1-.89-.74,6.36,6.36,0,0,1-.71-.88,1.87,1.87,0,0,1-.34-.74,7.62,7.62,0,0,1-.11-1.25q0-.58,0-1.21a.11.11,0,0,1-.07,0,.38.38,0,0,0,.06-.3c0-.15,0-.22.09-.22s0-.07,0-.06,0,0,0,0a1.56,1.56,0,0,1,.13-.84q.17-.32.13-.28A10.58,10.58,0,0,1,69.37,26q.17-.69.39-.69v0a7.46,7.46,0,0,1,.28-.91.16.16,0,0,1,.13-.09q.15,0,.56-.63a5.28,5.28,0,0,1,1.15-1.23.72.72,0,0,0,.2-.09l.37-.2a3,3,0,0,0,.35-.22c.1-.07.15-.12.15-.15h0s.11,0,.41-.17a2.79,2.79,0,0,1,1.15-.2.87.87,0,0,1,.35.07.72.72,0,0,0,.28.07.11.11,0,0,0,.07,0,3.4,3.4,0,0,0,.61.47,3.31,3.31,0,0,0,.39.19l.26.07.22.06a1.69,1.69,0,0,1,.24.2,2.53,2.53,0,0,0,.28.24q.26-.07.35-.47t.13-.39v0a2.52,2.52,0,0,0,.39-.58c.09-.19.15-.34.2-.47a3.53,3.53,0,0,0,.11-.41v0a.54.54,0,0,1,.06-.35,2.44,2.44,0,0,1,.22-.39,2.35,2.35,0,0,1,.26-.32l.17-.17.41-.86q.34-.71.78-1.58t1-1.75a14.61,14.61,0,0,1,1-1.43,5.64,5.64,0,0,1,.47-.89,2.38,2.38,0,0,1,.35-.43l.2-.17a.12.12,0,0,0,.06-.11l.45-.22a.84.84,0,0,0,.2-.13l.09-.07.15,0a.67.67,0,0,1,.28.15A.83.83,0,0,0,85,11.94ZM70.25,26.8a6.49,6.49,0,0,1,.65-1.47,1.18,1.18,0,0,0,.24-.39.85.85,0,0,1,.26-.48q.26-.3.3-.3l0,0a8.85,8.85,0,0,1,1.17-1.4,1.18,1.18,0,0,1,.39-.24s0,0,0,0,0,0,0,0,.07,0,.15-.11l.24-.17c.09-.06.13-.11.13-.13a0,0,0,0,0,0,0,7.77,7.77,0,0,0-1.36.69,2,2,0,0,0-.54.52,2.87,2.87,0,0,0-.22.43.72.72,0,0,1-.37.34.18.18,0,0,1-.09.17c-.06,0-.07.08,0,.13l.07.07q-.26,0-.41.37a.83.83,0,0,0-.07.37v-.07a2.61,2.61,0,0,0-.37.56.85.85,0,0,0-.07.3l.07.07q0,.75-.22.89t-.22.19a5.16,5.16,0,0,1-.19.71,2.07,2.07,0,0,1-.13.28.36.36,0,0,0-.06.19,2.06,2.06,0,0,0,.07.39.15.15,0,0,0,0,.11,4.22,4.22,0,0,1,.2-1.06Q70.06,27.28,70.25,26.8Zm1.34,5q.74-.86,1-1.17a1.2,1.2,0,0,0,.22-.39s0-.07,0-.07,0,0,0-.07a.54.54,0,0,1,.11-.24q.11-.17.48-.61a4,4,0,0,0,.48-.71,1.31,1.31,0,0,0,.15-.37h0q.3-.56.63-1.12a10,10,0,0,1,.89-1.23s0,0,.13-.19a1.89,1.89,0,0,0,.28-.63,4.31,4.31,0,0,0,.37-.48,2.41,2.41,0,0,0,.26-.41.57.57,0,0,0-.06-.2,1.56,1.56,0,0,1-.09-.35,2.64,2.64,0,0,0-.82.09,1,1,0,0,0-.39.22.73.73,0,0,0-.17.22q0,.09-.11.09a.49.49,0,0,0-.52.32c-.07.21-.12.32-.15.32v0a2.55,2.55,0,0,0-.71.88q-.19.43-.26.43a0,0,0,0,1,0,0l0,0,.07.07a5.9,5.9,0,0,0-.67.93,1.31,1.31,0,0,0-.15.37v.07a0,0,0,0,0,0,0,1.31,1.31,0,0,1-.07.41q-.08.22-.17.45l-.17.39a.81.81,0,0,0-.07.2v0a.07.07,0,0,0,0,.06A.08.08,0,0,1,72,29a.8.8,0,0,0-.15.3,1.51,1.51,0,0,1-.07.19.11.11,0,0,0,0,.07,7.22,7.22,0,0,0-.28,1.12,3.36,3.36,0,0,0,0,1.27s.07-.06.06-.09S71.54,31.8,71.59,31.75Zm.07.93a1.46,1.46,0,0,0,.26-.24,3.13,3.13,0,0,0,.26-.34,2.68,2.68,0,0,0,.22-.43l1.25-2.24.6-1.06q.2-.35.34-.54l.47-.63a.76.76,0,0,1,0-.39.61.61,0,0,1,.17-.26l.35-.32a4,4,0,0,0,.52-.56,1.49,1.49,0,0,0,.24-.37,5.8,5.8,0,0,0,.24-.56c-.12,0-.25.09-.37.26a.91.91,0,0,0-.19.34v0l.07-.07a3.36,3.36,0,0,0-.34.6q-.08.15-.15.34a6,6,0,0,0-.54.67.94.94,0,0,0-.07.19,2.85,2.85,0,0,1-.17.37q-.15.3-.74,1.3a6,6,0,0,0-.69.82q-.13.22-.09.3s0,0,0,0,0,0,0,0-.07.19-.22.34a2.85,2.85,0,0,1-.26.78,1.12,1.12,0,0,1-.28.35.92.92,0,0,1-.24.13q-.11,0-.11.11a.55.55,0,0,1-.07.22L72,32l-.15.17a2.31,2.31,0,0,0-.24.41.23.23,0,0,1-.09.06.09.09,0,0,0-.06.09.11.11,0,0,0,0,.07s0-.07.06-.07A.13.13,0,0,0,71.66,32.69Zm8.87-14.15a9.79,9.79,0,0,1,.6-1.29q.41-.76.82-1.47T83,14.14a0,0,0,0,0,0,0,5.92,5.92,0,0,0-1.12,1.34q-.48.78-.89,1.53t-.71,1.4a4.15,4.15,0,0,1-.52.91,2.71,2.71,0,0,0-.2.41l-.37.82q-.21.45-.35.82a3.06,3.06,0,0,0-.15.41l.3-.37a2.71,2.71,0,0,0,.19-.28c0-.09.09-.13.11-.13l.26-.48q.19-.34.37-.73t.37-.74Q80.45,18.64,80.53,18.53ZM79,34.62a10.5,10.5,0,0,0,.56-1l.3-.63.15-.34a.49.49,0,0,1,.11-.17l0,0,0-.07c-.05,0,0-.07.07-.07l0-.07a1.85,1.85,0,0,0,.34-.41,1.05,1.05,0,0,0,.09-.24,1,1,0,0,0,0-.19.31.31,0,0,1,.11-.2,4,4,0,0,1,.28-.52l.63-1.12q.35-.63.71-1.23a6.38,6.38,0,0,0,.47-.89V27.4q-.3.56-.48.86t-.37.56q-.19.26-.26.26l0,.07a3.32,3.32,0,0,0-.47.71q-.21.41-.17.48a5.67,5.67,0,0,1-.34.71l-.45.8q-.22.39-.37.71a.79.79,0,0,0-.11.47c0,.05,0,.08,0,.09a.2.2,0,0,0-.07.09l-.11.11a0,0,0,0,0,0,0,.11.11,0,0,0,0,.07,4.58,4.58,0,0,0-.5.73.86.86,0,0,0-.09.28c0,.05,0,.07.06.06s.06,0,.06,0A.15.15,0,0,1,79,34.62ZM83.1,26.8a0,0,0,0,0,0,0q-.11,0-.19.3a1.09,1.09,0,0,0,0,.26.73.73,0,0,1,.09-.26A1,1,0,0,1,83.1,26.8Z" transform="translate(-4.34 -9.33)"/><path class="cls-1" d="M105.71,28.14a2.78,2.78,0,0,0,.3.78,4,4,0,0,0,.41.63l0,.07a.11.11,0,0,0,0,.07l0,0a.86.86,0,0,0,.19.54,4.19,4.19,0,0,0,.37.43.08.08,0,0,1,0,.06.07.07,0,0,0,0,.06.23.23,0,0,0,.06.11l.13.19a4,4,0,0,0,.45.95,5.53,5.53,0,0,0,.39.5,2.81,2.81,0,0,0,.28.28.27.27,0,0,1,.11.2.59.59,0,0,0,.13.26l.26.39A2.81,2.81,0,0,0,109,34c.09.1.13.16.13.19a.72.72,0,0,0,.19.39,4.72,4.72,0,0,0,.41.47l.39.39c.11.11.15.17.13.17a7.36,7.36,0,0,0,.47.69,10.53,10.53,0,0,0,.69.84q.37.41.71.74a1.26,1.26,0,0,0,.52.37,1,1,0,0,0,.2.3,3.35,3.35,0,0,0,.37.35l.37.28a.67.67,0,0,0,.2.11.64.64,0,0,1,.3.11,2.41,2.41,0,0,1,.35.26l.3.26c.09.07.13.12.13.15v0l0,0a.74.74,0,0,1,.32.11,3.78,3.78,0,0,1,.41.26l.37.26a.67.67,0,0,0,.2.11,0,0,0,0,0,0,0c.1,0,.15,0,.17,0a2.54,2.54,0,0,0,.54.22.72.72,0,0,1,.2.09,4.06,4.06,0,0,0,1.21.09A3.79,3.79,0,0,0,119.6,41a2.16,2.16,0,0,0,1-.78l.76-.5a5.31,5.31,0,0,0,.61-.47,2.52,2.52,0,0,0,.48-.56q.19,0,.28.26a1.55,1.55,0,0,1,.09.52,2,2,0,0,1-.45.88l-.41.5a2.44,2.44,0,0,1-.58.69,1.92,1.92,0,0,1-.5.28l-.43.17a.8.8,0,0,0-.35.35,1.24,1.24,0,0,0-.3.19l-.07,0a.11.11,0,0,1-.07,0s-.07,0-.28.15a7.69,7.69,0,0,1-.84.41,11.9,11.9,0,0,1-1.19.43,4.71,4.71,0,0,1-1.38.2.11.11,0,0,0,0-.07c-.05,0-.07,0-.07,0s0,0-.07,0-.06-.15-.19-.15l-.2,0-.32,0a1.48,1.48,0,0,1-.43-.07.9.9,0,0,1-.43-.3l-.09,0-.09,0a.87.87,0,0,1-.5-.17,1.18,1.18,0,0,0-.28-.17.11.11,0,0,1,0-.07.11.11,0,0,0,0-.07s0,0,0,0,0,0,0,0,0,0-.09,0-.12-.05-.09-.07l0,0q-.56-.37-.93-.58l-.58-.32-.28-.17a.16.16,0,0,1-.07-.13.07.07,0,0,1,0-.06.08.08,0,0,0,0-.06l-.06,0-.06,0a.6.6,0,0,1-.41-.17,3.38,3.38,0,0,1-.35-.37q-.17-.21-.28-.37l-.15-.2-.73-.69-.43-.43-.22-.22.07,0,0,0a44,44,0,0,0,.15.07.77.77,0,0,0-.15-.22l-.06,0-.06,0a25,25,0,0,1-2.2-2.87q-1-1.53-2-3.24l-.11-.11a.16.16,0,0,1,0-.07.16.16,0,0,0,0-.07l-.07,0q-.11,0-.19-.32c-.05-.21-.09-.32-.11-.32v0l-.3-.71a2.26,2.26,0,0,1-.09-.26.43.43,0,0,0-.07-.15l-.24-.37s0,0-.07-.06a.09.09,0,0,1-.07-.09.07.07,0,0,1,0-.06.08.08,0,0,0,0-.06c-.05,0-.08,0-.09-.13a1.46,1.46,0,0,1,0-.2,1.67,1.67,0,0,0-.39.6q-.2.45-.28.67a1.75,1.75,0,0,1-.35,1,1.46,1.46,0,0,0-.35.76,2.58,2.58,0,0,1-.26.88q-.22.47-.48,1.1a9.94,9.94,0,0,0-.47,1.51,9.16,9.16,0,0,0-.2,2.07q0,1.3.6,1.3a1,1,0,0,0,.67-.34l0,0a1.67,1.67,0,0,1-.22.93,1.72,1.72,0,0,1-.48.5,1.89,1.89,0,0,1-.71.24q-.63,0-.75-.15a.46.46,0,0,1-.11-.26v0a.15.15,0,0,1-.11,0c-.05-.05-.07-.09-.07-.11l0,0a2.59,2.59,0,0,0-.56-.34q-.45-.22-.45-.48a.07.07,0,0,1,0-.06.08.08,0,0,0,0-.06.7.7,0,0,1-.28-.43,3.74,3.74,0,0,1-.13-.65q0-.34-.06-.61c0-.19,0-.29,0-.32q0-.34,0-.82t0-1.08a6.15,6.15,0,0,1,.15-1.34,5.59,5.59,0,0,0,.15-1.19l0,0,0,0a1.43,1.43,0,0,0,.19-.26,1.31,1.31,0,0,0,.11-.63,0,0,0,0,1,0,0,1.1,1.1,0,0,0,.22-.69,4.44,4.44,0,0,1,.52-1.47l0-.07a0,0,0,0,1,0,0s.11-.12.19-.3.14-.31.19-.41a.17.17,0,0,0,0-.07.16.16,0,0,1,0-.07.29.29,0,0,1,0-.11l.07-.15.11-.19c.07,0,.11,0,.11-.15s0,0,0,0,0,0,0,0a2.48,2.48,0,0,1,.22-.74q.19-.41.41-.8t.41-.74a2.06,2.06,0,0,0,.22-.58,2.19,2.19,0,0,1,.24-.48,1.46,1.46,0,0,0,.2-.48l0,0h.07a0,0,0,0,0,0,0l0-.07a4.91,4.91,0,0,0,.52-.8,7.71,7.71,0,0,0,.37-.82l.24-.65c.06-.17.11-.26.13-.26v0s0-.07,0-.07.1-.07.15-.22.09-.22.11-.22v0a1.12,1.12,0,0,1,.15-.28,6.38,6.38,0,0,0,.37-.69l0-.07s0-.07.06-.06.12-.07.24-.24a.08.08,0,0,0,0-.06.07.07,0,0,1,0-.06.43.43,0,0,1,.13-.22.43.43,0,0,0,.13-.26l0,0a0,0,0,0,0,0,0l0-.07q.3-.45.47-.73l.47-.8,0-.07a0,0,0,0,1,0,0,1,1,0,0,0,.39-.73q0-.39.24-.39l0-.07s0-.06.06,0,0,0,.06-.15,0,0,0,0,0,0,0,0,.06-.07.09-.2a.65.65,0,0,1,.13-.28l0-.07s0,0,.07-.11a.4.4,0,0,1,.15-.19,0,0,0,0,0,0,0,1.54,1.54,0,0,0-.76.3l-1,.63q-.6.41-1.23.93l-.07,0-.3.32-.26.28a3.78,3.78,0,0,1-.43.35,8.79,8.79,0,0,1-.8.5l-.06,0-.06,0-.95.93-.95.93-.76.78-.43.45q-.45.63-.61.84a1.44,1.44,0,0,1-.28.28l-.11.19a6.45,6.45,0,0,0-.78.84,2.55,2.55,0,0,0-.35.61,2.16,2.16,0,0,0-.11.41.35.35,0,0,1-.06.19.66.66,0,0,0-.28.45q-.06.3-.06.34v-.07a2.67,2.67,0,0,0-.28.47,3.2,3.2,0,0,0-.2,1.36.45.45,0,0,0,.06.26.23.23,0,0,1,.06.11l0,0c0,.05,0,.07,0,.07s0,.1,0,.3a2.36,2.36,0,0,1-.15,1.1.42.42,0,0,1-.34.2.53.53,0,0,1-.32-.09,1.92,1.92,0,0,1-.24-.2,1,1,0,0,1-.22-.34.08.08,0,0,1,0-.06.07.07,0,0,0,0-.06.68.68,0,0,1-.32-.43q-.13-.35-.17-.35c0,.05,0,.07,0,.07a.71.71,0,0,1,0-.22q-.07-.19-.11-.15t-.13-.45l-.2-.73c-.07-.26-.14-.51-.19-.74a3,3,0,0,1-.07-.47q.15-.15.15-.11l0,0s0-.07,0-.07a0,0,0,0,0,0,0l0,0a0,0,0,0,1,0,0h0l0-.07,0,0,0,0a1.37,1.37,0,0,1,.09-.26,1,1,0,0,0,.09-.3s0,0,0,0,0,0,0-.06a1.9,1.9,0,0,0,.35-.76,1.59,1.59,0,0,1,.35-.73l.35-.63q.32-.56.71-1.21t.76-1.17q.37-.52.48-.52l0,0a0,0,0,0,0,0,0,0,0,0,0,1,0,0L97,18.38l.78-.78a4.26,4.26,0,0,0,.37-.41,0,0,0,0,0,0,0s0-.09.15-.19a3.22,3.22,0,0,0,.67-.41q.34-.26.61-.52t.47-.47l.26-.28a.58.58,0,0,0,.15-.11l.07,0s.07,0,.13-.11l.17-.19.06,0,.06,0a.43.43,0,0,0,.24-.09,1.92,1.92,0,0,0,.24-.2,1,1,0,0,0,.22-.34v0l.34-.19a2,2,0,0,0,.34-.22l0,0a.09.09,0,0,0,.09-.07s0-.07.06-.07l.32-.2.6-.35.58-.34a1.41,1.41,0,0,1,.3-.15,1,1,0,0,0,.43-.11,4.64,4.64,0,0,0,.48-.26l.43-.26a.81.81,0,0,1,.22-.11c0-.07.06-.11.19-.11a1.93,1.93,0,0,0,1.23-.35,3.28,3.28,0,0,1,.48-.35,1.8,1.8,0,0,0,.74-.17l.76-.37q.39-.2.8-.37a2.24,2.24,0,0,1,.86-.17s0,0,0,0,0,0,.06,0a3.26,3.26,0,0,1,1.23-.3,1.53,1.53,0,0,0,.71-.11l0,0a0,0,0,0,0,0,0s.07,0,.07,0a0,0,0,0,1,0,0l0,0a0,0,0,0,0,0,0s0-.07.13-.07h.28l.74,0q.52,0,1.06.11a7.67,7.67,0,0,1,.95.19q.41.11.41.26a1.17,1.17,0,0,1,.37.19,1.65,1.65,0,0,0,.34.19l0,0s0,0,0,0,0,0,0,0,0,0,.15,0a.67.67,0,0,1,.2.11l.35.26a5.87,5.87,0,0,1,.45.41v0a0,0,0,0,1,0,0q.19.19.43.48a6.21,6.21,0,0,0,.43.48s0,0,0,0,0,0,0,0,0,.06.15.11a.15.15,0,0,1,0,.09.15.15,0,0,0,0,.09,2.25,2.25,0,0,0,.2.76,3.7,3.7,0,0,1,.2,1.36,4.84,4.84,0,0,1-.5,2.12,10.33,10.33,0,0,1-1.25,2,16.37,16.37,0,0,1-1.6,1.73q-.86.8-1.6,1.38t-1.23.91a2.41,2.41,0,0,0-.45.34,1.6,1.6,0,0,0-.48.39.82.82,0,0,1-.56.32.7.7,0,0,0-.52.34q-.26.34-.41.34l-.06,0-.06,0a.89.89,0,0,1-.35.37l-.58.37-.78.41a0,0,0,0,1,0,0,.11.11,0,0,1-.07,0c0,.07,0,.11,0,.11l-.06,0-.06,0a.84.84,0,0,1-.34.35,3.44,3.44,0,0,1-1,.39H108l-.06,0-.06,0s0,.06-.07.11a.11.11,0,0,1-.07,0,3.62,3.62,0,0,1-.37.22l-.3.15a.57.57,0,0,1-.22.07,1.87,1.87,0,0,0-.45.19A2.41,2.41,0,0,0,105.71,28.14ZM94.12,23.22a.44.44,0,0,1,.06-.19.72.72,0,0,1,.13-.19.68.68,0,0,1,.19-.19.08.08,0,0,0,0-.06.08.08,0,0,1,0-.06s.06-.07.19-.15l.19-.19a.08.08,0,0,0,0-.06.08.08,0,0,1,0-.06.61.61,0,0,1,.13-.26,4.09,4.09,0,0,1,.3-.37l.3-.32c.09-.09.14-.13.17-.13a.15.15,0,0,1,0-.11q.67-.6.91-.86a2.83,2.83,0,0,0,.3-.35.32.32,0,0,0,.06-.13.77.77,0,0,1,.15-.22,11.42,11.42,0,0,1,2.09-2q.78-.5.71-.5a.61.61,0,0,0,.37-.22,1.6,1.6,0,0,0,.3-.37l.06,0,.06,0a.7.7,0,0,0,.28-.13,4.32,4.32,0,0,0,.41-.3l.54-.43s0,0,0-.06a.13.13,0,0,1,0-.09,3.72,3.72,0,0,1,.43-.24l.2-.09.17-.11.39-.3h.11a3.15,3.15,0,0,1,.82-.54q.34-.13.34-.17h0a.15.15,0,0,0,.09,0l.2-.2.07,0a.74.74,0,0,0,.3-.17.68.68,0,0,1,.37-.17l0,0a2.32,2.32,0,0,0,.45-.15,3.89,3.89,0,0,0,.5-.26,4.25,4.25,0,0,0,.43-.3c.12-.1.19-.17.19-.22a1,1,0,0,0-.63.22,1.09,1.09,0,0,1-.37.22v0l-1.92,1q-.69.34-.69.45l-.06,0-.06,0a.58.58,0,0,0-.11.15c0,.05-.09.07-.19.07a.74.74,0,0,0-.56.3c-.17.2-.25.3-.22.3l-.06,0-.06,0a9.91,9.91,0,0,1-1.27,1,1.64,1.64,0,0,1-.45.22l-.07,0-.15.17a.2.2,0,0,1-.15.09q-.22,0-.78.52T98.05,18.1l-1.12,1.19-.54.58a1.71,1.71,0,0,1-.34.37l-.22.19a.08.08,0,0,0,0,.06.08.08,0,0,1,0,.06,4.74,4.74,0,0,0-.78.91l-.34.54q-.15.26-.43.67a1.75,1.75,0,0,0-.32.67l0,0s0-.07,0-.07S94.12,23.27,94.12,23.22Zm5.18,8.57a7.94,7.94,0,0,1,.22-.78,8.62,8.62,0,0,1,.34-.86q.15-.45.37-1v0c0-.07,0-.16.07-.26s.12-.3.22-.3a.08.08,0,0,0,0-.06.07.07,0,0,1,0-.06,1.54,1.54,0,0,1,.34-.8,1.74,1.74,0,0,0,.34-.58.38.38,0,0,0,.07-.2.38.38,0,0,1,.07-.2l0,0s.11-.07.17-.2.12-.29.19-.47l.24-.67v0l0,0a0,0,0,0,0,0,0h.07l0-.07s0-.07.11-.07l0-.07a1.4,1.4,0,0,1,.28-.6,2,2,0,0,0,.24-.37l.69-1.4a2.88,2.88,0,0,0,.19-.45q0-.09.06-.11a2.32,2.32,0,0,0,.26-.43c0-.1,0-.14.07-.11s0,0,0-.15l0,0s0,0,0-.09a.37.37,0,0,1,0-.17q.86-1.64,1.71-3.22a37,37,0,0,0,1.6-3.37c-.05,0-.11.07-.19.2l-.24.45-.24.45a1.5,1.5,0,0,1-.15.24,2.76,2.76,0,0,1-.11.65.5.5,0,0,1-.17.26.32.32,0,0,1-.15.06.13.13,0,0,0-.09,0,.07.07,0,0,0,0,.06.08.08,0,0,1,0,.06q-1,1.9-1.47,2.7a9.58,9.58,0,0,0-.54.91.07.07,0,0,0,0,.06.08.08,0,0,1,0,.06l-.2.22-.17.22a.16.16,0,0,0,0,.07.17.17,0,0,1,0,.07c-.07,0-.14.06-.2.17l-.19.35a4.14,4.14,0,0,0-.2.52v0a0,0,0,0,1,0,0l0,0a.07.07,0,0,0,0,.06.08.08,0,0,1,0,.06,13.23,13.23,0,0,0-1.21,2.27q-.28.78-.35.78v0q-.48.89-1,2.07t-.93,2.35q-.43,1.17-.74,2.25a10.22,10.22,0,0,0-.39,1.86.17.17,0,0,0,.11.19,9,9,0,0,1,.34-1.43Q99,32.46,99.3,31.79Zm4.21-2.12q.37.82.61,1.32l.37.78a3.76,3.76,0,0,0,.28.5l0-.26a0,0,0,0,1,0,0,.7.7,0,0,0,0,.22s0,0,0,.11a.73.73,0,0,0,.28.52q.28.26.28.22a0,0,0,0,1,0,0,0,0,0,0,0,0,0,7.63,7.63,0,0,0,.58,1.08,11.63,11.63,0,0,0,.71,1q.35.45.91,1a16.28,16.28,0,0,0,1.71,2.07q.93.95,1.79,1.92H111a8.12,8.12,0,0,0,.76.69l.61.47a.9.9,0,0,0,.48.22s0-.07-.13-.15l-.28-.24a1.74,1.74,0,0,0-.28-.2c-.09-.05-.12-.07-.09-.07l-.19-.11a.89.89,0,0,1-.22-.22l-.07,0c-.05,0-.09,0-.11-.13a.83.83,0,0,1,0-.17l-.06,0-.06,0q-.11,0-.52-.39t-.86-.86q-.45-.47-.8-.91a1.61,1.61,0,0,1-.35-.56h0a4.11,4.11,0,0,0-.32-.6,1,1,0,0,0-.24-.26l-.22-.13a.61.61,0,0,1-.22-.24,4.4,4.4,0,0,1-.32-.47,2.32,2.32,0,0,1-.13-.26.42.42,0,0,0-.07-.13.41.41,0,0,0-.15-.07.08.08,0,0,1,0-.06.08.08,0,0,0,0-.06q-.75-.86-.95-1.14A1,1,0,0,1,106,34s0,0,.06,0,.06,0,.06-.07a5.47,5.47,0,0,1-.54-.67,1,1,0,0,1-.17-.34.07.07,0,0,1,0-.06.08.08,0,0,0,0-.06,7.41,7.41,0,0,0-.43-.67l-.24-.32a.48.48,0,0,0-.15-.13.11.11,0,0,1,0-.07.16.16,0,0,1,0-.07.17.17,0,0,0,0-.07,2.19,2.19,0,0,1-.35-.48q-.17-.3-.3-.58t-.22-.5a1.17,1.17,0,0,0-.13-.26.08.08,0,0,1,0-.06.08.08,0,0,0,0-.06.15.15,0,0,0-.11,0l-.13,0c-.06,0-.09.05-.09.07S103.46,29.67,103.51,29.67ZM105,26a14.94,14.94,0,0,1,1.23-1q.63-.45,1.17-.78l.89-.56a1.46,1.46,0,0,0,.39-.3A14,14,0,0,0,111,21.9q.74-.65.93-.65a9.29,9.29,0,0,0,1.9-1.49,3.08,3.08,0,0,1,.63-.63.65.65,0,0,0,.34-.19q.22-.19.45-.41a7.8,7.8,0,0,0,.56-.63l.37-.34.19-.2.15-.2a2.25,2.25,0,0,0,.19-.41l.13-.11c.06,0,.09-.09.09-.11s0,0-.07,0l-3.69,3.32a5,5,0,0,1-1.42,1.08l0,0a8.32,8.32,0,0,1-.84.67q-.43.3-.76.56l-.78.56-.06,0-.06,0q0,.15-.24.34a4.51,4.51,0,0,1-.54.35l-.54.32c-.16.1-.24.16-.24.19h0a0,0,0,0,1,0,0,.29.29,0,0,0-.13.07l-.2.17-.26.24-.06,0-.06,0a10.13,10.13,0,0,1-.86.74l-.37.26-.2.13a3.34,3.34,0,0,0-.35.28l0,0a.11.11,0,0,1-.07,0,.79.79,0,0,1-.19.15.57.57,0,0,1-.15.11.15.15,0,0,0,0,.11l.07.07A.21.21,0,0,0,105,26Zm.3-1.38q.19-.19.43-.39a1.84,1.84,0,0,0,.32-.32l.06,0,.06,0,0,0,0-.07s0,0,.07,0h.07q.45-.41.91-.78l.86-.67.65-.48a1.3,1.3,0,0,1,.3-.19l0,0,.07,0a1.65,1.65,0,0,0,.34-.22l.26-.26.07,0a.88.88,0,0,0,.24-.15,4.8,4.8,0,0,0,.41-.34l.37-.34c.11-.1.18-.15.2-.15l-.07,0a9.33,9.33,0,0,0,1.6-1.15q.45-.45.52-.45l.43-.35.43-.32,0,0q.74-.63,1.19-1.06t.71-.73a2.8,2.8,0,0,0,.41-.48q.26-.41.47-.67c.14-.17.22-.26.24-.26l0,0a3.23,3.23,0,0,0,.43-.76q.13-.35.24-.76a5.07,5.07,0,0,0-1.15-.45,5.39,5.39,0,0,0-1.3-.15,14.41,14.41,0,0,0-1.86.11,2.58,2.58,0,0,0-1,.22,2.61,2.61,0,0,0-1.23.24,1.7,1.7,0,0,1-.6.24,1.2,1.2,0,0,1-.43.13.68.68,0,0,0-.35.13V15a4.19,4.19,0,0,1-.24,1q-.2.58-.45,1.14l-.43,1a2,2,0,0,0-.19.54.77.77,0,0,1-.11.35q-.11.2-.24.41l-.35.54,0,0a.15.15,0,0,1,0,.11.11.11,0,0,0,0,.07.11.11,0,0,0,0,.07c-.07,0-.11,0-.11,0a.07.07,0,0,0,0,.06.08.08,0,0,1,0,.06.16.16,0,0,0-.13.09,1.91,1.91,0,0,0-.11.22c0,.09-.08.2-.13.35v0l0-.07a1.52,1.52,0,0,1-.22.5q-.22.39-.5.93t-.61,1.15a11,11,0,0,0-.56,1.17l0,0ZM108.17,12a2.05,2.05,0,0,0,.47-.13l1.19-.39,1.21-.41q.56-.19.56-.26h0l-.13,0a.46.46,0,0,1-.17,0,.11.11,0,0,1-.07,0,.76.76,0,0,1-.35.22,1.45,1.45,0,0,1-.32,0h-.19a.11.11,0,0,1-.07,0,2.51,2.51,0,0,0-.69.13q-.43.13-.86.3a7.2,7.2,0,0,0-.74.34,2,2,0,0,0-.39.24.56.56,0,0,0,.22.07A.5.5,0,0,0,108.17,12Z" transform="translate(-4.34 -9.33)"/><path class="cls-1" d="M128.76,26.84l0,0,0,0a1.28,1.28,0,0,0-.39.26.65.65,0,0,0-.13.24l-.07.28a.78.78,0,0,1-.22.34l-.15.39a.44.44,0,0,1-.09.15l-.17.2a4.56,4.56,0,0,0-.34.6,1.72,1.72,0,0,0-.34.26,2.18,2.18,0,0,0-.2.34.9.9,0,0,0-.09.41c0,.2,0,.3,0,.3l-.13,0a.73.73,0,0,0-.24.22,3.27,3.27,0,0,0-.37.82,2.6,2.6,0,0,0-.37.43.46.46,0,0,0-.07.2.4.4,0,0,0,0,.13.42.42,0,0,1,0,.13v0s-.09.09-.19.28l-.32.61a5.75,5.75,0,0,1-.35.61c-.12.19-.22.28-.3.28a1.21,1.21,0,0,1-.2.45,4.74,4.74,0,0,1-.5.67,5.13,5.13,0,0,1-.65.61,1.06,1.06,0,0,1-.61.28.92.92,0,0,1-.6-.34l-.71-.71a2.84,2.84,0,0,1-.48-.45,2.74,2.74,0,0,1-.32-.37.59.59,0,0,1-.13-.26.11.11,0,0,1,0-.07,0,0,0,0,1,0,0,.22.22,0,0,1-.19-.11c-.12-.07-.19-.27-.19-.6l0,0q0-.11-.07-.26a1.34,1.34,0,0,1-.06-.26q0-.15-.06-.34,0-.6,0-1.06a3.71,3.71,0,0,1,.17-.95,2.6,2.6,0,0,0-.43.32,5.35,5.35,0,0,0-.91,1.06h0l0,0q0,.08-.32.37l-.43.41c0,.1,0,.15,0,.15l-.07,0v.07s-.06.05-.11.15a1.58,1.58,0,0,1-.24.34,1.7,1.7,0,0,1-.43.34,1.26,1.26,0,0,1-.63.15,1.08,1.08,0,0,1-.86-.39l-1-1.14s0,0-.15-.13-.14-.17-.11-.17,0-.1-.07-.07-.11,0-.19-.06a.78.78,0,0,1-.19-.41,5.51,5.51,0,0,1-.07-1.1,1.2,1.2,0,0,1,.13-.58,1.11,1.11,0,0,0,.13-.54l0,0a.86.86,0,0,1,.26-.52,1,1,0,0,0,.26-.67.8.8,0,0,1,0-.13c0-.06,0-.09.09-.09l0-.07,0,0,0,0q.08,0,.26-.43a2.06,2.06,0,0,1,.3-.54s0,0,0,0,0,0,0,0a1,1,0,0,1,.15-.26,1.28,1.28,0,0,1,.24-.32l.47-.47a6.82,6.82,0,0,1,.52-.47l.56-.45.45-.35c.12-.1.19-.16.19-.19l.07,0s.06,0,0,0,0,0,.11,0l0,0h.11v-.07a.11.11,0,0,1,.07,0l.07-.07.07-.07a.11.11,0,0,1,.07,0l.54-.13a3.68,3.68,0,0,1,.91-.13,3.55,3.55,0,0,1,.82.07l.6.15v0a1,1,0,0,1,.26.17.79.79,0,0,0,.48.17.11.11,0,0,0,.07,0,.13.13,0,0,0,.15.15.11.11,0,0,0,.07,0,.63.63,0,0,0,.2.13.66.66,0,0,1,.2.13q.19,0,.35-.32a.49.49,0,0,1,.43-.32l.26.07.5.19a4.4,4.4,0,0,1,.54.26,1,1,0,0,1,.34.26,3.71,3.71,0,0,0,.45.22.41.41,0,0,1,.26.41.67.67,0,0,1-.13.32l-.26.41-.26.39a.58.58,0,0,0-.13.3l-.34.54a3.85,3.85,0,0,0-.26.5,1.13,1.13,0,0,0-.11.41.11.11,0,0,0,0,.07q-.15,0-.34.71v0a2.33,2.33,0,0,1-.15.47l-.34.88-.48,1.23v.07l0,.37a0,0,0,0,1,0,0,3.23,3.23,0,0,0-.15.67,2.63,2.63,0,0,1-.15.63,0,0,0,0,0,0,0s0-.07.11-.13l.15-.13a.11.11,0,0,0,0-.07s0,0,.07-.07l.11-.07,0-.07s0-.07.15-.13.14-.09.11-.09a0,0,0,0,0,0,0,0,0,0,0,1,0,0,.45.45,0,0,1,.11-.22,6.17,6.17,0,0,1,.48-.52l0-.07,0,0h0s.1-.14.3-.26a.58.58,0,0,0,.3-.52c0-.1,0-.15.06-.15a.2.2,0,0,0,.13-.07l0,0a1.25,1.25,0,0,1,0-.24.48.48,0,0,1,.11-.2,2.82,2.82,0,0,1,.28-.28l.52-.5,0-.07,0,0,0,0a1.22,1.22,0,0,1,.22-.37l.37-.35q.26-.24.69-.73a16.32,16.32,0,0,0,1.1-1.45s.12-.09.2-.26.3-.26.65-.26a.46.46,0,0,1,.22.11c.1.07.15.14.15.19a.81.81,0,0,1,0,.2A1.16,1.16,0,0,0,128.76,26.84Zm-12.4-.11a13.42,13.42,0,0,1,1.14-1,12.4,12.4,0,0,0,1.06-.95,1,1,0,0,0-.56.17q-.26.17-.78.58-.22.22-.3.22s0,0,0,0,0,0,0,0a.15.15,0,0,0-.09.06,2.16,2.16,0,0,0-.19.24l-.37.54q-.24.35-.61.95c-.05,0-.07,0-.07,0l0,0a1,1,0,0,0-.19.22.44.44,0,0,1-.07.11.11.11,0,0,0,0,.07,0,0,0,0,1,0,0l0,0a.11.11,0,0,0,0,.07h-.07c0,.12,0,.17,0,.13s0,0,0,0l0,.07a0,0,0,0,1,0,0s-.07,0-.06.07a.09.09,0,0,1-.06.11l0,.07s-.07,0-.07.11-.11.29-.32.5a1.87,1.87,0,0,0-.32,1.29q.19-.26.3-.45a2.47,2.47,0,0,0,.2-.45,1.44,1.44,0,0,0,.09-.48v0a0,0,0,0,1,0,0,1.27,1.27,0,0,1,.22-.47,8.34,8.34,0,0,1,.5-.71l.5-.65a1.08,1.08,0,0,0,.22-.37Zm4.32,1a.06.06,0,0,1,0-.06.06.06,0,0,0,0-.06.11.11,0,0,0,0-.07q-.6.71-1.25,1.42a12.07,12.07,0,0,1-1.25,1.19q-.48.37-.86.71l-.56.56q-.26.26-.26.34l0,0a5.22,5.22,0,0,0,.56-.48,4.19,4.19,0,0,1,.52-.45l.43-.43.13-.11.35-.34,1.1-1.1,0-.07c0-.07.06-.15.17-.24l.35-.28.35-.3A.4.4,0,0,0,120.68,27.73Zm.3-1,.32-.32a1.61,1.61,0,0,0,.24-.32,2.27,2.27,0,0,0-.67.07,1.65,1.65,0,0,0-.39.19l-.28.19a.61.61,0,0,1-.34.07s0,.05-.15.15l-.41.34-.45.37a1.2,1.2,0,0,0-.26.26h.07s-.07.07-.2.13a.3.3,0,0,0-.2.28l0,.07a3.14,3.14,0,0,0-.45.52,7.11,7.11,0,0,0-.37.86q-.08,0-.34.35a1.26,1.26,0,0,0-.26.76,0,0,0,0,0,0,0,2.82,2.82,0,0,0,.45-.3,8.14,8.14,0,0,0,.93-.82l0-.07s.08-.1.24-.22l.28-.22a.11.11,0,0,0,0-.07,0,0,0,0,1,0,0,9,9,0,0,1,1.08-1.12A9.73,9.73,0,0,0,121,26.73Zm.07,2.57a.11.11,0,0,1,0-.07.15.15,0,0,0,0-.11.11.11,0,0,0,0-.07,1.53,1.53,0,0,0-.24.45,1.3,1.3,0,0,0-.09.37l0,0a2.09,2.09,0,0,1,.17-.34A.52.52,0,0,0,121.05,29.3Zm7.15-2.76a0,0,0,0,0,0,0,.26.26,0,0,0-.17.09l-.17.17q-.37.26-.5.37a.92.92,0,0,0-.2.24l-.17.3a3.61,3.61,0,0,1-.43.54v0a.11.11,0,0,0,0,.07,1,1,0,0,1-.17.39,4.89,4.89,0,0,1-.69.8c0,.05-.06.13-.17.24s-.17.19-.17.24l0,0,0,0a0,0,0,0,1,0,0l-.3.37-.2.28a.4.4,0,0,0-.09.2l0,.07q-.08,0-.28.19a2.61,2.61,0,0,0-.47,1l-.15.15,0,.07a0,0,0,0,0,0,0s-.07.07-.13.2a1.34,1.34,0,0,1-.28.39.76.76,0,0,1-.17.39,4.42,4.42,0,0,1-.39.48,6.06,6.06,0,0,0-.39.47.73.73,0,0,0-.17.3c0,.07,0,.11,0,.11a.66.66,0,0,0,.3-.19,4.32,4.32,0,0,0,.37-.45,6.14,6.14,0,0,0,.52-.89h0a.82.82,0,0,1,.15-.34l.17-.22q.09-.11.17-.11a.11.11,0,0,0,0-.07q-.08,0,.52-.89l1.56-2.27q.11-.11.28-.32l.34-.43A4.76,4.76,0,0,0,127,28a.78.78,0,0,0,.13-.34s.09-.07.28-.3S127.86,26.89,128.21,26.54Z" transform="translate(-4.34 -9.33)"/><path class="cls-1" d="M142.58,25.83l-.09.13-.06.09-.11.24-.22.54H142l0,0s-.07.09-.22.2a.55.55,0,0,0-.22.47q-.63,1.16-1.08,2t-.91,1.75q-.47.88-1,1.86t-1.38,2.33l-.3.54a5.88,5.88,0,0,1-.58.82,4.79,4.79,0,0,1-.76.74,1.38,1.38,0,0,1-.86.32,2.4,2.4,0,0,1-.61-.11,1,1,0,0,1-.58-.41l-.5-.32a1.64,1.64,0,0,1-.35-.3.52.52,0,0,1-.15-.35,5,5,0,0,0-.11-1.12,4.63,4.63,0,0,1-.11-1c0-.12,0-.26,0-.41s0-.31.06-.48c0,0,0-.06.07-.24s.11-.4.19-.63l.2-.65q.09-.3.13-.3s0-.06-.07-.11a6.32,6.32,0,0,0,.3-.75l.56-1.51q.3-.8.6-1.47t.45-.67a.17.17,0,0,0,0-.07.25.25,0,0,1,0-.11q.19,0,.37-.52a6.91,6.91,0,0,0-.86.86l-.65.82-.86,1.08q-.5.63-1.43,1.64-.45.82-.91,1.83t-.91,2.2a1,1,0,0,0-.11.28,3.33,3.33,0,0,1-.2.5,1.57,1.57,0,0,1-.39.48,1,1,0,0,1-.67.22l-.3,0a.47.47,0,0,1-.22-.11l-.3-.22-.52-.35s0,0,0,0,0,0,0,0-.28-.1-.47-.3a2.65,2.65,0,0,1-.32-.37l-.11-.06s0-.07-.07-.19a5.31,5.31,0,0,1-.07-.56q0-.39-.07-1.17l0,0a.06.06,0,0,0,0-.06.06.06,0,0,1,0-.06s0,0,0,0,0,0,0-.06l-.07-.07a.65.65,0,0,1,.11-.26.65.65,0,0,0,.11-.26,0,0,0,0,1,0,0l0-.07s0,0,0,0,0,0,0-.06a.06.06,0,0,0,0-.06.06.06,0,0,1,0-.06,2.72,2.72,0,0,0,.19-.67q0-.3.09-.6t.17-.69a5.07,5.07,0,0,1,.41-.95.3.3,0,0,0,0-.09.31.31,0,0,1,0-.09c0-.07,0-.11,0-.11h0s0,0,0,0,0,0,0-.07a5.84,5.84,0,0,1,.34-.95l.41-.91a.07.07,0,0,1-.07-.07q.19,0,.47-.88l.69-2.16q.41-1.29,1-2.74a15.43,15.43,0,0,1,1.3-2.64,2.81,2.81,0,0,1,.22-.56l.5-1.06.52-1.06q.24-.48.32-.6l0-.07.3-.73q.22-.54.5-1.12t.54-1q.26-.45.45-.45a.17.17,0,0,0,0-.07.16.16,0,0,1,0-.07c0-.07,0-.1,0-.07s.06,0,.11,0a.08.08,0,0,0,0-.06.07.07,0,0,1,0-.06l.26-.26a1,1,0,0,1,.74-.3,3.39,3.39,0,0,1,1,.17,5.12,5.12,0,0,1,.95.41,3.16,3.16,0,0,1,.67.48.67.67,0,0,1,.24.39.08.08,0,0,1,0,.06.08.08,0,0,0,0,.06.28.28,0,0,0,0,.11,1,1,0,0,1,.07.45s-.09.06-.28.34-.42.64-.69,1.1l-.89,1.49q-.48.8-.86,1.45l-.6,1c-.15.25-.2.32-.15.22a2.16,2.16,0,0,1-.19.22.3.3,0,0,0-.07.22.07.07,0,0,1,.07.07,2.59,2.59,0,0,0-.32.58L133.33,21q-.47.95-1,2.18t-1.17,2.55q-.6,1.32-1.15,2.68t-1,2.51l.34-.39a1.8,1.8,0,0,0,.2-.3l.24-.41q.15-.24.41-.73l0,0a1.68,1.68,0,0,1,.19-.34q.19-.3.43-.61t.47-.58c.15-.17.24-.26.26-.26h0v-.07q.22-.3.54-.65t.61-.65a.11.11,0,0,1,0-.07.82.82,0,0,1,.17-.19l.17-.15.47-.6q.32-.41.69-.82a6.92,6.92,0,0,1,.76-.73,1.19,1.19,0,0,1,.73-.32h.26a.52.52,0,0,1,.34.19l.11,0a1,1,0,0,1,.24.13,3.27,3.27,0,0,1,.45.39,9.39,9.39,0,0,1,.69.8c0,.07,0,.11,0,.09s0,0,0,.06a.11.11,0,0,1,0,.07s.11.14.19.43a2.82,2.82,0,0,1,.11.61l0,0a.11.11,0,0,0,0,.07h0l0,0,0,0a0,0,0,0,0,0,0h0l0,0c0,.12,0,.19-.07.19a0,0,0,0,0,0,0h0a.11.11,0,0,1,0,.07h0c0,.05,0,.07,0,.06s0,0,0,0a.15.15,0,0,0,0,.11.26.26,0,0,1,0,.11.25.25,0,0,0,0,.11.16.16,0,0,0,0,.07.27.27,0,0,1,0,.11,1.63,1.63,0,0,1-.09.35,1.81,1.81,0,0,0-.09.58h0v.28a.82.82,0,0,1,0,.15,1.4,1.4,0,0,1-.09.26,4.51,4.51,0,0,0-.19.58q-.48,1.08-.58,1.36t-.11.35a2.1,2.1,0,0,1-.11.28l-.54,1.17-.3.95q-.15.47-.26.95a4.48,4.48,0,0,0,.48-.48,5,5,0,0,0,.39-.45l.39-.48a.33.33,0,0,0,.09-.19q0-.11.06-.28a1,1,0,0,1,.19-.37,3.46,3.46,0,0,1,.48-.5,30,30,0,0,1,1.66-2.89q.8-1.21,1.29-2.07v.07s.07-.06.13-.19l.22-.43a2.84,2.84,0,0,1,.28-.43.43.43,0,0,1,.34-.19,3.79,3.79,0,0,1,.6.07Q142.58,25.61,142.58,25.83Zm-16.13,7.38q.15-.78.41-1.69a15.64,15.64,0,0,0,.37-1.55,2.89,2.89,0,0,1,.11-.69q.11-.43.24-.84t.24-.71a2.21,2.21,0,0,0,.11-.34,1.53,1.53,0,0,1,.07-.26q.07-.22.15-.5a5.08,5.08,0,0,1,.17-.52,1,1,0,0,1,.17-.32,1.52,1.52,0,0,1,.09-.47l.2-.6q.11-.32.22-.58a2.33,2.33,0,0,0,.15-.45,1.47,1.47,0,0,0,.2-.35l.28-.58q.15-.3.24-.54A1.59,1.59,0,0,0,130,22a1.81,1.81,0,0,1,.13-.41q.13-.34.3-.69l.32-.67a2.14,2.14,0,0,0,.15-.35s.17-.34.45-.93l.89-2q.48-1.06.93-1.94a3.21,3.21,0,0,1,.52-.88,1.64,1.64,0,0,1,.15-.58.44.44,0,0,0,.07-.28l.41-.65.41-.65a.15.15,0,0,1,0-.11.15.15,0,0,0,0-.11l0,0s.1-.07.15-.2a1,1,0,0,0,.07-.28s0,0-.11-.07a.11.11,0,0,1-.07,0s-.06.06-.11.17l-.19.39-.22.43a.78.78,0,0,1-.22.28,3,3,0,0,1-.15.47c-.05.11-.07.16-.07.13a.07.07,0,0,0,0,.06.08.08,0,0,1,0,.06q-.52.86-1,1.94t-1,2.22l-1,2.22q-.47,1.08-.84,1.9a1.77,1.77,0,0,1-.17.37l-.24.39a6.06,6.06,0,0,0-.34.65q-.19.41-.45,1.15-.08.22-.28.74l-.43,1.12q-.22.6-.43,1.17a4.35,4.35,0,0,0-.24.91.25.25,0,0,0,0,.11.17.17,0,0,1,0,.07.11.11,0,0,1,0,.07h0a7.56,7.56,0,0,0-.39,1.06q-.17.58-.32,1.17t-.26,1.15a9,9,0,0,0-.15,1c0,.12,0,.26,0,.39S126.4,33.21,126.45,33.21Zm6-6.26.73-.61a5.17,5.17,0,0,0,.52-.52.81.81,0,0,0,.24-.5q-.22,0-.61.47l-1,1.21a.11.11,0,0,1,0,.07c-.07,0-.14.06-.19.17a3,3,0,0,0-.11.28,1.62,1.62,0,0,1,.24-.26l.28-.26C132.49,27,132.45,27,132.45,26.95ZM135,28.33a1.38,1.38,0,0,1-.07.35,5.11,5.11,0,0,1-.19.5l-.2.48a1,1,0,0,1-.17.3q-.34,1-.71,2a6.76,6.76,0,0,0-.45,2.09,11,11,0,0,1,.56-1.62q.37-.87.67-1.62a3.86,3.86,0,0,0,.22-.93,3.24,3.24,0,0,1,.19-.82l0,0,.37-.82a3,3,0,0,1,.17-.35,3.2,3.2,0,0,0,.17-.35l.74-1.49a.67.67,0,0,0-.34-.11,1.21,1.21,0,0,0-.07.3.07.07,0,0,0,0,.06.08.08,0,0,1,0,.06,6.91,6.91,0,0,1-.39.91A11,11,0,0,1,135,28.33Zm2.68,4.13c.1-.1.15-.17.15-.22a3,3,0,0,1,.26-.6l-.3.41v0a1.69,1.69,0,0,1-.26.47,12.16,12.16,0,0,0-.78,1.58.6.6,0,0,1-.19.22.47.47,0,0,0-.15.13,3.93,3.93,0,0,0-.24.37q-.17.28-.5.95a0,0,0,0,0,0,0q.15,0,.34-.32t.56-1.06q.19-.07.3-.58A3.9,3.9,0,0,1,137.7,32.46ZM139,30.19l-.17.24a.4.4,0,0,0-.09.2.7.7,0,0,0,.13-.19,2,2,0,0,1,.13-.22Zm2.09-3.58a.15.15,0,0,1,0-.11.33.33,0,0,1,0-.15,2.88,2.88,0,0,0-.39.47,2.74,2.74,0,0,0-.22.43c-.06.15-.12.31-.19.48a5,5,0,0,1-.32.67l.47-.73q.24-.39.5-.91s0,0,.06,0,0,0,0-.06Z" transform="translate(-4.34 -9.33)"/><path class="cls-1" d="M147.69,23.3a1.86,1.86,0,0,1,.69-.09q.58,0,1.25,0l1.27,0,.78,0a2.68,2.68,0,0,1,.56.07,3.15,3.15,0,0,1,.65.22,2.53,2.53,0,0,1,.52.32.47.47,0,0,1,.2.35q0,.19-.41.32a7.07,7.07,0,0,1-.95.22q-.54.09-1,.13l-.65,0a7.26,7.26,0,0,0-.91.11,7.37,7.37,0,0,1-1.14.11.11.11,0,0,0,0,.07,1.84,1.84,0,0,0,.11.56,4.11,4.11,0,0,1,.11,1.15,4.54,4.54,0,0,1-.07,1.12.85.85,0,0,0-.07.26.25.25,0,0,0,0,.11.27.27,0,0,1,0,.11.86.86,0,0,1-.07.26l-.17.39q-.09.21-.17.41a1.25,1.25,0,0,0-.07.24,0,0,0,0,0,0,0l0,0a4.62,4.62,0,0,0-.26.52.7.7,0,0,0,0,.22.07.07,0,0,0,0,.06.08.08,0,0,1,0,.06,2.09,2.09,0,0,0-.52.65,1.45,1.45,0,0,0,0,.32l-.22.3a1.09,1.09,0,0,0-.22.37.11.11,0,0,0,0,.07l0,0,0,0a8.76,8.76,0,0,1-.58,1.12,5.1,5.1,0,0,1-.37.52.82.82,0,0,1-.2.19.15.15,0,0,0-.07.15s0,0,0,0,0,0,0,0a1.35,1.35,0,0,1-.3.78,5.41,5.41,0,0,1-.65.74,9.18,9.18,0,0,1-1,.78l.07,0h0c-.05,0-.17.11-.37.32a1.72,1.72,0,0,1-1.23.32,1.38,1.38,0,0,1-1.17-.47q-.35-.47-.73-.88s0,0-.07,0a.07.07,0,0,1-.07-.07.11.11,0,0,1,0-.07q-.34-.34-.71-.76t-.34-.5c.05,0,.07,0,.07-.11s-.15-.24-.22-.56a4.63,4.63,0,0,1-.11-1,6.54,6.54,0,0,1,.11-1.36,4,4,0,0,1,.24-.78,3.51,3.51,0,0,1,.24-.45.63.63,0,0,0,.11-.35.09.09,0,0,1,.06-.09.23.23,0,0,0,.09-.06s0,0,0,0,0,0,0,0a2.11,2.11,0,0,1,.11-.26.92.92,0,0,1,.11-.19.11.11,0,0,0,0-.07.08.08,0,0,0,0-.06.08.08,0,0,1,0-.06.84.84,0,0,1,.28-.52c.19-.2.27-.3.24-.3a4.58,4.58,0,0,1,.56-1.4,11.42,11.42,0,0,1,1.94-2.48,4.22,4.22,0,0,1,.37-.54,3.47,3.47,0,0,1,.47-.48q.24-.2.43-.34a.77.77,0,0,1,.22-.13,1.77,1.77,0,0,1,.63-.48c.12,0,.19-.06.19-.11l.22-.13a.89.89,0,0,1,.37-.06,2,2,0,0,1,.88.13,1,1,0,0,1,.34.26l.17.26c0,.09.17.13.37.13a.08.08,0,0,1,0,.06.08.08,0,0,0,0,.06l.15.22A.66.66,0,0,0,147.69,23.3Zm-5.07,2.83a.13.13,0,0,1,.06-.11.17.17,0,0,0,.06-.15l.78-.8q.19-.2.19-.28l0,0h0s0-.06.07-.11l1.38-1.38a2,2,0,0,1,.37-.34s0,.06-.07.11l-.07.07a1.35,1.35,0,0,1,.28-.3c.19-.17.3-.26.35-.26h0s0,0-.07,0a.54.54,0,0,0-.39.17q-.17.17-.24.17v0a.79.79,0,0,0-.35.22q-.13.15-.17.15v0s-.09.1-.28.37-.4.57-.65.89-.49.62-.73.89-.39.41-.47.41a2,2,0,0,1-.32.58l-.2.2q-.45.71-.65,1.12l-.32.65-.17.37a.77.77,0,0,1-.17.24.12.12,0,0,1-.07.11c-.05,0-.07.05-.07.07a.16.16,0,0,0,0,.07.17.17,0,0,1,0,.07,1.63,1.63,0,0,0-.34.47l-.19.43a1.42,1.42,0,0,0-.07.45v0a.12.12,0,0,0,.07.11,19.14,19.14,0,0,1,1.1-2.38A18.67,18.67,0,0,1,142.62,26.13Zm-.67,8.75s.07,0,.06,0,0,0,0-.06l.06,0,.06,0a.57.57,0,0,0,.35-.13,1.48,1.48,0,0,0,.28-.28,2.44,2.44,0,0,0,.22-.37q.41-.41.58-.61c.11-.14.19-.24.24-.32a.36.36,0,0,0,.07-.17.2.2,0,0,1,.07-.13q.74-1.12,1-1.45t.3-.34a.08.08,0,0,1,0,.06.08.08,0,0,0,0,.06.11.11,0,0,0,0,.07l0,0a.67.67,0,0,1,.13-.32l.26-.39.26-.35a.51.51,0,0,0,.13-.24l0,0a1,1,0,0,1,.22-.6,1.61,1.61,0,0,0,.22-.34c-.05,0-.06,0,0,0s0,0,0,0a5,5,0,0,1-.48.88q-.34.5-.67,1t-.58.84a1.57,1.57,0,0,0-.24.45,1.31,1.31,0,0,1-.39.54q-.17.09-.17.17l0,.07-1.08,1.08-.63.61a2.81,2.81,0,0,0-.28.28.23.23,0,0,0-.06.11.11.11,0,0,1,0,.07,0,0,0,0,0,0,0,.11.11,0,0,0,.07,0A.11.11,0,0,1,141.95,34.88Zm.71-1.9q0-.15.28-.45l.58-.6a.08.08,0,0,0,0-.06.07.07,0,0,1,0-.06s.07-.15.2-.32l.47-.52q.26-.28.47-.54a.89.89,0,0,0,.2-.34,0,0,0,0,0,0,0,.21.21,0,0,1,.07-.15.58.58,0,0,1,.15-.11.08.08,0,0,0,0-.06.07.07,0,0,1,0-.06.65.65,0,0,1,.3-.6.51.51,0,0,0,.3-.41q.41-1,.6-1.55a4.76,4.76,0,0,0,.19-.65,2.18,2.18,0,0,1,0-.39,2.21,2.21,0,0,0,0-.39c0-.07,0-.19,0-.34s0-.22-.09-.22-.17.08-.3.24a3.93,3.93,0,0,0-.35.56l-.3.56c-.09.16-.14.24-.17.24v0a.49.49,0,0,1-.11.3,2.44,2.44,0,0,1-.22.26l-.3.3,0,0v.07a.91.91,0,0,1-.19.34q-.19.26-.22.26a.07.07,0,0,0,0,.06.08.08,0,0,1,0,.06.7.7,0,0,0-.13.19.71.71,0,0,1-.13.19l-.15.22a0,0,0,0,1,0,0l0,0a.07.07,0,0,0,0,.06.08.08,0,0,1,0,.06,3.43,3.43,0,0,0-.73.91,1.42,1.42,0,0,0-.13.5v.15a1.57,1.57,0,0,1-.13.52,6.24,6.24,0,0,1-.3.65q-.17.32-.39.8s0,0,0,.11a.79.79,0,0,1-.15.56.73.73,0,0,0-.15.52c0,.07,0,.11.07.11a3.62,3.62,0,0,1,.74-.86Z" transform="translate(-4.34 -9.33)"/><path class="cls-1" d="M152.94,38.74a2.67,2.67,0,0,1,0-.45,6.21,6.21,0,0,1,0-.63q0-.33.11-.62a1.2,1.2,0,0,1,.16-.42.21.21,0,0,1,.07-.26.56.56,0,0,1,.28-.14.64.64,0,0,1,.44.14,2.67,2.67,0,0,1,.48.41,3.77,3.77,0,0,1,.41.52,1.26,1.26,0,0,1,.2.42,1.41,1.41,0,0,1-.11.49q-.13.38-.3.82t-.34.79c-.11.23-.19.35-.24.36a.86.86,0,0,1-.36,0,1.63,1.63,0,0,0-.37-.05.69.69,0,0,1-.33-.38,3.34,3.34,0,0,1-.12-.49l0-.24A.43.43,0,0,1,152.94,38.74Zm.19-6.22a3.76,3.76,0,0,1,0-.5,2,2,0,0,1,0-.48,1.24,1.24,0,0,1,0-.88,3.15,3.15,0,0,0,.14-.91l0-.23a.88.88,0,0,1,0-.25.62.62,0,0,1,.09-.26,1.66,1.66,0,0,1,.06-.31l.15-.59.22-.87q-.29,0-.34-.21c0-.15,0-.23.15-.25h0a.33.33,0,0,0,.11-.15c0-.07.06-.1.11-.11l.15,0,.13-.27.13-.27V26l0,0a.3.3,0,0,0,0-.23l0,0v0a2.76,2.76,0,0,1,.17-.8q.19-.65.5-1.55t.68-2l.72-2.06q.35-1,.61-1.8t.36-1.15a1.46,1.46,0,0,1,.13-.36,3.81,3.81,0,0,0,.17-.37.59.59,0,0,0,.05-.25.58.58,0,0,1,.05-.25.36.36,0,0,1,.25-.12.5.5,0,0,1,.26,0,3.27,3.27,0,0,1,1,.08,2.88,2.88,0,0,1,.85.45c.11.08.17.14.18.16s0,0,0,0,0,0,0,0,0,.26,0,.4a2.05,2.05,0,0,1,0,.4l-.15.23-.24.4q-.12.21-.2.39a.55.55,0,0,0-.07.26.11.11,0,0,0-.07,0l-.31.39,0,.12a.07.07,0,0,1-.06.09,10.27,10.27,0,0,1-.35,1q-.28.72-.6,1.51t-.56,1.45a2.6,2.6,0,0,0-.21.81q-.15.44-.35,1a6.9,6.9,0,0,0-.3,1,.86.86,0,0,0-.24.61,1,1,0,0,1-.23.64,1.32,1.32,0,0,1,0,.38q-.05.27-.13.57t-.19.58a1.85,1.85,0,0,1-.17.37,1.47,1.47,0,0,1-.12.62l-.07,0h.07c-.06.11-.11.22-.15.33a.62.62,0,0,0,0,.35v0a.43.43,0,0,0,0,.31l-.26.83a1.88,1.88,0,0,0-.11.81v0l0-.08v.07a1,1,0,0,0-.06.31q0,.27-.06.58c0,.2,0,.4-.05.59a1.92,1.92,0,0,0,0,.36l.09.55a.89.89,0,0,0,.22.44.85.85,0,0,1,.22.4s0,.07,0,.08,0,0,0,.08,0,.07,0,.08a.72.72,0,0,1-.39-.09,2.76,2.76,0,0,1-.48-.28,3.91,3.91,0,0,1-.44-.36,2.55,2.55,0,0,1-.3-.33,2.24,2.24,0,0,1-.4-.84A7.82,7.82,0,0,1,153.14,32.52Zm.24-2.68s.07-.06.06-.09,0-.06.06-.12l-.13.13Zm.56-2.36a.11.11,0,0,0,0-.08v0s0,0,0,.1a.75.75,0,0,0,0,.13S154,27.56,153.94,27.48Zm1.59-2.3h.07l.06-.09,0,0Zm.69-.87v0l0-.12Zm.68-1.85.08-.2-.06.09a.11.11,0,0,1,0,.08Zm.53-.92v0a.15.15,0,0,0,.1-.05h0l-.08,0Z" transform="translate(-4.34 -9.33)"/><path class="cls-1" d="M5.39,32.85A1.56,1.56,0,0,1,5,32.64a.6.6,0,0,1-.21-.29q0-.16.39-.3L5.65,32l.49-.08a6.92,6.92,0,0,0,1.6-.6,11.66,11.66,0,0,0,1.46-.8l.09,0,.07,0,.5-1-.47.53.17-.73.35-.14.12.14.07,0,.53-1.12-.07,0-.33.49-.23,0a2.29,2.29,0,0,1,.12-.27.58.58,0,0,1,.28-.25c-.08-.07-.23-.07-.48,0a5.86,5.86,0,0,0-1.11.39,5.78,5.78,0,0,1-1.11.39,3.39,3.39,0,0,1-.92.12,9.69,9.69,0,0,1-1.08,0A4.38,4.38,0,0,1,4.79,29q-.4-.13-.45-.29t.17-.23l.34-.18a1.66,1.66,0,0,0,.69-.07l1.29-.45,2-.73q1-.39,1.91-.76a5.33,5.33,0,0,0,1.07-.54h.08l0-.13.35-.67.36-.11,0-.06-.23,0,.49-.47.07-.3.07,0,0,.12.21-.1-.19-.12c.24-.07.35-.15.32-.24l-.13.11-.07,0a2.25,2.25,0,0,1,.12-.37.86.86,0,0,1,.43-.4l-.06-.19q.58-.18.49-.47a.27.27,0,0,1,.2-.38l0-.13.07,0c0,.06,0,.06.07,0a1.11,1.11,0,0,1,.1-.21,12.37,12.37,0,0,1,.52-1.15l.78-1.6a11.31,11.31,0,0,1,.82-1.46q.44-.65.65-.71a2.12,2.12,0,0,1,.51-.16,5.61,5.61,0,0,1,1.74-.16q.93.05,1,.52,0,.13-.38.82t-1,1.52q-.54.82-1,1.54l-.66.95a1,1,0,0,0-.13.34.75.75,0,0,1-.21.36.74.74,0,0,1-.27.15.74.74,0,0,0-.27.15l.29-.09a.6.6,0,0,0-.23.28l-.22.46a2.44,2.44,0,0,0-.18.46c0,.14-.07.25-.1.33l.82-.29,1.28-.48q.67-.26,1.2-.49a3.22,3.22,0,0,0,.65-.34l-.14.08-.11-.11.3-.06.15-.29c-.1,0-.15,0-.16,0l0-.06h.24l.36-.39.11-.67.3-.06-.26-.06v0l.28-.37.07,0,0,.12.07,0,.64-1-.21.1L22,19.3l-.15,0,.33-.49q.2-.13.17-.23l.2-.13.09,0-.13-.17a1.29,1.29,0,0,0,.15-.4.66.66,0,0,1,.39-.4l-.09,0v0a3.4,3.4,0,0,0,.59-.91q.29-.6.66-1.23a8.43,8.43,0,0,1,.8-1.15,1.8,1.8,0,0,1,1-.65,5.14,5.14,0,0,1,1.64-.1q.82.08.89.56c0,.1,0,.2-.07.29s-.13.19-.31.29l0,.13a9.55,9.55,0,0,1-.58,1q-.59.92-1.35,2.06l-1.45,2.14q-.68,1-.79,1.18,1-.38,1.83-.65l1.85-.59a3.73,3.73,0,0,1,.58-.19l.66-.18-.8.49q.52.13.18.83a.25.25,0,0,0-.23,0c-.09.05-.13.1-.12.14l-.78.31.37-.08v0L25,22.2q-1.31.51-2.41,1.06l-.51.4a.61.61,0,0,1-.09.47,1.13,1.13,0,0,1-.5.45q.21.18-.21.35l-.08.27-.17,0,0,.18-.2.13.22-.07,0,.15,3.78-1.41-.12.14,1-.45a5.19,5.19,0,0,1,1-.33l.22-.07-1.89.83h.16l-.06.05-.07,0,.1.07-3.12,1.74.45-.1,0,.06-1,.53.78-.31,0,.06c0,.11-.12.21-.46.3s-.54.23-.59.41l-2,1.07H18.9l.08.26-.07,0,.05-.09-.4.26a.38.38,0,0,1,.15,0c.05,0,.06,0,0,.06s0,.12-.17.23l0,.1-.35.14v0h.08s.08,0,.08,0a.11.11,0,0,1,0,.12l-.44.13a.34.34,0,0,1,0,.22c0,.08-.12.14-.26.19l.1.07-.11.17-.16,0-.07,0-.67.67-.1-.07-.18.2.3-.06-.2.13,0,.06A1.69,1.69,0,0,1,17,31l-.18-.08.28-.12,0,.18h.24a1,1,0,0,0-.32.37.62.62,0,0,1-.51.28c0,.11,0,.2-.23.28l-.11-.11v0l.11-.17-.29.09-.07.3h.71l-.72.26-.08.27-.3.06.28.13-.19.16-.1-.07-.83.4a.62.62,0,0,1,.45-.35h-.08l.12-.14-.85.33.26-.19-.12-.14v0l.56-.24-.11-.11.2-.13h-.32l.6-.36-.11.17.56-.24,0-.31-.39.3,0-.18-.07,0,0,.15-.07,0,0-.12-.21.1.26-.19-.35-.1h.24l.38-.82.3-.06L16,30.4v0c-.11,0-.1-.05,0-.12l.28-.12v0l-.22.07.26-.43.1.07,0-.43q-.84.36-.71.54c.09.11,0,.24-.28.37l-.55.91a3.39,3.39,0,0,0-.4.9,1.24,1.24,0,0,0-.39.53l-.17.49-.07,0L14,33l-.25.22s.06,0,.17.05q0,.25-.35.42l0-.12-.07,0-.57,1,.22-.07v0l-.21.1,0,.38-.27.15v0l.37-.08-.45.35c.13.08.11.18-.07.3v-.25l-.3.31.19.12.37-.08-.09.24h-.24l.19.12-.29.09.19.12-.31,0-.2.13v0l-.07,0-.05.09.15,0c-.1,0-.14.07-.13.11h.39l-.36.11-.13.11v0h.24l.05-.09.51-.16-.11-.11-.14.08,0-.1.21-.1H13l-.13-.17.25-.22-.17-.05.22-.07L13,35.92l.11-.17.37-.08v0l-.26-.06.2-.13-.1-.07.53-.59-.18-.05v0l.5-.17a.62.62,0,0,0,.32-.26H14.4l-.39.3L14,34.35l-.29.09,0,.1-.35.14v0l.28-.12v0l-.17,0,.29-.09v0l-.23,0v0l.37-.08,0,.06.15,0,.18-.44.12.14h.24l.37-.36-.33,0-.19.16-.47,0q.11.11-.21.35l.15-.29c-.11,0-.17,0-.18-.05s0-.09.07-.15.09-.1.07-.15l.66-.45-.27.68.36-.39.27.09a1.4,1.4,0,0,1,.52-.37.6.6,0,0,1,.23,0l-.6.64-.22.07.12.14-.22.07v0l.3-.06a3.39,3.39,0,0,1-.38.44c-.14.14-.2.26-.16.37l0,.1q-.36.11-.39.28a.64.64,0,0,0,0,.3v0l-.07,0-.17,0a2.7,2.7,0,0,0-.46.58,2.72,2.72,0,0,1-.46.58L13,37l-.29.09q-.34-.07-.42.2a.78.78,0,0,0,0,.37.83.83,0,0,0-.37.36,3,3,0,0,0-.15.4,1.22,1.22,0,0,1-.2.38,1.18,1.18,0,0,1-.49.33l0,.15.17,0-.55.52.15,0-.09.24c-.1,0-.15,0-.14.08s0,.08-.13.11-.32,0-.37-.17a.38.38,0,0,1,0-.25l.09-.24.23,0q.49-1,.86-2a15.82,15.82,0,0,1,.93-2,8.84,8.84,0,0,1,.62-1,1.77,1.77,0,0,0,.38-1l0-.1.29-.09-.1-.07v0a3,3,0,0,0,.58-.71,10,10,0,0,0,.48-.89q.22-.46.47-.92a4.46,4.46,0,0,1,.55-.8L15,30.1l0-.12-1,.5-.07,0q-1.46.66-2.9,1.42l-.38.82q-.36.11-.37.36l-.29.09q.18.09-.13.36l0,.4-.23,0-.13.61q-.12.14-.06.18s0,.09-.22.19q.19.12-.09.47a3,3,0,0,1-.55.54l-.16-.27s0,.06,0,.12,0,.1,0,.12l-.1.21L8,36.3l.07.23-.34.18,0,.16a.28.28,0,0,0-.08.25c0,.08-.09.15-.33.22a.35.35,0,0,1-.47-.24l-.14-.45a1.2,1.2,0,0,1,0-.39c0-.19,0-.4.09-.61A3.27,3.27,0,0,1,7,35a.69.69,0,0,1,.25-.36l-.17.48a.92.92,0,0,1,0,.65,1.42,1.42,0,0,0-.12.64c.05.17.11.27.17.3l.59-2.23H7.33l.31,0,.2-.13a.54.54,0,0,1,.07-.43A1.09,1.09,0,0,0,8,33.48c0-.11-.08-.16-.13-.17l0-.12a3,3,0,0,1-1.66.16Zm2.09.84h.15l-.3.31Zm0,1-.15,0,.05-.09Zm.69-.07.21.18,0,.15.15,0c.2,0,.28-.12.24-.25l.2-.13-.22.07.54-.84-.15,0a1.83,1.83,0,0,0-.87.52l0-.12s-.06.07-.05.09v0l.3-.06,0,.16-.23,0,.19.12Zm.26.84.07,0,.07-.3.29-.09-.4,0,0,.1-.21.1Zm-.07-1.78.07,0,.41-.23v0l-.21.1,0-.16-.21.1Zm1.11,0,0-.16-.28.12.14-.33-.15,0L9,33.69a1.37,1.37,0,0,0-.58.18Zm-.85-.45.09,0,0,.1.39-.3.2.15.17-.48-.21.1,0-.15H9.24a2.32,2.32,0,0,0-.42.2c-.18.1-.28.2-.3.31S8.56,33.23,8.61,33.24Zm.08,0H8.61v0ZM8.9,34.7l.19-.16-.07,0Zm.33-4.59.11.11s0,.11-.18.2Zm.63-.55.07,0,0-.12Zm.17.55.37-.08,0-.15Zm.24-.5.3-.06v.22a.93.93,0,0,0,.63-.65,1.14,1.14,0,0,1,.39-.68.39.39,0,0,1,0-.2.25.25,0,0,1,.18-.18L11.6,28q.4-.26.41-.48l-.07,0-.13.11-.17,0-.52.62h.08l.13-.11v0a.28.28,0,0,1-.15.17l-.24.13,0,.1a1.19,1.19,0,0,0-.43.52A5.51,5.51,0,0,0,10.28,29.61Zm.34-1.48.17,0,0-.06Zm.71,8,0-.18h.15l-.11.17Zm.25-.47,0-.1.1.07Zm.82.6-.22.07,0,.13ZM12.23,36l.15,0-.09,0Zm.36-1.92,0-.06.17.05Zm.05-5,.86-.32,1.31-.53q.67-.28,1.19-.52c.35-.17.53-.29.56-.37l.26.06a1.94,1.94,0,0,0,.38-.33q.24-.25.47-.53A3.52,3.52,0,0,0,18,26c.08-.16.12-.25.11-.3a.91.91,0,0,0,.35-.42,2.05,2.05,0,0,0,.11-.42l-.36.11.12.14-.23,0-.13.11,0-.18-.89.34-1.25.47q-.64.25-1.16.48a3.1,3.1,0,0,0-.71.4v0l.18.08a.66.66,0,0,1-.18.18l-.26.2c.11,0,.12.05,0,.11l-.26.2.06.44-.23,0,.18.08-.22.07-.26.19-.14.33,0,.16-.23,0Zm.3,4.33.09,0-.14,0Zm-.05-5.08.43-.17v0ZM13,25.18q.48-.25.46-.57l0-.06L14,24l0-.1.12-.14c.15,0,.23-.11.26-.2s.05-.17.08-.25l-.29.09.05-.09.37-.08-.11-.36-.18.2v0l.09,0h-.15q-.4.51-.76,1A3.54,3.54,0,0,0,13,25.18Zm.37-1.63.07,0,0-.1Zm.14,9,.15,0,0,.06-.15,0Zm.07,1,0,.1.07,0,0-.12ZM14,24.37l0-.06-.13.11Zm.39,8.23,0,.06-.15,0,0-.06Zm.33-9.79,0-.13-.15,0Zm-.11.17.15,0,0-.06Zm.06,7.69,0,.06-.07,0Zm.42,1.89.42-.2-.2-.15-.54.31Zm-.28-4,0,.06.35-.14,0-.1ZM15.13,32l.07,0v0Zm.16-2.06h-.08l-.07,0s.07,0,.08,0S15.24,29.93,15.29,29.91Zm.13,2.22v0l-.21.1Zm-.18-3.69.37-.08,0-.06Zm.06,1.5.1-.07.1-.07h-.08Zm.36-1.67,0,.06.17-.23-.1.07S15.7,28.22,15.66,28.28Zm.17,3.13,0,.06.13-.11Zm.29-.62,0,.06s0,0,.08,0a.74.74,0,0,0,.27-.15ZM16.38,28l.24-.25-.35.14Zm.08,3.62.05-.09-.14,0ZM17,29.93l.11-.17.63,0,.07,0-.11-.11-.59.15,0-.16c-.19.06-.28.13-.25.22v0l-.18.2Zm.43.36.23,0,0,.06-.34.18h-.08ZM18,26.75l.23,0q.47-.53,1-1.17a1.94,1.94,0,0,0,.53-1.13l-.33.21-.07,0,.05-.09-.21.1-.8,1.27.23,0v0a1.33,1.33,0,0,0-.64.5,2.56,2.56,0,0,0-.23.55Zm-.05,2.42.15,0,0-.12H18l-.21.1Zm1-5.76.45-.1-.1-.07Zm.3,2.77h-.15l0,.15Zm.09,0,.28-.12v0Zm.38-.82.37-.08-.1.21.75-.66-.12-.14-.5.19c.11,0,.17,0,.18.08l-.09.24-.22.07.05-.09Zm.46.21v0h-.24l0,.18Zm-.11.92-.09,0-.05.09Zm.48-1v0l-.28.12Zm-.27-.87,0,.1.38,0,.11-.17Zm.2-.13,0-.06-.07,0-.05.09Zm0,.84.25-.22-.15,0Zm.07,1,1.57-.59-1,.26v0l.13-.11-.23,0,0,.1A.81.81,0,0,0,20.55,26.35Zm0-3.51.39-.3-.07,0-.34.18Zm.1-.45.77-.34c-.06-.19.08-.41.43-.66l-.14-.2q.6-.36.56-.77v0l.19-.16-.15,0a3.57,3.57,0,0,0-.42.43.8.8,0,0,0-.2.4,1.43,1.43,0,0,0-.64.62Q20.78,22.18,20.68,22.38Zm1.65-.33-.07,0-.12.14Zm.3-.59.42-.2.05-.09-.15,0C22.75,21.29,22.65,21.37,22.63,21.47Zm0,0,0,.1.12-.14Zm.84,3.24v0l-.21.1Zm.09-3.32q.07.23.58.07a12.8,12.8,0,0,0,2-.73q1.08-.49,1.93-.82a2,2,0,0,0-.94,0l-.92.35a1.09,1.09,0,0,0-.53.34l-.38,0-.43.17-.42.2.09,0-.28.12,0-.06A2.55,2.55,0,0,0,23.57,21.43Zm.62,3.31c.1,0,.14-.07.13-.11l-.35.14.11,0Zm-.07-2.28.29-.09v0Zm.13,2,.29-.09v0l-.29.09Zm.12.14c.18.06.3,0,.35-.14Zm.45-2.4-.21.1v0Zm1.71-.91.11-.17-.34.18Zm.36-.39,0-.06-.15,0,0,.06Zm.14.45v0l-.26.19Zm7.27-4.25-.23,0,.22-.07Z" transform="translate(-4.34 -9.33)"/></svg>