<svg id="Layer_1" data-name="Layer 1" xmlns="http://www.w3.org/2000/svg" viewBox="0 0 159.42 159.81"><defs><style>.cls-1{fill:#ec6a2b;}.cls-2{fill:#963e20;}.cls-3,.cls-4{fill:#231f20;}.cls-4{fill-rule:evenodd;}</style></defs><title>Builders Logo</title><polygon class="cls-1" points="53.8 73.16 27.81 102.14 27.81 41.77 53.8 12.78 53.8 73.16 53.8 73.16"/><polygon class="cls-2" points="53.81 73.16 79.8 102.14 79.8 41.77 53.81 12.78 53.81 73.16 53.81 73.16"/><polygon class="cls-1" points="105.76 73.16 79.78 102.14 79.78 41.77 105.76 12.78 105.76 73.16 105.76 73.16"/><polygon class="cls-2" points="105.78 73.16 131.76 102.14 131.76 41.77 105.78 12.78 105.78 73.16 105.78 73.16"/><path class="cls-3" d="M46,138H37.51v7.67H46V143H41.56V140.9h7.07v4.18a3.22,3.22,0,0,1-.6,2.26,3.21,3.21,0,0,1-2.3.6h-8a3.2,3.2,0,0,1-2.29-.6,3.22,3.22,0,0,1-.6-2.26v-6.39a3.23,3.23,0,0,1,.6-2.25,3.29,3.29,0,0,1,2.29-.61h8a3.43,3.43,0,0,1,2.3.6,3,3,0,0,1,.6,2.15v.28l-2.64.5V138Z"/><path class="cls-4" d="M63.15,137.93h-6.1v3.39h6.1a1.67,1.67,0,0,0,1-.23.93.93,0,0,0,.25-.75v-1.47a.92.92,0,0,0-.25-.73,1.62,1.62,0,0,0-1-.21Zm-8.77,10V135.83h10a3,3,0,0,1,2,.56,2.24,2.24,0,0,1,.62,1.79V141a2.27,2.27,0,0,1-.62,1.79,3,3,0,0,1-2,.55H62.82l5.41,4.57h-3.9l-4.71-4.57H57.05v4.57Z"/><path class="cls-4" d="M72.26,138.69a3.22,3.22,0,0,1,.61-2.25,3.26,3.26,0,0,1,2.28-.61h8.6a3.34,3.34,0,0,1,2.3.61,3.27,3.27,0,0,1,.61,2.25v6.39a2.35,2.35,0,0,1-2.91,2.86h-8.6a3.17,3.17,0,0,1-2.28-.6,3.22,3.22,0,0,1-.61-2.26v-6.39Zm2.72,7h9V138H75v7.67Z"/><path class="cls-3" d="M95.08,135.83v9.83h7.72v-9.83h2.73v9.25a2.34,2.34,0,0,1-2.91,2.86H95.25a3.23,3.23,0,0,1-2.29-.6,3.17,3.17,0,0,1-.6-2.26v-9.25Z"/><path class="cls-4" d="M120.29,137.93h-6.11v3.2h6.11a1.53,1.53,0,0,0,1-.21.88.88,0,0,0,.26-.74v-1.31a.89.89,0,0,0-.26-.73,1.53,1.53,0,0,0-1-.21Zm-8.78,10V135.83h10a3,3,0,0,1,2,.56,2.27,2.27,0,0,1,.62,1.79v2.71a2.29,2.29,0,0,1-.62,1.79,3.08,3.08,0,0,1-2,.54h-7.3v4.72Z"/><path class="cls-3" d="M6.15,124.48v-12.1H8.34l5.51,7.32,5.37-7.32h2.17v12.1h-2.5V117c0-.14,0-.33,0-.54s.05-.48.08-.75c-.15.31-.28.57-.39.77a3.51,3.51,0,0,1-.29.5l-4.39,6h-.54L9,117c-.16-.24-.3-.44-.42-.64a4.14,4.14,0,0,1-.28-.61c0,.27,0,.5.05.7s0,.41,0,.59v7.48Z"/><path class="cls-4" d="M30.11,119.66h5.12l-2.52-4.94-2.6,4.94Zm-5.23,4.82,6.61-12.1h2.62l6.71,12.1H37.76l-1.41-2.65H29l-1.36,2.65Z"/><path class="cls-3" d="M54,114.54H46.61v7.67H54v-2.6l2.72.57v1.44a3.24,3.24,0,0,1-.6,2.26,3.29,3.29,0,0,1-2.3.6h-7a3.29,3.29,0,0,1-2.3-.6,3.24,3.24,0,0,1-.59-2.26v-6.39A3.15,3.15,0,0,1,44.5,113a3.24,3.24,0,0,1,2.3-.61h7a3.24,3.24,0,0,1,2.3.61,3.15,3.15,0,0,1,.6,2.24v1.16l-2.72.44v-2.29Z"/><polygon class="cls-3" points="62.29 124.48 62.29 112.38 65.01 112.38 65.01 117.07 73.49 117.07 73.49 112.38 76.23 112.38 76.23 124.48 73.49 124.48 73.49 119.28 65.01 119.28 65.01 124.48 62.29 124.48 62.29 124.48"/><polygon class="cls-3" points="82.19 124.48 82.19 112.38 84.9 112.38 84.9 124.48 82.19 124.48 82.19 124.48"/><polygon class="cls-3" points="94.14 124.48 94.14 119.07 88.08 112.38 91.7 112.38 95.71 117.02 99.73 112.38 102.92 112.38 96.89 119 96.89 124.48 94.14 124.48 94.14 124.48"/><path class="cls-4" d="M107.89,119.66H113l-2.53-4.94-2.59,4.94Zm-5.21,4.82,6.6-12.1h2.62l6.7,12.1h-3.06l-1.4-2.65h-7.41l-1.36,2.65Z"/><path class="cls-4" d="M131.13,114.48H125v3.36h6.11a1.62,1.62,0,0,0,1-.21.94.94,0,0,0,.26-.75v-1.46a.93.93,0,0,0-.26-.74,1.63,1.63,0,0,0-1-.2Zm-8.78,10v-12.1h10a3,3,0,0,1,2,.55,2.27,2.27,0,0,1,.64,1.79v2.84a2.26,2.26,0,0,1-.64,1.78,2.94,2.94,0,0,1-2,.57H130.8l5.4,4.57h-3.91l-4.7-4.57H125v4.57Z"/><path class="cls-4" d="M142.73,119.66h5.11l-2.52-4.94-2.59,4.94Zm-5.24,4.82,6.62-12.1h2.62l6.7,12.1h-3.07l-1.4-2.65h-7.41l-1.34,2.65Z"/></svg>