<svg id="Layer_1" data-name="Layer 1" xmlns="http://www.w3.org/2000/svg" viewBox="0 0 214.49 105.98"><defs><style>.cls-1{fill:#6d6e71;}.cls-2{fill:#bcbec0;}</style></defs><title>Builders Logo</title><path class="cls-1" d="M80.38,88.69v.4c0,4.6-3.21,8.67-10.12,8.67-6.49,0-10.58-4-10.58-8.5s4.21-8.6,10.85-8.6c3.77,0,7.08,1.4,8.79,3.87L75.49,86a6.27,6.27,0,0,0-11.34,3.22c0,2.69,2.1,5.7,6.29,5.7,2.71,0,5-1.73,5.07-3.69H70.8V88.69Z"/><path class="cls-1" d="M97.57,97.32H92.32l-5.39-6.54h-.06v6.54H82.53V81.08H88.4c4.39,0,7.43,1.42,7.43,4.9,0,2.07-1.56,4.13-4.54,4.49Zm-10.7-8.76h.56c2.39,0,4.06-.51,4.06-2.5s-1.73-2.4-4-2.4h-.59Z"/><path class="cls-1" d="M108.92,97.76c-6.78,0-11-3.79-11-8.57s4.37-8.53,11-8.53,11,3.69,11,8.53S115.71,97.76,108.92,97.76Zm0-14c-4.09,0-6.51,2.64-6.51,5.26s1.71,5.6,6.51,5.6,6.52-3.08,6.52-5.6S113,83.78,108.92,83.78Z"/><path class="cls-1" d="M121.93,81.08h4.33v9.09c0,2,.24,4.83,3.93,4.83s3.92-2.84,3.92-4.83V81.08h4.34v9.73c0,4-2.3,7-8.26,7s-8.26-3-8.26-7Z"/><path class="cls-1" d="M145.84,97.32h-4.33V81.08h5.9c4.66,0,7.7,1.36,7.7,5,0,3.44-2.57,5.13-7.12,5.13h-2.15Zm0-8.7h.89c2.56,0,4-.41,4-2.51s-1.66-2.4-4.08-2.4h-.77Z"/><path class="cls-2" d="M14.44,55.4h-7V37.5H17c7.47,0,12.36,1.48,12.36,5.55,0,3.8-4.13,5.64-11.42,5.64H14.44Zm0-9.59h1.43c4.12,0,6.34-.46,6.34-2.78s-2.64-2.65-6.53-2.65H14.44Z"/><path class="cls-2" d="M36,51.62,33.05,55.4H25.72L39.63,37H45L58.59,55.4H51.14L48.4,51.62Zm6-9.35h-.09L38,48.78h8.47Z"/><path class="cls-2" d="M84.86,55.4H76.43l-8.66-7.22h-.1V55.4h-7V37.5h9.42c7.06,0,11.94,1.56,11.94,5.39,0,2.27-2.51,4.55-7.3,5ZM67.67,45.74h.9c3.84,0,6.54-.58,6.54-2.76s-2.79-2.64-6.49-2.64h-1Z"/><path class="cls-2" d="M147.18,45.88v.45c0,5.05-4.34,9.54-13.68,9.54-8.77,0-14.32-4.42-14.32-9.35,0-5.11,5.7-9.5,14.68-9.5,5.11,0,9.57,1.55,11.89,4.27L140.56,43c-1.19-1.62-3.75-2.86-6.86-2.86-5.67,0-8.46,3.45-8.46,6.42s2.84,6.26,8.5,6.26c3.68,0,6.74-1.89,6.86-4.05h-6.38V45.88Z"/><path class="cls-2" d="M163.54,55.87c-9.18,0-14.88-4.18-14.88-9.45s5.9-9.4,14.88-9.4,14.87,4.08,14.87,9.4S172.71,55.87,163.54,55.87Zm0-15.41c-5.55,0-8.82,2.92-8.82,5.82s2.32,6.14,8.82,6.14,8.81-3.38,8.81-6.14S169.09,40.46,163.54,40.46Z"/><path class="cls-2" d="M181.29,37h4.23l15.83,12.51h.08v-12h5.86V55.76h-4.23L187.24,43.23h-.09V55.4h-5.86Z"/><path class="cls-1" d="M113.57,71l7.24-.54-17.88-66L85,70.82l6.71.51,3.51-13.77L101.83,66l1.39-1.37,7-6.22Zm-11.49-8.69-6-8,6.7-27,6.79,28.2Z"/></svg>