<svg id="Layer_1" data-name="Layer 1" xmlns="http://www.w3.org/2000/svg" viewBox="0 0 224.16 197.1"><defs><style>.cls-1{fill:#1c2d5a;}.cls-2{fill:#575757;}.cls-3{fill:#fff;}</style></defs><title>Builders Logo</title><path class="cls-1" d="M36.56,140.52H44.4V174.4H36.56Zm33.44,23,7.6,10.89H69.18L62.64,165H55.43v9.44H47.59V140.52H62.26c9,0,14.71,4.69,14.71,12.29A11,11,0,0,1,70,163.51Zm-1-10.7c0-3.72-2.42-5.9-7.21-5.9H55.43v11.81h6.39C66.61,158.72,69,156.5,69,152.81Zm84.23,4.65c0,10.11-7.88,17.51-18.53,17.51s-18.54-7.44-18.54-17.51,7.84-17.52,18.54-17.52S153.26,147.34,153.26,157.46Zm-7.93,0c0-6.44-4.55-10.84-10.6-10.84s-10.6,4.4-10.6,10.84,4.55,10.84,10.6,10.84S145.33,163.9,145.33,157.46ZM8.53,174.4h7.84V162.06H32.05v-6.3H16.37v-8.95H34.13v-6.29H8.53ZM178,159.2c0,6.44-2.77,9.1-7.56,9.1s-7.55-2.66-7.55-9.1V140.52H155v19c0,10,5.71,15.48,15.34,15.48s15.34-5.51,15.34-15.48v-19H178Zm17.42-9.1c0-2.13,1.79-3.87,6.44-3.87a19.16,19.16,0,0,1,9.39,2.66l2.42-5.95a22.68,22.68,0,0,0-11.76-3c-9.63,0-14.28,4.79-14.28,10.55,0,12.59,19.7,8.23,19.7,14.57,0,2.08-1.89,3.63-6.53,3.63a19.92,19.92,0,0,1-11.18-3.54l-2.67,5.91c3,2.32,8.42,3.91,13.8,3.91,9.68,0,14.37-4.83,14.37-10.49C215.08,152,195.38,156.34,195.38,150.1Zm-81,7.36c0,10.26-7.6,16.94-18.68,16.94H80.27V140.52H95.66C106.74,140.52,114.34,147.2,114.34,157.46Zm-7.94,0c0-6.49-4.4-10.5-11.13-10.5H88.11v21h7.16C102,168,106.4,163.94,106.4,157.46Z"/><path class="cls-2" d="M15.15,186.37a2.38,2.38,0,0,0,1.26-2.17c0-1.56-1.26-2.56-3.62-2.56H8.17v9.84h4.9c2.53,0,3.85-1,3.85-2.67A2.42,2.42,0,0,0,15.15,186.37ZM10,183.08h2.59c1.26,0,2,.45,2,1.36s-.72,1.35-2,1.35H10Zm2.95,7H10v-2.84H13c1.38,0,2.13.44,2.13,1.42S14.33,190.05,13,190.05Zm12.38-8.41h1.8v5.56c0,2.86-1.62,4.42-4.31,4.42s-4.31-1.56-4.31-4.42v-5.56h1.83v5.48c0,2,.91,2.9,2.5,2.9s2.49-.87,2.49-2.9Zm4.08,0h1.83v9.84H29.41Zm6,8.29h5.15v1.55h-7v-9.84h1.82Zm10.62-8.29h-4.3v9.84h4.3c3.19,0,5.37-2,5.37-4.92S49.25,181.64,46.06,181.64ZM46,189.93H43.59v-6.74H46a3.38,3.38,0,1,1,0,6.74Zm9,0h5.55v1.53H53.1v-9.84h7.18v1.54H54.93v2.56h4.75v1.5H54.93Zm15.55-4.81c0-2.17-1.6-3.5-4.19-3.5H62.24v9.84h1.83v-2.87h2.6l2,2.88h2l-2.27-3.23A3.14,3.14,0,0,0,70.48,185.14Zm-4.27,2H64.07v-3.92h2.14c1.6,0,2.43.72,2.43,1.95S67.81,187.11,66.21,187.11Zm13.06,1.59c0,1.58-1.28,2.92-4,2.92a6.31,6.31,0,0,1-3.88-1.18l.64-1.42a5.36,5.36,0,0,0,3.24,1.08c1.53,0,2.18-.55,2.18-1.27,0-2.13-5.85-.73-5.85-4.39,0-1.59,1.27-2.93,4-2.93a6.23,6.23,0,0,1,3.27.86l-.57,1.42a5.6,5.6,0,0,0-2.72-.77c-1.51,0-2.13.59-2.13,1.34C73.44,186.45,79.27,185.08,79.27,188.7Zm8.17-7.06L83,191.48H84.9l1-2.28h4.92l1,2.28h1.91l-4.44-9.84Zm-1,6.13,1.84-4.3,1.86,4.3Zm15.1-6.13h1.82v9.84H101.9l-5.42-6.66v6.66H94.66v-9.84h1.51l5.42,6.66Zm8.49,0h-4.31v9.84h4.31c3.19,0,5.36-2,5.36-4.92S113.27,181.64,110.08,181.64Zm-.09,8.29H107.6v-6.74H110a3.38,3.38,0,1,1,0,6.74Zm15-8.29h-4.3v9.84H125c3.19,0,5.37-2,5.37-4.92S128.2,181.64,125,181.64Zm-.09,8.29h-2.38v-6.74h2.38a3.38,3.38,0,1,1,0,6.74Zm9,0h5.54v1.53h-7.37v-9.84h7.18v1.54h-5.35v2.56h4.75v1.5h-4.75Zm14.34-8.31h1.83l-4.29,9.84H144l-4.3-9.84h2l3.28,7.59Zm4.42,8.31h5.55v1.53h-7.38v-9.84H158v1.54h-5.35v2.56h4.75v1.5h-4.75Zm9.14,0h5.14v1.55h-7v-9.84h1.83Zm10.73-8.42a5.06,5.06,0,1,0,5.3,5.05A5,5,0,0,0,172.51,181.51Zm0,8.51a3.46,3.46,0,1,1,3.46-3.46A3.36,3.36,0,0,1,172.51,190Zm11-8.38h-4.05v9.84h1.83v-2.84h2.22c2.58,0,4.18-1.33,4.18-3.5S186.11,181.64,183.53,181.64Zm-.09,5.46h-2.13v-3.91h2.13c1.6,0,2.44.72,2.44,1.95S185,187.1,183.44,187.1ZM191.1,190h5.55v1.53h-7.38v-9.84h7.18v1.54H191.1v2.56h4.75v1.5H191.1Zm15.54-4.81c0-2.17-1.6-3.5-4.18-3.5h-4.05v9.84h1.83v-2.87h2.6l2,2.88h2l-2.27-3.23A3.13,3.13,0,0,0,206.64,185.14Zm-4.27,2h-2.13v-3.92h2.13c1.61,0,2.43.72,2.43,1.95S204,187.11,202.37,187.11Zm13.07,1.59c0,1.58-1.28,2.92-4,2.92a6.31,6.31,0,0,1-3.88-1.18l.63-1.42a5.41,5.41,0,0,0,3.25,1.08c1.53,0,2.18-.55,2.18-1.27,0-2.13-5.85-.73-5.85-4.39,0-1.59,1.27-2.93,4-2.93a6.23,6.23,0,0,1,3.27.86l-.58,1.42a5.54,5.54,0,0,0-2.71-.77c-1.52,0-2.13.59-2.13,1.34C209.61,186.45,215.44,185.08,215.44,188.7Z"/><rect class="cls-1" x="47.9" y="7.32" width="122.7" height="122.7"/><path class="cls-3" d="M133,21.78V51.85h20v19H133v20h20v17.7H133v7.19h27.15V83.66h-20V78.07h20V21.78Zm7.18,22.89V29H153v15.7Zm-70-23H97.49v94.08H58.34V21.61h7.18v86.93H90.31V65.7H70.21V58.51h20.1V47.2H70.21V40h20.1V28.83H70.21Zm31.6,76.51h19.7v10.38h-19.7v7.19h26.88V70.89H101.81Zm7.19-20h12.51V91H109Zm-7.19-56.42h26.88V65.69H101.81V58.51h19.7V29H109v15.7h-7.19ZM141.4,65.69H133V57.31h8.38Z"/></svg>