<svg id="Layer_1" data-name="Layer 1" xmlns="http://www.w3.org/2000/svg" viewBox="0 0 354.32 103.81"><defs><style>.cls-1{fill:#8d281d;}.cls-2{font-size:42.35px;fill:#231f20;font-family:FlamaCondensed-Extrabold, Flama Condensed;font-weight:800;letter-spacing:0.04em;}.cls-3{letter-spacing:0.03em;}.cls-4{letter-spacing:0.04em;}.cls-5{letter-spacing:0.04em;}</style></defs><title>Builders Logo</title><path class="cls-1" d="M21.11,48.13,11.5,52.79l-.18-.3,5.52-3.59a16.27,16.27,0,0,1,1.77-1.1c1.85-.88,2.88-2.12,2.54-4.34a2.86,2.86,0,0,1,2-3.45A3.07,3.07,0,0,1,27,41.54a3.77,3.77,0,0,0,.52.49,80.06,80.06,0,0,0,8.42-5.68c.87-.74.58-2.83.83-4.3l-.51-.31-25,12.2-.17-.29L16.82,40C22.94,36,29.05,32,35.21,28.11a2.53,2.53,0,0,0,1.34-2.49c-.06-5,0-10,0-14.94v-2a28.34,28.34,0,0,1,15.12,3A28.7,28.7,0,0,1,66.93,30.9a5.35,5.35,0,0,0,2.57,3.45c4.36,2.73,8.68,5.53,13,8.31a2.09,2.09,0,0,1,.88,1.06L67.67,36.08c0,2.1-.07,3.76,0,5.41,0,.44.57.95,1,1.24,4.35,2.85,8.74,5.66,13.11,8.49A8.1,8.1,0,0,1,83.93,53l-16.8-8.2a29.27,29.27,0,0,0-1.31,3.94,2.17,2.17,0,0,0,.92,1.67C72,53.81,77.24,57.16,82.5,60.53A6.44,6.44,0,0,1,84.23,62L70,55.08c-1.51-.73-3-1.41-4.52-2.22-1-.53-1.55-.46-2.08.57a23,23,0,0,1-1.69,2.5l22,14.19-.16.32-9-4.34c-4.63-2.25-9.27-4.48-13.88-6.78a2,2,0,0,0-2.61.38,27.65,27.65,0,0,1-13.94,7c-1.19.21-1.47.74-1.46,1.85q0,9.19,0,18.41c0,1.91-1,3.11-2.57,3.39-2,.35-3.58-1.13-3.59-3.42,0-5.79,0-11.58,0-17.37V67.26c-3,0-5.73-.05-8.49.07-.28,0-.75,1-.75,1.54-.06,6.78,0,13.55-.05,20.33,0,.75,0,1.5,0,2.25-.12,2.17-1.32,3.43-3.17,3.36s-2.89-1.3-2.92-3.4c0-2.49,0-5,0-7.47q0-8,0-16V65.82l-10,4.82L11,70.42c3-1.92,5.88-3.88,8.86-5.74a2.37,2.37,0,0,0,1.33-2.38c-.09-1.6,0-3.22,0-5.23l-9.35,4.44-.17-.32c2.68-1.72,5.32-3.52,8.06-5.15a2.67,2.67,0,0,0,1.48-2.8C21,51.69,21.11,50.13,21.11,48.13ZM59.63,27.94C57.2,21.23,48.21,14.83,42.86,15.12v8A37.32,37.32,0,0,0,46.09,21,2.09,2.09,0,0,1,49,21C52.37,23.31,55.84,25.49,59.63,27.94ZM42.48,31.56l.59.37c1-.64,2-1.21,3-1.94A2.14,2.14,0,0,1,49,30c3.77,2.56,7.63,5,11.46,7.46.45.29.93.52,1.65.9,0-.93,0-1.49,0-2.06A4.26,4.26,0,0,0,59,31.72a62.92,62.92,0,0,1-9.5-4.58c-2.63-1.59-4.28.36-6.12,1.25C42.73,28.71,42.76,30.46,42.48,31.56Zm18,14.78c.31-.89.46-1.45.7-2,.76-1.66.28-2.54-1.44-3.28a95.35,95.35,0,0,1-9.48-4.62,4.93,4.93,0,0,0-5.57.05c-2.19,1.33-2.41,1.54-1.71,4.2.16,0,.38,0,.47-.14,2.9-3,5.53-2.19,8.47.18A97.32,97.32,0,0,0,60.5,46.34ZM53.62,55.9a19.05,19.05,0,0,1-2.72-1.41c-2.53-1.88-4.91-1.33-7.25.3-.38.27-.86.72-.89,1.11-.1,1.64,0,3.3,0,5C45.83,60.89,50.61,58.73,53.62,55.9Zm5.43-6.15c-3-1.49-5.91-2.7-8.56-4.28a5.08,5.08,0,0,0-5.88,0c-2,1.25-2.34,1.65-1.55,4.16,1.08-.69,2.2-1.29,3.19-2a1.92,1.92,0,0,1,2.61,0c2.56,1.74,5.21,3.37,8,5.12ZM36.52,40.59c-3.1,1.51-5.85,2.82-8.57,4.19a1.31,1.31,0,0,0-.65.91c-.06,1.64,0,3.29,0,5.4,3.2-2.08,6-3.91,8.84-5.78a1.19,1.19,0,0,0,.39-.89C36.55,43.27,36.52,42.13,36.52,40.59Zm0,8.9c-3.12,1.52-5.91,2.87-8.67,4.25a1.14,1.14,0,0,0-.54.8c-.05,1.64,0,3.29,0,5.31,3.13-2,5.93-3.82,8.7-5.66a1.42,1.42,0,0,0,.51-1C36.57,52.1,36.53,51,36.53,49.49Zm-.1,8.89L31,60.94l.13.35h5.27Z"/><path d="M121.27,74.74c-.76,2.81-1.44,5.08-1.94,7.39a6.32,6.32,0,0,0,.4,2.24c.68-.32,1.68-.46,2-1a30.9,30.9,0,0,0,2.4-5.27c1-2.77,1.08-3,4.41-2.94-.61,2.06-1.23,4.09-1.8,6.13a5.93,5.93,0,0,0-.24,1.87c.05.94.79,1.34,1.42.78a14.41,14.41,0,0,0,2.7-3.18,13.11,13.11,0,0,0,.84-2.81c.85-2.6,1.13-2.77,4.31-2.82-.44,1.46-.87,2.87-1.31,4.28a6.05,6.05,0,0,0-.5,1.64c0,1-1.07,2.25.53,2.82.83.28,2.17-1.36,2.48-2.53.88-3.4,1.83-6.79,2.82-10.16a5.3,5.3,0,0,1,3.9-3.76c1.44-.44,2,.09,1.88,1.26a18.26,18.26,0,0,1-1,5.39,35,35,0,0,1-3.25,5.09,5.22,5.22,0,0,0-.83,1.46c-.46,2,.09,3.69,1.18,4,1.24.33,3.39-1.52,4.2-3.11a23.41,23.41,0,0,1,3.43-5.27c1.31-1.44,3.19-1.79,5.3-.66.48-1.94.94-3.76,1.38-5.59.63-2.69.79-2.81,3.94-2.7-.3,1.24-.62,2.43-.88,3.65-.78,3.73-1.56,7.46-2.26,11.21a5.21,5.21,0,0,0,.41,1.9c.59-.28,1.35-.41,1.74-.86a6.39,6.39,0,0,0,1.39-2.45c.84-3.25,3.43-5.9,6.12-5.71A3.43,3.43,0,0,1,169,76.47a3.21,3.21,0,0,1-.83,2.85,30.3,30.3,0,0,1-4.55,2.77c.47,2.36,2.53,3.2,4.58,1.71A13.87,13.87,0,0,0,170,82.15c.6-.62,1.14-1.3,1.77-2a2.57,2.57,0,0,1-.33-3.89c.53-.63,1.59-.82,2.42-1.21.12.72.26,1.44.35,2.17a2.91,2.91,0,0,1-.13.81l.44.4,3.82-3.54.41.3c-.51,1.43-1,2.86-1.52,4.3a13.36,13.36,0,0,0-.75,2.66c-.06.55.11,1.43.47,1.63a1.75,1.75,0,0,0,1.67-.36,38.63,38.63,0,0,0,4.9-6.22A3.42,3.42,0,0,1,186.79,75c.59,1.51,1.09,2.87,1.66,4.19a4.2,4.2,0,0,1-.58,4.41c-1.12,1.54-2.51,2.88-4.47,3-.94.06-1.94-.64-2.91-1l1.41-2.91a6.28,6.28,0,0,1,.88,1.07c.36.89.71,1.87,1.95,1.34a2.25,2.25,0,0,0,1.48-2.94,29.42,29.42,0,0,0-1.94-3.77c-1.39,1.75-2.53,3.41-3.91,4.85a17.15,17.15,0,0,1-3.77,3,2.75,2.75,0,0,1-2.5,0,3.28,3.28,0,0,1-.84-2.59c.21-1.37.9-2.67,1.14-4.32a15.53,15.53,0,0,0-1.86,1.43,54.58,54.58,0,0,1-4,4.28c-3.28,2.7-6.07,2.23-8.46-1.22-.94.74-1.82,1.56-2.82,2.22-1.95,1.28-3,.86-3.72-1.39-.1-.32-.22-.64-.34-1-4.33,4.68-5.86,3.48-7.66.49-6,3.55-6.19,3.55-8.79-.13-4.5,3.63-5.23,3.64-6.62,0-5.29,4.18-6,3-7.21,0a26.81,26.81,0,0,1-3,2.22c-2,1.09-3.86.23-3.75-2a31.59,31.59,0,0,1,1.58-8.1C117.92,75.45,119.81,75.28,121.27,74.74Zm33.18,3.47c-.52-.88-.8-1.91-1.31-2a2.25,2.25,0,0,0-1.93.91,23.26,23.26,0,0,0-2,4.91,2.2,2.2,0,0,0,.85,2,2.17,2.17,0,0,0,2-.78A51.21,51.21,0,0,0,154.45,78.21Zm-10.27-9.33c-2.11,2.49-2.41,5.61-3,8.63C143,74.94,145,72.4,144.18,68.88Zm19.26,11.78c2.09-.38,3.42-1.73,3.26-3.36a1.76,1.76,0,0,0-.72-1.21,1.38,1.38,0,0,0-1.18.37A4.84,4.84,0,0,0,163.44,80.66Z"/><path d="M303.64,75.05l.1,1.47c.22-.08.36-.08.43-.15,1.25-1.2,2.69-2,4.36-1.07s1.76,2.81,1.54,4.61a8.44,8.44,0,0,1-3,5.49,4.47,4.47,0,0,1-5.45.71c-.33,1.5-.68,2.87-.93,4.27-.49,2.73-.54,2.79-3.75,2.73.74-4,1.47-7.88,2.27-12.19-.68.81-1.15,1.29-1.54,1.84-1,1.47-2.24,2.29-4.13,1.48-.3-.13-.88.23-1.25.47a18,18,0,0,1-2.68,1.84c-1.78.72-3.15-.09-4.55-2.39a37.25,37.25,0,0,1-4.84,2.45c-1.74.6-2.78-.25-3.91-2.44a29.19,29.19,0,0,1-5.18,2.47,3.74,3.74,0,0,1-4.56-2.33c-1.4-.1-2.6-.23-3.79-.25a2,2,0,0,0-1,.49A22.21,22.21,0,0,1,259.82,86c-2.65,1.49-4.46.82-5.63-2.14a11.22,11.22,0,0,1-1.87,1.45,12.11,12.11,0,0,1-3.67,1.33c-2.48.27-4.16-1.41-4.29-3.92-.19-3.94,2.95-7.9,6.33-7.72a3.18,3.18,0,0,1,2.46,1.35,3.35,3.35,0,0,1-.72,2.91,29.63,29.63,0,0,1-4.58,2.81,2.52,2.52,0,0,0,3.59,2.22c1.48-.65,2.81-1.57,3.11-3.43a20.64,20.64,0,0,1,.81-2.83c.87-2.81,1-2.88,4.34-2.87-.6,2-1.2,3.87-1.78,5.79a2.87,2.87,0,0,0-.26,1.18,8.73,8.73,0,0,0,.71,2.65c.09.17,1.39-.07,1.95-.41a2,2,0,0,0,1-2.61,5.67,5.67,0,0,1,1-5.71c.45-.57,1.44-.71,2.19-1,.19.68.67,1.43.53,2-.47,1.94-1.16,3.83-1.78,5.77,1.44.89,2.37.39,3-1.19a24.63,24.63,0,0,1,2.83-5.22,4.75,4.75,0,0,1,2.7-1.39c1.26-.29,2.67-.21,3.29,1.22a2.73,2.73,0,0,1-1.3,3.58c-1.31.82-2.73,1.46-4.11,2.18.38,2.2,2.25,3.19,4.16,2.07a5.19,5.19,0,0,0,2.56-3.63,65.19,65.19,0,0,1,3.74-11.12c.46-1,2.41-1.48,3.74-2.06a3.32,3.32,0,0,1,1,1.67,11.71,11.71,0,0,1-1.9,6.92,25.77,25.77,0,0,1-2.35,3.22c-1.22,1.35-1.11,2.85-.72,4.39a1.36,1.36,0,0,0,2,1c1.48-.68,2.8-1.51,3.11-3.39a7.43,7.43,0,0,1,7.65-6.2c1.4,0,2.27.51,2,2.06s-.57,2.94-.77,4.42a8.21,8.21,0,0,0,.17,1.83c.78-.2,1.86-.15,2.27-.64A23.81,23.81,0,0,0,300,77.31C300.72,75.53,301.87,75.1,303.64,75.05Zm3.67,4.52-1.82-2.41c-.74.63-1.77,1.11-2.15,1.91a15.39,15.39,0,0,0-1.17,4.3c-.1.65.25,1.89.61,2a2.47,2.47,0,0,0,2.17-.6A47.71,47.71,0,0,0,307.31,79.57Zm-14.77-3.76a4.18,4.18,0,0,0-1,0c-2.53.77-4.22,6.54-2.42,8.46.32.35,1.36.56,1.58.34.53-.54,1.26-1.62,1-2A5.45,5.45,0,0,1,292.54,75.81Zm-9-6.92c-2.08,2.46-2.52,5.46-2.93,8.48C282.47,74.86,284.19,72.3,283.51,68.89ZM247.57,80.73c2.14-.48,3.34-1.64,3.32-3.25a1.7,1.7,0,0,0-.57-1.31,1.48,1.48,0,0,0-1.33.33A4.86,4.86,0,0,0,247.57,80.73Zm21.88,0c2.13-.36,3.46-1.67,3.35-3.35a1.75,1.75,0,0,0-.69-1.23c-.23-.15-.91.11-1.18.38A5,5,0,0,0,269.45,80.7Z"/><path d="M236.52,71c-.63,2.57-1.3,4.86-1.74,7.19a7.44,7.44,0,0,1-3.85,5.69c4.15,2.52,6.42,1.86,8-2.31a12.78,12.78,0,0,0,.34-9.17,5.67,5.67,0,0,0-5-4,6.55,6.55,0,0,0-6.25,3c-1,1.45-.72,2.56,1.26,4.57-1.22.29-2.34.94-3.11.65-1.21-.46-1.5-1.78-1.18-3.1.71-3,3.82-5.67,7.25-6.18.34,0,.69-.08,1-.12,3.54-.35,6.82.31,9,3.37s1.85,6.4.43,9.61a10.9,10.9,0,0,1-13.6,5.92,3.85,3.85,0,0,0-1.78.06c-.56.1-1.11.55-1.62.5-.67-.07-1.74-.39-1.84-.79a2.24,2.24,0,0,1,.71-2,5.08,5.08,0,0,1,3.09-.69c1.87.36,2.44-.59,2.73-2s.43-3,.69-4.46A6.94,6.94,0,0,1,235,71.27,5.65,5.65,0,0,1,236.52,71Z"/><path d="M314.46,82.1c.63,2.35,2.6,3.17,4.52,1.75,1.39-1,2.68-2.17,4.11-3.34-1.9-1.77-1.7-3.25-.65-4.49.48-.58,1.54-.67,2.34-1,.13.68.29,1.36.36,2a3.61,3.61,0,0,1-.14,1l.39.33,3.85-3.51.35.33c-.6,1.72-1.21,3.44-1.8,5.17a6.71,6.71,0,0,0-.46,1.84c0,.52.11,1.39.41,1.51a1.86,1.86,0,0,0,1.68-.29,38.61,38.61,0,0,0,5-6.34A3.58,3.58,0,0,1,337.74,75c.54,1.49.95,2.81,1.5,4.08a4.28,4.28,0,0,1-.34,4.28,6.18,6.18,0,0,1-4.49,3.24c-1,.09-2.05-.64-3.08-1l1.48-2.86a9.42,9.42,0,0,1,.77.91c.43.86.68,2.08,2.05,1.45A2.35,2.35,0,0,0,337,82a29.58,29.58,0,0,0-1.91-3.51c-1.32,1.67-2.45,3.33-3.82,4.76a19.18,19.18,0,0,1-3.91,3.08,2.52,2.52,0,0,1-2.33,0,3.37,3.37,0,0,1-.93-2.54c.2-1.38.88-2.7,1.1-4.41-.64.5-1.34,1-1.93,1.51a52.13,52.13,0,0,1-5.06,4.92c-2.47,1.8-5.46,1.15-6.67-1-2-3.63,1.47-9.77,5.6-9.74.93,0,2.39.65,2.63,1.35a3.41,3.41,0,0,1-.81,3A26,26,0,0,1,314.46,82.1Zm-.15-1.24c1.79-.49,3-1.42,3.25-3.23a1.76,1.76,0,0,0-.57-1.46,1.62,1.62,0,0,0-1.45.45A4.65,4.65,0,0,0,314.31,80.86Z"/><path d="M216.34,83.17a4.57,4.57,0,0,1-3.14,3.35c-2.46.84-3.87-.75-5.21-2.64-.46.36-.84.68-1.25,1a16.83,16.83,0,0,1-2.35,1.44c-2,.9-4,.52-5.06-.86a4.14,4.14,0,0,1,.23-5.16c1.48-1.56,3.38-2.72,5-4.14a3.36,3.36,0,0,0,1.19-1.77c.28-2,.61-3.89,2.09-5.38,1.26-1.27,2.75-2,4.53-1.47.79.24,1.92,1,2,1.54s-.93,1.41-1.63,2.35a12.54,12.54,0,0,0-.7-1.31c-.38-.49-.81-.94-1.22-1.4-.49.48-1.36.93-1.4,1.44a22,22,0,0,0,.09,5.32,35,35,0,0,0,1.64,6.18C212.32,84.8,213,85,216.34,83.17ZM205.66,76.7a20.61,20.61,0,0,0-2.5,1.81,3.89,3.89,0,0,0-.1,5.32,2.72,2.72,0,0,0,2.39.49c.78-.36,1.85-1.45,1.77-2.1A33.3,33.3,0,0,0,205.66,76.7Z"/><path d="M102.24,76.13c-1.39.29-2.68,1-3.27.58a3.7,3.7,0,0,1-1.1-2.82,5.87,5.87,0,0,1,2.9-4.52,12.59,12.59,0,0,1,10.76-1.81A7.29,7.29,0,0,1,114.24,69a3.78,3.78,0,0,1-.48,6.4,22.07,22.07,0,0,1-2.07,1.06,14.39,14.39,0,0,1,2.13,1.77c1.36,1.64,1.14,4.4-.38,6.28s-4.46,2.74-6.25,1.94c-1.5-.67-1.45-1.67.34-3.1l.94,2.28c2.8-1.25,3.16-6.66.9-9,.87-1.07,2.06-2,2.49-3.18a3.63,3.63,0,0,0-3-5,8.22,8.22,0,0,0-7.33,2.32C99.86,72.36,100,73.85,102.24,76.13Z"/><path d="M109.12,70.18c-.64,3.33-1.21,6.41-1.85,9.48a8.48,8.48,0,0,1-8.61,7.07,4.51,4.51,0,0,1-.52,0c-1.84-.18-3-1.25-3-2.78.08-1.85,1.62-1.9,3.12-2.48a8.67,8.67,0,0,0,0,1.73c.18.77.49,1.51.74,2.26.86-.32,2.15-.4,2.48-1a25.52,25.52,0,0,0,2-5.29c.39-1.38.42-2.86.75-4.26a6.31,6.31,0,0,1,4-4.65,1.75,1.75,0,0,1,.68-.09C109.17,70.15,109.32,70.26,109.12,70.18Z"/><path d="M136.66,70c-.27,2.71-1.54,3.42-4,2.17.13-.39.24-.81.39-1.21s.36-.83.53-1.24Z"/><text class="cls-2" transform="translate(88.25 56.91)">HUT PR<tspan class="cls-3" x="118.67" y="0">O</tspan><tspan class="cls-4" x="140.98" y="0">VIDE</tspan><tspan class="cls-5" x="215.44" y="0">R</tspan><tspan class="cls-4" x="237.59" y="0">S</tspan></text></svg>