<svg id="Layer_1" data-name="Layer 1" xmlns="http://www.w3.org/2000/svg" xmlns:xlink="http://www.w3.org/1999/xlink" viewBox="0 0 283.09 241.55"><defs><style>.cls-1{fill:#010101;}.cls-2{fill:url(#Gold_Radial_2);}.cls-3{fill:url(#radial-gradient);}</style><radialGradient id="Gold_Radial_2" cx="158.35" cy="158.85" r="122.33" gradientUnits="userSpaceOnUse"><stop offset="0" stop-color="#fcf174"/><stop offset="0.16" stop-color="#f6e163"/><stop offset="0.37" stop-color="#edc646"/><stop offset="0.69" stop-color="#ddb127"/><stop offset="1" stop-color="#8b6126"/></radialGradient><radialGradient id="radial-gradient" cx="158.35" cy="151.89" r="65.07" gradientUnits="userSpaceOnUse"><stop offset="0" stop-color="#fcf174"/><stop offset="0.23" stop-color="#f6e163"/><stop offset="0.54" stop-color="#edc646"/><stop offset="0.69" stop-color="#ddb127"/><stop offset="1" stop-color="#8b6126"/></radialGradient></defs><title>Builders Logo</title><path class="cls-1" d="M22.7,197.29l4.36,1.84a22.33,22.33,0,0,0,3.45,1.24,11.22,11.22,0,0,0,2.57.32q5.64,0,9.06-7.4a37.3,37.3,0,0,0,3.42-15.86q0-8.94-4.33-14.4a13.79,13.79,0,0,0-11.34-5.46,16.37,16.37,0,0,0-10.53,4q-4.9,4-4.91,8.52a4.54,4.54,0,0,0,2.85,4.59q1.23.58,1.23,1.53c0,.66-.89,1.37-2.67,2.14a13.66,13.66,0,0,1-3.25,1.16,3.73,3.73,0,0,1-3.06-2,8,8,0,0,1-1.32-4.47q0-6.5,6.78-12.33t17.66-5.83q10.41,0,16.6,5.73T55.46,176a27.37,27.37,0,0,1-3.83,13.94,28.8,28.8,0,0,1-10.3,10.47,26.25,26.25,0,0,1-13.72,3.88,24.88,24.88,0,0,1-11.36-2.65q-4.25,2.65-7.38,2.65a4.43,4.43,0,0,1-3-1,3.13,3.13,0,0,1-1.21-2.48,4.73,4.73,0,0,1,2.48-4,11.1,11.1,0,0,1,6.22-1.64,15.33,15.33,0,0,1,5.07.85,8.91,8.91,0,0,0,2.93-4.25A56.91,56.91,0,0,0,23,182.94a34.22,34.22,0,0,1,2.45-9.89,15.63,15.63,0,0,1,4.91-6,13.52,13.52,0,0,1,6.55-2.81L38.18,166A15.93,15.93,0,0,0,35,170.36c-.69,1.47-1.32,4.64-1.87,9.5s-1.63,8.52-3.21,10.95A20.56,20.56,0,0,1,22.7,197.29Z"/><path class="cls-1" d="M73.82,195.9q-8,8.35-11.9,8.36A4.33,4.33,0,0,1,58.25,202a9.79,9.79,0,0,1-1.5-5.59q0-7.24,4.9-20.06l8.63-1.8h.41l-3.4,10.64q-2.12,6.6-2.11,9.42a3.16,3.16,0,0,0,.49,1.82,1.49,1.49,0,0,0,1.25.69,4.55,4.55,0,0,0,2.67-1A33,33,0,0,0,73.82,192Zm-.68-34.62q0,8.16-6,8.16a7.44,7.44,0,0,1-5-1.77,24.32,24.32,0,0,0,3.06-6.73,9,9,0,0,0,4.32,1.67A6.15,6.15,0,0,0,73.14,161.28Z"/><path class="cls-1" d="M84.29,176c1.57-.41,3.14-.74,4.73-1a28.64,28.64,0,0,1,2.85-.39c.23,0,.34.09.34.27a2.34,2.34,0,0,1-.27,1.05,9.15,9.15,0,0,0-.54,3q0,1.77,2,4.83a10.44,10.44,0,0,1,2,5.68q0,5.21-5,10t-10.32,4.83A7.7,7.7,0,0,1,76,203c-1.27-.82-1.9-1.69-1.9-2.62,0-.55.63-1.58,1.88-3.1s2.16-2.27,2.71-2.27c.72,0,1.37.93,1.94,2.78s1.54,2.79,2.92,2.79a5.33,5.33,0,0,0,3.89-1.92,5.9,5.9,0,0,0,1.82-4.13q0-2.15-2.31-5.71a25.86,25.86,0,0,1-3.06-6,90.76,90.76,0,0,1-10,13h-.78v-3.06Q81.4,184,84.29,176Z"/><path class="cls-1" d="M123.33,195.9a38.77,38.77,0,0,1-8,6.29,15.5,15.5,0,0,1-7.57,2A9.82,9.82,0,0,1,97.63,194a20.1,20.1,0,0,1,5.28-13.38q5.3-6.15,11.45-6.14a7.19,7.19,0,0,1,4.93,1.68,5.59,5.59,0,0,1,1.9,4.37,2.37,2.37,0,0,1-.36,1.43,3.66,3.66,0,0,1-1.34.95l-3.94,1.87a2.8,2.8,0,0,1-1.06.34c-.32,0-.47-.23-.47-.68,0-.18.06-.78.2-1.78s.2-1.63.2-1.86a4.16,4.16,0,0,0-.63-2.41,2,2,0,0,0-1.68-.92c-1.65,0-3.17,1.22-4.54,3.67a16.86,16.86,0,0,0-2.06,8.37,10,10,0,0,0,1.94,6.46,6.29,6.29,0,0,0,5.17,2.41,9.38,9.38,0,0,0,5.19-1.58,32.26,32.26,0,0,0,5.52-4.84Z"/><path class="cls-1" d="M153.87,195.9a11.46,11.46,0,0,1-3.37,2.16,7.93,7.93,0,0,1-2.58.62,7.82,7.82,0,0,1-4.87-1.9q-4.89,7.41-11.22,7.41a7.87,7.87,0,0,1-6.39-3,11.93,11.93,0,0,1-2.45-7.85,18.24,18.24,0,0,1,5.51-13.31,17.86,17.86,0,0,1,13.16-5.56,10.53,10.53,0,0,1,4.23.63,2.88,2.88,0,0,1,1.65,1.48,6.21,6.21,0,0,1,.31,2.14q0,6.36-3.47,15.61A5.35,5.35,0,0,0,148,196q2.28,0,5.85-4Zm-11.22-19a4,4,0,0,0-1.47-.21c-2.94,0-5.25,1.55-6.92,4.63a22.47,22.47,0,0,0-2.49,10.81,10.92,10.92,0,0,0,1.08,5.34,3.36,3.36,0,0,0,3,1.9c1.61,0,3.35-1.48,5.24-4.45a13.54,13.54,0,0,1-3.2-8.64A11.89,11.89,0,0,1,142.65,176.89Z"/><path class="cls-1" d="M184.37,195.9a10.12,10.12,0,0,1-3.16,1.93,6.64,6.64,0,0,1-7.38-1.32q-6.06,7.68-12.82,7.68a6.76,6.76,0,0,1-5.53-2.43,10.45,10.45,0,0,1-2-6.78,37.9,37.9,0,0,1,2.38-11.77l2.38-7,9.22-1.73-4.09,12.27c-.43,1.34-.83,2.93-1.22,4.76a22.41,22.41,0,0,0-.57,4,4.85,4.85,0,0,0,1,3.08,2.91,2.91,0,0,0,2.36,1.24q3.26,0,7-5.58a15.42,15.42,0,0,1-1.74-7,15.63,15.63,0,0,1,2.57-8.77q2.57-3.92,5.63-3.91,2.31,0,2.31,3.57,0,6.9-5.58,15.94a5.32,5.32,0,0,0,3.64,1.6q2.31,0,5.58-3.7Z"/><path class="cls-1" d="M209.77,195.9a42.18,42.18,0,0,1-7.75,6.27,14.67,14.67,0,0,1-7.59,2,9.84,9.84,0,0,1-7.46-3,10.77,10.77,0,0,1-2.84-7.78,19.55,19.55,0,0,1,5-13q5-5.83,11.08-5.83a7.51,7.51,0,0,1,5.07,1.63,5.36,5.36,0,0,1,1.91,4.28q0,7-15,11.43,1.36,6.63,7.11,6.63a8.28,8.28,0,0,0,4.29-1.21,37.41,37.41,0,0,0,6.15-5.35ZM192,189.61q8.7-2.46,8.71-9.05c0-2.18-.8-3.26-2.38-3.26s-2.93,1.13-4.29,3.41A17.22,17.22,0,0,0,192,189.61Z"/><path class="cls-1" d="M235.2,195.9q-8.53,8.35-13.15,8.36a4.35,4.35,0,0,1-3.51-1.75,6.65,6.65,0,0,1-1.43-4.34q0-4.78,5.14-12.85a19.07,19.07,0,0,1-5.51,1.8,39.12,39.12,0,0,1-6.94,8.78H209v-3.06a44.68,44.68,0,0,0,4.8-5.92q-2.92-1.29-2.93-3.84a11,11,0,0,1,1.79-5.6,5.48,5.48,0,0,1,4.91-3c1.77,0,2.65.9,2.65,2.72a18.71,18.71,0,0,1-1.53,6.12q5.65-.61,9.86-8.64l3.1-.13-3.16,8.7q-2,5.5-2.55,7.5a12.62,12.62,0,0,0-.58,3.52,3.63,3.63,0,0,0,.66,2.28,2.17,2.17,0,0,0,1.79.85,3.86,3.86,0,0,0,2.34-.84c.75-.55,2.43-2.09,5-4.6Z"/><path class="cls-1" d="M271.52,195.9q-4.32,4.17-13.8,8.56-3.17,9-7.11,12.7t-8.23,3.73a4.68,4.68,0,0,1-3.49-1.33,4.81,4.81,0,0,1-1.31-3.53q0-6.71,12.28-12.14l2.07-7.31q-6.42,7.17-11.29,7.17a5.05,5.05,0,0,1-4.23-2.14,9.23,9.23,0,0,1-1.61-5.71,30.89,30.89,0,0,1,2.24-11l3.25-8.64,9.87-1.73-4.23,10.1q-2.91,7.3-2.9,11,0,3.06,2.07,3.06c1.4,0,3-1.13,4.81-3.4a30,30,0,0,0,4.54-8.36l3.88-10.68,9.27-1.73-8.84,26.59A38.42,38.42,0,0,0,271.52,192Zm-22.65,11.35a20.87,20.87,0,0,0-6.44,4.2,6.71,6.71,0,0,0-2.26,4.58c0,1.51.64,2.27,1.94,2.27Q245.88,218.3,248.87,207.25Z"/><path class="cls-1" d="M84.31,214.61a5.55,5.55,0,0,1,2.55,1.67,3.86,3.86,0,0,1,.9,2.55,4,4,0,0,1-.87,2.55,4.52,4.52,0,0,1-2.37,1.55,4.59,4.59,0,0,1,2.79,1.67,4.92,4.92,0,0,1,1,3.13,4.51,4.51,0,0,1-.92,2.81,5.79,5.79,0,0,1-2.62,1.86,10.86,10.86,0,0,1-4,.66H71.11V214h9.34A11.6,11.6,0,0,1,84.31,214.61ZM81.48,221a1.55,1.55,0,0,0,.49-1.21,1.42,1.42,0,0,0-.49-1.15,2,2,0,0,0-1.33-.42H76.73v3.23h3.42A1.88,1.88,0,0,0,81.48,221Zm.4,7.32a1.6,1.6,0,0,0,.63-1.33,1.44,1.44,0,0,0-.63-1.24,2.82,2.82,0,0,0-1.73-.42H76.73v3.45h3.42A2.69,2.69,0,0,0,81.88,228.36Z"/><path class="cls-1" d="M96.93,227.76a3.07,3.07,0,0,0,2.31,1,2.84,2.84,0,0,0,2.23-1,3.71,3.71,0,0,0,.87-2.59V214H108v11.16a8.52,8.52,0,0,1-1.07,4.36,7.26,7.26,0,0,1-3,2.88,10,10,0,0,1-4.62,1,10.2,10.2,0,0,1-4.67-1,7.41,7.41,0,0,1-3.11-2.88,8.43,8.43,0,0,1-1.1-4.36V214H96v11.16A3.62,3.62,0,0,0,96.93,227.76Z"/><path class="cls-1" d="M110.89,214h5.65v19h-5.65Z"/><path class="cls-1" d="M119.74,214h5.65v14.31h8v4.73H119.74Z"/><path class="cls-1" d="M149,215.2a8.65,8.65,0,0,1,3.59,3.34,9.63,9.63,0,0,1,1.28,5,9.5,9.5,0,0,1-1.3,5,8.64,8.64,0,0,1-3.67,3.35,12,12,0,0,1-5.46,1.19h-8.14V214h8.33A11.79,11.79,0,0,1,149,215.2ZM147,227.25a5.47,5.47,0,0,0,1.19-3.67,5.29,5.29,0,0,0-1.27-3.69,4.28,4.28,0,0,0-3.32-1.42H141v10.16h2.86A3.94,3.94,0,0,0,147,227.25Z"/><path class="cls-1" d="M156,214h15.56v4.35h-9.91v3h9v4.35h-9v3h10.18v4.35H156Z"/><path class="cls-1" d="M185.72,233.06l-2.52-5.14h-3v5.14h-5.65V214h8.88a9,9,0,0,1,5.94,1.77,6.15,6.15,0,0,1,2.1,5,7.54,7.54,0,0,1-.83,3.63,6.15,6.15,0,0,1-2.37,2.43l3.85,6.22Zm-5.51-9.48h3.23a2.71,2.71,0,0,0,2-.68,2.61,2.61,0,0,0,.69-2,2.55,2.55,0,0,0-.69-1.92,2.74,2.74,0,0,0-2-.66h-3.23Z"/><path class="cls-1" d="M204.59,218.64a9.52,9.52,0,0,0-3-.63,2.05,2.05,0,0,0-1.16.29.93.93,0,0,0-.42.83,1.3,1.3,0,0,0,.82,1.18,14.65,14.65,0,0,0,2.58.91,24.81,24.81,0,0,1,3.31,1.15,6.13,6.13,0,0,1,2.27,1.78,4.89,4.89,0,0,1,1,3.15,5.39,5.39,0,0,1-1,3.35,6.21,6.21,0,0,1-2.83,2,10.9,10.9,0,0,1-4,.68,15.06,15.06,0,0,1-4.9-.83,13.68,13.68,0,0,1-4.25-2.26l2.12-4.29a12.68,12.68,0,0,0,3.52,2.1,9.65,9.65,0,0,0,3.57.86,2.51,2.51,0,0,0,1.44-.36,1.14,1.14,0,0,0,.51-1,1.31,1.31,0,0,0-.84-1.21,14.54,14.54,0,0,0-2.61-.88,23.33,23.33,0,0,1-3.28-1.08,5.86,5.86,0,0,1-2.26-1.72,4.73,4.73,0,0,1-.95-3.07,5.43,5.43,0,0,1,1-3.22,6.18,6.18,0,0,1,2.76-2.1,10.74,10.74,0,0,1,4.14-.73,15.18,15.18,0,0,1,4.26.61,14.25,14.25,0,0,1,3.7,1.61l-2.1,4.35A17.31,17.31,0,0,0,204.59,218.64Z"/><path class="cls-1" d="M74.59,96.35V7.69H137s24,0,40.72,10.65,0,42.24,0,42.24S169,33.18,138.9,32.8H102.37V52L121,38.51l30.82,20.63V86.08l-31.2-19.41-46,31.59"/><path class="cls-1" d="M74.59,118.46v34.63h39.56s19.11-5,25.87-9.91c0,0-5.39-10.49-4.85-14.51H102.22v-28.6Z"/><rect class="cls-1" x="112.69" y="88.63" width="6.38" height="6.38"/><rect class="cls-1" x="112.69" y="99.27" width="6.38" height="6.38"/><rect class="cls-1" x="122.9" y="88.63" width="6.38" height="6.38"/><rect class="cls-1" x="122.9" y="99.27" width="6.38" height="6.38"/><path class="cls-2" d="M170.4,14.58s27.71,8,1.37,60.17a120.82,120.82,0,0,1-15.67,26.34s-18.39,17-5.45,40.19c0,0,37.47-14.76,49.73-58.58,0,0-5.45,69.48-77.88,70.39,0,0,74,11.35,91-55.63C213.54,97.46,227.62,38.65,170.4,14.58Z"/><path class="cls-3" d="M200.2,83.12s-15.62,31.69-52.92,49.78a34.25,34.25,0,0,0,3.35,8.34C153,145.2,196.1,114.16,200.2,83.12Z"/></svg>